<?xml version="1.0" encoding="iso-8859-1"?>
<!-- Generator: Adobe Illustrator 19.0.0, SVG Export Plug-In . SVG Version: 6.00 Build 0)  -->
<svg version="1.1" id="Capa_1" xmlns="http://www.w3.org/2000/svg" xmlns:xlink="http://www.w3.org/1999/xlink" x="0px" y="0px"
	 viewBox="0 0 60 60" style="enable-background:new 0 0 60 60;" xml:space="preserve">
<g>
	<g>
		<path d="M59,0H1C0.4,0,0,0.4,0,1v58c0,0.6,0.4,1,1,1h58c0.6,0,1-0.4,1-1V1C60,0.4,59.6,0,59,0z M58,2v6H2V2H58z M43,58v-7h-2v7H2
			V10h56v37H45v2h13v9H43z"/>
		<rect x="4" y="4" width="4" height="2"/>
		<rect x="10" y="4" width="4" height="2"/>
		<path d="M45,27h2c0.4,0,0.7-0.2,0.8-0.5c0.2-0.3,0.2-0.7,0-1L43.1,18H46v-2h-3v-3h-2v3h-3v2h2.8l-4.7,7.5c-0.2,0.3-0.2,0.7,0,1
			S36.6,27,37,27h2v5c0,0.6,0.4,1,1,1h4c0.6,0,1-0.4,1-1V27z M44,25c-0.6,0-1,0.4-1,1v5h-2v-5c0-0.6-0.4-1-1-1h-1.2l3.2-5.1l3.2,5.1
			H44z"/>
		<path d="M26,45.1h-5v-2c0-0.4-0.2-0.7-0.5-0.9s-0.7-0.2-1,0L12,46.9V44h-2v3H7v2h3v3h2v-2.9l7.5,4.7c0.1,0.1,0.3,0.2,0.5,0.2
			s0.3,0,0.5,0c0.3-0.2,0.5-0.5,0.5-0.9v-2h5c0.6,0,1-0.4,1-1v-4C27,45.5,26.6,45.1,26,45.1z M25,49h-5c-0.6,0-1,0.4-1,1v1.2
			L13.9,48l5.1-3.2V46c0,0.6,0.4,1,1,1h5V49z"/>
		<rect x="41" y="47" width="2" height="2"/>
		<rect x="41" y="43" width="2" height="2"/>
		<rect x="37" y="47" width="2" height="2"/>
		<rect x="33" y="47" width="2" height="2"/>
		<rect x="29" y="47" width="2" height="2"/>
		<rect x="41" y="39" width="2" height="2"/>
		<rect x="41" y="35" width="2" height="2"/>
		<path d="M18,36c6.1,0,11-4.9,11-11s-4.9-11-11-11S7,18.9,7,25S11.9,36,18,36z M18,16c5,0,9,4,9,9s-4,9-9,9s-9-4-9-9S13,16,18,16z"
			/>
		<path d="M17,30v1h2v-1c1.2,0,2-0.8,2-2v-2c0-1.2-0.8-2-2-2h-2v-2h2v1h2v-1c0-1.2-0.8-2-2-2v-1h-2v1c-1.2,0-2,0.8-2,2v2
			c0,1.2,0.8,2,2,2h2v2h-2v-1h-2v1C15,29.2,15.8,30,17,30z"/>
	</g>
</g>
<g>
</g>
<g>
</g>
<g>
</g>
<g>
</g>
<g>
</g>
<g>
</g>
<g>
</g>
<g>
</g>
<g>
</g>
<g>
</g>
<g>
</g>
<g>
</g>
<g>
</g>
<g>
</g>
<g>
</g>
</svg>
