<svg xmlns="http://www.w3.org/2000/svg" id="svg" preserveAspectRatio="none" width="438px" height="307px" viewBox="0 0 438 307">
        <g id="world" transform="matrix(0.31334735141085446, 0, 0, 0.31334735141085446, 0, 0)">
          <rect id="background-overlay" x="0" y="0" width="1400" height="980" style="fill: url(#ee-checkboard-pattern);"/>

          <pattern id="ee-checkboard-pattern" viewBox="0 0 10 10" width="10" height="10" patternUnits="userSpaceOnUse" patternTransform="scale(3.1913467054815055)">
            <rect x="0" y="0" width="5" height="5" fill="#d6d6d6"/>
            <rect x="5" y="0" width="5" height="5" fill="white"/>
            <rect x="0" y="5" width="5" height="5" fill="white"/>
            <rect x="5" y="5" width="5" height="5" fill="#d6d6d6"/>
          </pattern>

          <g id="artboards">
            
            <g xmlns="http://www.w3.org/2000/svg" id="master-artboard" viewBox="0 0 1400 980" version="1.1" x="0px" y="0px" width="1400px" height="980px" enable-background="new 0 0 1400 980">
<g transform="matrix(1, 0, 0, 1, 0, 0)">
		<g>
			<path d="M 0 0 H 1400 V 980 H 0 V 0 Z" fill="#FFFFFF"/>
		</g>
	</g><path fill="#FFE1C0" d="M644.1,202.4v38.3h24.5h27.3h27.3h24.5v-38.3c0-25.4-20.6-45.9-45.9-45.9H690    C664.6,156.5,644.1,177,644.1,202.4z" transform="matrix(1, 0, 0, 1, 0, 0)"/><path d="M747.6,243.3H644.1c-1.4,0-2.6-1.1-2.6-2.6v-38.3c0-26.7,21.8-48.5,48.5-48.5h11.6c26.7,0,48.5,21.8,48.5,48.5v38.3    C750.2,242.1,749,243.3,747.6,243.3z M646.6,238.2H745v-35.7c0-23.9-19.5-43.4-43.4-43.4H690c-23.9,0-43.4,19.5-43.4,43.4V238.2z" transform="matrix(1, 0, 0, 1, 0, 0)"/><path d="M 695.7999877929688 684.7999877929688 L 711.0999755859375 653.0999755859375 L 680.5 653.0999755859375 Z" fill="#A7A9AC" transform="matrix(1, 0, 0, 1, 0, 0)"/><path d="M695.8,687.3L695.8,687.3c-1,0-1.9-0.6-2.3-1.4l-15.3-31.7c-0.4-0.8-0.3-1.7,0.1-2.5c0.5-0.7,1.3-1.2,2.2-1.2h30.6    c0.9,0,1.7,0.5,2.2,1.2c0.5,0.7,0.5,1.7,0.1,2.5l-15.3,31.7C697.7,686.8,696.8,687.3,695.8,687.3z M684.6,655.6l11.2,23.3    l11.2-23.3H684.6z" transform="matrix(1, 0, 0, 1, 0, 0)"/><path d="M 675.7000122070312 653.0999755859375 L 716 653.0999755859375 L 754.0999755859375 574.0999755859375 L 726.5 574.0999755859375 L 695.7999877929688 574.0999755859375 L 665.0999755859375 574.0999755859375 L 637.5999755859375 574.0999755859375 Z" fill="#FFE1C0" transform="matrix(1, 0, 0, 1, 0, 0)"/><path d="M716,655.6h-40.2c-1,0-1.9-0.6-2.3-1.4l-38.2-79c-0.4-0.8-0.3-1.7,0.1-2.5c0.5-0.7,1.3-1.2,2.2-1.2h116.5    c0.9,0,1.7,0.5,2.2,1.2c0.5,0.7,0.5,1.7,0.1,2.5l-38.1,79C717.8,655.1,716.9,655.6,716,655.6z M677.3,650.5h37l35.7-73.9H641.6    L677.3,650.5z" transform="matrix(1, 0, 0, 1, 0, 0)"/><path fill="#A7A9AC" d="M963.1,595.8c-30.4-49.3-94.9-40-124-0.7c-25.6,33.2-47.2,96.5-98.8,93.5c50,15.5,108.3,25.4,161.1,15.9    C949.2,695.5,994.8,649.8,963.1,595.8z" transform="matrix(1, 0, 0, 1, 0, 0)"/><path d="M857.6,710.7C857.6,710.7,857.6,710.7,857.6,710.7c-36.1,0-75.8-6.6-118.1-19.7c-1.2-0.4-2-1.6-1.8-2.9    c0.2-1.3,1.4-2.1,2.7-2.1c37.6,2.2,59.2-33.2,78.2-64.4c6.3-10.3,12.2-20,18.4-28.1c15.5-20.9,41.1-34,66.9-34    c25.6,0,47.4,12.4,61.2,34.8c12.5,21.3,14.3,43.1,5.2,63c-11.1,24.3-38,43.8-68.6,49.5C888,709.5,873.1,710.7,857.6,710.7z     M754.9,690.2c36.6,10.2,71.1,15.4,102.7,15.4c0,0,0,0,0,0c15.2,0,29.7-1.2,43.3-3.7c29-5.4,54.4-23.7,64.9-46.6    c8.4-18.4,6.7-38.5-4.9-58.3c-12.9-20.9-33.1-32.4-56.9-32.4c-24.2,0-48.3,12.2-62.9,31.9c-6.1,7.9-11.9,17.5-18.1,27.7    C805.8,652.5,786.5,684.2,754.9,690.2z" transform="matrix(1, 0, 0, 1, 0, 0)"/><path fill="#FF6D4E" d="M954.3,305.7c56,7.4,78.1,56.2,59.9,105.9c-33.4,96.8-157.6,87.9-216,177.1c-3.4-33.4-4.2-94.1,4.5-134.1    c6.8-31.2,11.9-47.7,26.4-74.2C853.2,335.1,902.3,298,954.3,305.7z" transform="matrix(1, 0, 0, 1, 0, 0)"/><path d="M798.2,591.3c-0.2,0-0.4,0-0.6-0.1c-1-0.3-1.8-1.1-1.9-2.2c-3.2-31.4-4.6-93.2,4.6-134.9c6.7-30.7,11.9-47.9,26.7-74.8    c24.8-46.9,69.4-77.2,113.5-77.2c4.7,0,9.5,0.4,14.2,1c25.6,3.4,46.1,15.8,57.7,34.9c12.5,20.6,14,47.7,4.3,74.4    c-18.2,52.8-62.3,74.4-108.9,97.3c-39.6,19.4-80.6,39.5-107.3,80.4C799.9,590.9,799.1,591.3,798.2,591.3z M940.5,307.3    c-48.1,0-89.4,37.4-109,74.5c-14.3,26.1-19.3,41.9-26.2,73.5c-8.4,38.2-7.8,93.7-5.1,126.2c27.4-38.1,67-57.5,105.3-76.3    c45.7-22.4,88.9-43.6,106.4-94.4c9.2-25.3,7.8-50.8-3.8-70c-11-18.1-29.6-29.3-54-32.5C949.5,307.6,945,307.3,940.5,307.3z" transform="matrix(1, 0, 0, 1, 0, 0)"/><path fill="#00EAA2" d="M537.2,605.8c-24.6-27.6-36.6-60.6-77.5-66.2c-39.5-5.6-64.8,22.5-64.8,62c0,55,55,84.6,104.3,93    c50.7,11.3,102.9,9.9,152.2-4.2C602.4,675.1,566.2,638.3,537.2,605.8z" transform="matrix(1, 0, 0, 1, 0, 0)"/><path d="M567.2,704.7C567.2,704.7,567.2,704.7,567.2,704.7c-22.9,0-46-2.5-68.7-7.6c-49-8.4-106.3-38.5-106.3-95.5    c0-38.4,23.7-65.3,57.5-65.3c3.3,0,6.7,0.2,10.2,0.7c31.6,4.4,46.5,24.5,62.3,45.8c5.2,7.1,10.6,14.3,16.8,21.2    c31.1,34.9,66.4,69.2,113,83.8c1.1,0.3,1.8,1.3,1.8,2.5c0,1.1-0.8,2.1-1.9,2.4C624.5,700.7,596,704.7,567.2,704.7z M449.8,541.4    c-31.4,0-52.4,24.2-52.4,60.2c0,53.9,55,82.4,102.2,90.5c22.4,5,45.1,7.5,67.7,7.5h0c25.5,0,50.8-3.2,75.4-9.5    c-43.9-16.2-77.5-49.1-107.3-82.6c-6.3-7.1-11.8-14.4-17.1-21.6c-15.8-21.3-29.4-39.7-58.9-43.8    C456.1,541.6,452.9,541.4,449.8,541.4z" transform="matrix(1, 0, 0, 1, 0, 0)"/><path d="M695.8,868c-1.4,0-2.6-1.1-2.6-2.6V716.3c0-1.4,1.1-2.6,2.6-2.6c1.4,0,2.6,1.1,2.6,2.6v149.1    C698.4,866.9,697.2,868,695.8,868z" transform="matrix(1, 0, 0, 1, 0, 0)"/><path fill="#FFED72" d="M505.2,512.9c-17.5-28.3-15.3-84.1,32.8-90.1c28.1-1.4,66.6,15.5,65.3,66.2c-0.9,37.3-35.2,63.5-4.9,96.6    C541.6,560.9,518.6,534.5,505.2,512.9z" transform="matrix(1, 0, 0, 1, 0, 0)"/><path d="M598.4,588.1c-0.3,0-0.7-0.1-1-0.2c-59.1-25.6-81.4-52.9-94.3-73.7c-10.2-16.5-15-44.8-4.4-66.9    c5.2-10.8,16.1-24.2,39.1-27c1.3-0.1,2.4-0.1,3.5-0.1c18.4,0,35.6,6.9,47.4,19c12,12.3,17.9,29.1,17.3,49.9    c-0.3,13.8-5,25.9-9.5,37.6c-7.7,19.8-14.3,37,3.6,56.8c0.7,0.5,1.1,1.2,1.1,2.1C601,587,600,588.1,598.4,588.1    C598.4,588.1,598.4,588.1,598.4,588.1z M541.1,425.3c-1,0-2,0-3,0.1c-16.2,2-28.3,10.4-34.9,24.1c-9.8,20.4-5.3,46.7,4.2,62    c11.8,19.1,31.9,43.7,82.7,67.5c-12.2-19-5.5-36.2,1.5-54.3c4.4-11.3,8.9-22.9,9.2-35.9c0.5-19.4-4.9-34.9-15.9-46.2    C574.1,431.6,558.1,425.3,541.1,425.3z" transform="matrix(1, 0, 0, 1, 0, 0)"/><path fill="#231F20" d="M873.6,359.8c-0.6,0-1.2-0.2-1.7-0.6c-1.1-0.9-1.2-2.5-0.3-3.6c0.4-0.4,39.3-44.4,94.5-29.5    c1.4,0.4,2.2,1.8,1.8,3.1c-0.4,1.4-1.8,2.2-3.1,1.8c-52-14.1-88.9,27.5-89.3,27.9C875,359.5,874.3,359.8,873.6,359.8z" transform="matrix(1, 0, 0, 1, 0, 0)"/><path fill="#231F20" d="M909.7,689.9c-1,0-2-0.6-2.4-1.6c-0.5-1.3,0.2-2.8,1.5-3.3c46.4-17.5,47-55.6,47.1-57.2    c0-1.4,1.1-2.5,2.6-2.5c0,0,0,0,0,0c1.4,0,2.5,1.1,2.5,2.5c0,0.4-0.6,43.1-50.4,61.9C910.3,689.9,910,689.9,909.7,689.9z" transform="matrix(1, 0, 0, 1, 0, 0)"/><path fill="#231F20" d="M583.7,499.4c-0.2,0-0.4,0-0.5-0.1c-1.4-0.3-2.3-1.7-2-3c7.2-33.4-14.1-46.8-15-47.3    c-1.2-0.7-1.6-2.3-0.9-3.5c0.7-1.2,2.3-1.6,3.5-0.9c0.3,0.2,25.3,15.7,17.3,52.8C585.9,498.5,584.9,499.4,583.7,499.4z" transform="matrix(1, 0, 0, 1, 0, 0)"/><path fill="#231F20" d="M451.8,660.1c-0.5,0-1-0.1-1.4-0.4c-50.1-33.1-34.9-73.3-34.8-73.7c0.5-1.3,2-2,3.3-1.4    c1.3,0.5,2,2,1.4,3.3c-0.6,1.5-13.6,36.8,32.8,67.6c1.2,0.8,1.5,2.4,0.7,3.5C453.5,659.7,452.7,660.1,451.8,660.1z" transform="matrix(1, 0, 0, 1, 0, 0)"/><path d="M683.6,576.6h-24.5c-1.4,0-2.6-1.1-2.6-2.6V240.7c0-1.4,1.1-2.6,2.6-2.6h24.5c1.4,0,2.6,1.1,2.6,2.6v333.4    C686.1,575.5,685,576.6,683.6,576.6z M661.7,571.5H681V243.3h-19.4V571.5z" transform="matrix(1, 0, 0, 1, 0, 0)"/><path d="M 637.599976 240.699997 H 659.199976 V 574.099991 H 637.599976 V 240.699997 Z" fill="#00B08A" transform="matrix(1, 0, 0, 1, 0, 0)"/><path d="M659.1,576.6h-21.6c-1.4,0-2.6-1.1-2.6-2.6V240.7c0-1.4,1.1-2.6,2.6-2.6h21.6c1.4,0,2.6,1.1,2.6,2.6v333.4    C661.7,575.5,660.5,576.6,659.1,576.6z M640.1,571.5h16.4V243.3h-16.4V571.5z" transform="matrix(1, 0, 0, 1, 0, 0)"/><path d="M 732.599976 240.699997 H 754.099976 V 574.099991 H 732.599976 V 240.699997 Z" fill="#00B08A" transform="matrix(1, 0, 0, 1, 0, 0)"/><path d="M754.1,576.6h-21.5c-1.4,0-2.6-1.1-2.6-2.6V240.7c0-1.4,1.1-2.6,2.6-2.6h21.5c1.4,0,2.6,1.1,2.6,2.6v333.4    C756.7,575.5,755.5,576.6,754.1,576.6z M735.1,571.5h16.4V243.3h-16.4V571.5z" transform="matrix(1, 0, 0, 1, 0, 0)"/><path d="M732.6,576.6h-24.5c-1.4,0-2.6-1.1-2.6-2.6V240.7c0-1.4,1.1-2.6,2.6-2.6h24.5c1.4,0,2.6,1.1,2.6,2.6v333.4    C735.1,575.5,734,576.6,732.6,576.6z M710.6,571.5H730V243.3h-19.4V571.5z" transform="matrix(1, 0, 0, 1, 0, 0)"/><path d="M 695.7999877929688 240.6999969482422 L 683.5999755859375 240.6999969482422 L 683.5999755859375 574.0999755859375 L 695.7999877929688 574.0999755859375 L 708.0999755859375 574.0999755859375 L 708.0999755859375 240.6999969482422 Z" fill="#00B08A" transform="matrix(1, 0, 0, 1, 0, 0)"/><path d="M708.1,576.6h-24.5c-1.4,0-2.6-1.1-2.6-2.6V240.7c0-1.4,1.1-2.6,2.6-2.6h24.5c1.4,0,2.6,1.1,2.6,2.6v333.4    C710.6,575.5,709.5,576.6,708.1,576.6z M686.1,571.5h19.4V243.3h-19.4V571.5z" transform="matrix(1, 0, 0, 1, 0, 0)"/><g transform="matrix(1, 0, 0, 1, 0, 0)">
			<path fill="#FFFFFF" d="M123.7,84.4c93.8,50.6-79,193.1,38.7,207.1h26.7C251,222.5,226.8,106.5,123.7,84.4z"/>
			<path d="M189.1,294.1h-26.7c-20.9-2.5-34.1-8.9-40.6-19.7c-11.2-18.6-0.4-46.6,11-76.3c16.6-43.1,33.7-87.7-10.3-111.4     c-1.1-0.6-1.6-1.9-1.2-3.1c0.4-1.2,1.7-1.9,2.9-1.6c46.5,10,81.1,40,94.9,82.5c14.3,44.1,3.5,93.5-28.2,128.8     C190.5,293.7,189.8,294.1,189.1,294.1z M137.6,90.8c31.4,27.2,14.8,70.4-0.1,109.1c-10.9,28.5-21.3,55.4-11.4,71.8     c5.6,9.4,17.6,15,36.5,17.3l25.2,0c29.9-33.9,40-80.9,26.4-123C202.5,129.8,175,103,137.6,90.8z"/>
		</g><path d="M 194.89999389648438 474 L 135.89999389648438 474 L 143.1999969482422 300.79998779296875 L 187.60000610351562 300.79998779296875 Z" fill="#FFFFFF" transform="matrix(1, 0, 0, 1, 0, 0)"/><path d="M195,476.5c0,0-0.1,0-0.1,0h-59c-0.7,0-1.4-0.3-1.8-0.8c-0.5-0.5-0.7-1.2-0.7-1.9l7.3-173.2c0.1-1.4,1.2-2.4,2.5-2.4     h44.4c1.4,0,2.5,1.1,2.5,2.4l7.3,172.5c0.1,0.3,0.1,0.5,0.1,0.8C197.6,475.4,196.4,476.5,195,476.5z M138.6,471.4h53.7     l-7.1-168.1h-39.5L138.6,471.4z" transform="matrix(1, 0, 0, 1, 0, 0)"/><path fill="#FFFFFF" d="M201.7,291.5c0,5.1-4.2,9.3-9.3,9.3h-53.9c-5.1,0-9.3-4.1-9.3-9.3l0,0c0-5.1,4.2-9.3,9.3-9.3h53.9     C197.5,282.2,201.7,286.4,201.7,291.5L201.7,291.5z" transform="matrix(1, 0, 0, 1, 0, 0)"/><path d="M192.4,303.3h-53.9c-6.5,0-11.8-5.3-11.8-11.8c0-6.5,5.3-11.8,11.8-11.8h53.9c6.5,0,11.8,5.3,11.8,11.8     C204.2,298,198.9,303.3,192.4,303.3z M138.5,284.8c-3.7,0-6.7,3-6.7,6.7c0,3.7,3,6.7,6.7,6.7h53.9c3.7,0,6.7-3,6.7-6.7     c0-3.7-3-6.7-6.7-6.7H138.5z" transform="matrix(1, 0, 0, 1, 0, 0)"/><path fill="#FFFFFF" d="M403,330.7c0,6.8-5.5,12.3-12.3,12.3h-71.6c-6.8,0-12.3-5.5-12.3-12.3l0,0c0-6.8,5.5-12.3,12.3-12.3h71.6     C397.5,318.3,403,323.9,403,330.7L403,330.7z" transform="matrix(1, 0, 0, 1, 0, 0)"/><path d="M390.7,345.5h-71.6c-8.2,0-14.9-6.7-14.9-14.9c0-8.2,6.7-14.9,14.9-14.9h71.6c8.2,0,14.9,6.7,14.9,14.9     C405.6,338.9,398.9,345.5,390.7,345.5z M319.1,320.9c-5.4,0-9.8,4.4-9.8,9.8c0,5.4,4.4,9.8,9.8,9.8h71.6c5.4,0,9.8-4.4,9.8-9.8     c0-5.4-4.4-9.8-9.8-9.8H319.1z" transform="matrix(1, 0, 0, 1, 0, 0)"/><path fill="#FFFFFF" d="M171.2,282.2c0,0,38.5-27.2,30.5-102.9" transform="matrix(1, 0, 0, 1, 0, 0)"/><path d="M171.2,284.8c-0.8,0-1.6-0.4-2.1-1.1c-0.8-1.1-0.5-2.7,0.6-3.6c0.4-0.3,37.2-27.5,29.4-100.5c-0.1-1.4,0.9-2.7,2.3-2.8     c1.4-0.1,2.7,0.9,2.8,2.3c8.1,76.3-29.9,104.1-31.5,105.2C172.2,284.6,171.7,284.8,171.2,284.8z" transform="matrix(1, 0, 0, 1, 0, 0)"/><path d="M434,476.5H83.5c-1.4,0-2.6-1.1-2.6-2.6c0-1.4,1.1-2.6,2.6-2.6H434c1.4,0,2.6,1.1,2.6,2.6     C436.5,475.4,435.4,476.5,434,476.5z" transform="matrix(1, 0, 0, 1, 0, 0)"/><path d="M385.4,320.9h-61c-1,0-1.9-0.6-2.3-1.5l-30.5-71.2c-0.3-0.6-0.3-1.3,0-1.9l61-163.3c0.7-2,4-2,4.8,0l61,163.3     c0.2,0.6,0.2,1.3,0,1.9l-30.5,71.2C387.4,320.3,386.4,320.9,385.4,320.9z M326.1,315.8h57.7l29.5-68.8L354.9,91.1L296.6,247     L326.1,315.8z" transform="matrix(1, 0, 0, 1, 0, 0)"/><path d="M354.9,242.8c-1.4,0-2.6-1.1-2.6-2.6V83.8c0-1.4,1.1-2.6,2.6-2.6s2.6,1.1,2.6,2.6v156.4     C357.5,241.6,356.3,242.8,354.9,242.8z" transform="matrix(1, 0, 0, 1, 0, 0)"/><path d="M354.9,267.6c-8.3,0-15-6.7-15-15c0-8.3,6.7-15,15-15c8.3,0,15,6.7,15,15C369.9,260.9,363.2,267.6,354.9,267.6z      M354.9,242.8c-5.4,0-9.9,4.4-9.9,9.9c0,5.4,4.4,9.9,9.9,9.9c5.4,0,9.9-4.4,9.9-9.9C364.8,247.2,360.3,242.8,354.9,242.8z" transform="matrix(1, 0, 0, 1, 0, 0)"/><path d="M383.7,476.5h-57.6c-1.4,0-2.6-1.1-2.6-2.6V343c0-1.4,1.1-2.6,2.6-2.6h57.6c1.4,0,2.6,1.1,2.6,2.6v131     C386.3,475.4,385.1,476.5,383.7,476.5z M328.7,471.4h52.5V345.5h-52.5V471.4z" transform="matrix(1, 0, 0, 1, 0, 0)"/><g transform="matrix(1, 0, 0, 1, 0, 0)">
			<g>
				<path d="M249.6,618.3h-28.1c-1.4,0-2.6-1.1-2.6-2.6c0-1.4,1.1-2.6,2.6-2.6H247v-25.5c0-1.4,1.1-2.6,2.6-2.6      c1.4,0,2.6,1.1,2.6,2.6v28.1C252.1,617.2,251,618.3,249.6,618.3z"/>
			</g>
			<g>
				<path d="M249.6,577.5c-1.4,0-2.6-1.1-2.6-2.6v-25.5h-25.5c-1.4,0-2.6-1.1-2.6-2.6c0-1.4,1.1-2.6,2.6-2.6h28.1      c1.4,0,2.6,1.1,2.6,2.6V575C252.1,576.4,251,577.5,249.6,577.5z"/>
			</g>
			<g>
				<path d="M197.3,549.5h-33.2c-1.4,0-2.6-1.1-2.6-2.6c0-1.4,1.1-2.6,2.6-2.6h33.2c1.4,0,2.6,1.1,2.6,2.6      C199.9,548.3,198.7,549.5,197.3,549.5z"/>
			</g>
			<g>
				<path d="M111.9,577.5c-1.4,0-2.6-1.1-2.6-2.6v-28.1c0-1.4,1.1-2.6,2.6-2.6h28.1c1.4,0,2.6,1.1,2.6,2.6c0,1.4-1.1,2.6-2.6,2.6      h-25.5V575C114.4,576.4,113.3,577.5,111.9,577.5z"/>
			</g>
			<g>
				<path d="M111.9,634.9c-1.4,0-2.6-1.1-2.6-2.6v-33.2c0-1.4,1.1-2.6,2.6-2.6c1.4,0,2.6,1.1,2.6,2.6v33.2      C114.4,633.8,113.3,634.9,111.9,634.9z"/>
			</g>
			<g>
				<path d="M139.9,687.1h-28.1c-1.4,0-2.6-1.1-2.6-2.6v-28.1c0-1.4,1.1-2.6,2.6-2.6c1.4,0,2.6,1.1,2.6,2.6V682h25.5      c1.4,0,2.6,1.1,2.6,2.6C142.5,686,141.4,687.1,139.9,687.1z"/>
			</g>
			<g>
				<path d="M180.7,687.1h-28.1c-1.4,0-2.6-1.1-2.6-2.6c0-1.4,1.1-2.6,2.6-2.6h25.5v-25.5c0-1.4,1.1-2.6,2.6-2.6s2.6,1.1,2.6,2.6      v28.1C183.3,686,182.1,687.1,180.7,687.1z"/>
			</g>
			<g>
				<path d="M180.7,646.4c-1.4,0-2.6-1.1-2.6-2.6v-28.1c0-1.4,1.1-2.6,2.6-2.6h28.1c1.4,0,2.6,1.1,2.6,2.6c0,1.4-1.1,2.6-2.6,2.6      h-25.5v25.5C183.3,645.2,182.1,646.4,180.7,646.4z"/>
			</g>
		</g><g transform="matrix(1, 0, 0, 1, 0, 0)">
				<path d="M249.6,646.4c-1.4,0-2.6-1.1-2.6-2.6v-28.1c0-1.4,1.1-2.6,2.6-2.6h28.1c1.4,0,2.6,1.1,2.6,2.6c0,1.4-1.1,2.6-2.6,2.6      h-25.5v25.5C252.1,645.2,251,646.4,249.6,646.4z"/>
			</g><path d="M249.6,687.1h-28.1c-1.4,0-2.6-1.1-2.6-2.6c0-1.4,1.1-2.6,2.6-2.6H247v-25.5c0-1.4,1.1-2.6,2.6-2.6      c1.4,0,2.6,1.1,2.6,2.6v28.1C252.1,686,251,687.1,249.6,687.1z" transform="matrix(1, 0, 0, 1, 0, 0)"/><path d="M180.7,715.2c-1.4,0-2.6-1.1-2.6-2.6v-28.1c0-1.4,1.1-2.6,2.6-2.6h28.1c1.4,0,2.6,1.1,2.6,2.6c0,1.4-1.1,2.6-2.6,2.6      h-25.5v25.5C183.3,714.1,182.1,715.2,180.7,715.2z" transform="matrix(1, 0, 0, 1, 0, 0)"/><path d="M208.8,756h-28.1c-1.4,0-2.6-1.1-2.6-2.6v-28.1c0-1.4,1.1-2.6,2.6-2.6s2.6,1.1,2.6,2.6v25.5h25.5c1.4,0,2.6,1.1,2.6,2.6      C211.3,754.8,210.2,756,208.8,756z" transform="matrix(1, 0, 0, 1, 0, 0)"/><path d="M266.2,756h-33.2c-1.4,0-2.6-1.1-2.6-2.6c0-1.4,1.1-2.6,2.6-2.6h33.2c1.4,0,2.6,1.1,2.6,2.6      C268.7,754.8,267.6,756,266.2,756z" transform="matrix(1, 0, 0, 1, 0, 0)"/><path d="M318.4,756h-28.1c-1.4,0-2.6-1.1-2.6-2.6c0-1.4,1.1-2.6,2.6-2.6h25.5v-25.5c0-1.4,1.1-2.6,2.6-2.6s2.6,1.1,2.6,2.6v28.1      C321,754.8,319.8,756,318.4,756z" transform="matrix(1, 0, 0, 1, 0, 0)"/><path d="M318.4,703.7c-1.4,0-2.6-1.1-2.6-2.6V668c0-1.4,1.1-2.6,2.6-2.6s2.6,1.1,2.6,2.6v33.2      C321,702.6,319.8,703.7,318.4,703.7z" transform="matrix(1, 0, 0, 1, 0, 0)"/><path d="M318.4,646.4c-1.4,0-2.6-1.1-2.6-2.6v-25.5h-25.5c-1.4,0-2.6-1.1-2.6-2.6c0-1.4,1.1-2.6,2.6-2.6h28.1      c1.4,0,2.6,1.1,2.6,2.6v28.1C321,645.2,319.8,646.4,318.4,646.4z" transform="matrix(1, 0, 0, 1, 0, 0)"/><path d="M 180.699997 615.700012 H 249.5 V 684.500015 H 180.699997 V 615.700012 Z" fill="#FF6D4E" transform="matrix(1, 0, 0, 1, 0, 0)"/><path d="M249.6,687.1h-68.8c-1.4,0-2.6-1.1-2.6-2.6v-68.8c0-1.4,1.1-2.6,2.6-2.6h68.8c1.4,0,2.6,1.1,2.6,2.6v68.8     C252.1,686,251,687.1,249.6,687.1z M183.3,682H247v-63.7h-63.7V682z" transform="matrix(1, 0, 0, 1, 0, 0)"/><path d="M346.8,582.7h-61.6c-1.4,0-2.6-1.1-2.6-2.6v-61.6c0-1.4,1.1-2.6,2.6-2.6c1.4,0,2.6,1.1,2.6,2.6v59h59     c1.4,0,2.6,1.1,2.6,2.6C349.3,581.5,348.2,582.7,346.8,582.7z" transform="matrix(1, 0, 0, 1, 0, 0)"/><path d="M145.1,784.4c-1.4,0-2.6-1.1-2.6-2.6v-59h-59c-1.4,0-2.6-1.1-2.6-2.6c0-1.4,1.1-2.6,2.6-2.6h61.6c1.4,0,2.6,1.1,2.6,2.6     v61.6C147.6,783.2,146.5,784.4,145.1,784.4z" transform="matrix(1, 0, 0, 1, 0, 0)"/><g transform="matrix(1, 0, 0, 1, 0, 0)">
			<g>
				<path d="M1150.7,813.1c-0.7,0-1.3-0.3-1.8-0.7l-75-75c-1-1-1-2.6,0-3.6l33.2-33.3c1-1,2.7-1,3.6,0l10.9,10.9l54.2-54.2      l-10.9-10.9c-0.5-0.5-0.7-1.1-0.7-1.8c0-0.7,0.3-1.3,0.7-1.8l53.6-53.6c10.5-10.5,24.5-16.3,39.3-16.3      c14.8,0,28.8,5.8,39.3,16.3c10.5,10.5,16.3,24.5,16.3,39.3c0,14.8-5.8,28.8-16.3,39.3l-144.7,144.7      C1152.1,812.8,1151.4,813.1,1150.7,813.1z M1079.3,735.5l71.4,71.4L1293.6,664c9.5-9.5,14.8-22.2,14.8-35.7s-5.3-26.2-14.8-35.7      c-9.5-9.5-22.2-14.8-35.7-14.8c-13.5,0-26.2,5.3-35.7,14.8l-51.8,51.8l10.9,10.9c0.5,0.5,0.7,1.1,0.7,1.8c0,0.7-0.3,1.3-0.7,1.8      l-57.8,57.9c-1,1-2.7,1-3.6,0l-10.9-10.9L1079.3,735.5z"/>
			</g>
			<g>
				<path d="M1131.7,854.2c-0.7,0-1.3-0.3-1.8-0.7l-97-97c-0.5-0.5-0.7-1.1-0.7-1.8c0-0.7,0.3-1.3,0.7-1.8l30.1-30.1      c1-1,2.6-1,3.6,0l97,97c0.5,0.5,0.7,1.1,0.7,1.8c0,0.7-0.3,1.3-0.7,1.8l-30.1,30.1C1133,853.9,1132.4,854.2,1131.7,854.2z       M1038.3,754.6l93.4,93.4l26.5-26.5l-93.4-93.4L1038.3,754.6z"/>
			</g>
			<g>
				<path d="M1067.8,885.4L1067.8,885.4l-128.9,0c-1,0-2-0.6-2.4-1.6c-0.4-1-0.2-2.1,0.6-2.8l112-112c1-1,2.7-1,3.6,0l64.4,64.4      c1,1,1,2.6,0,3.6l-47.5,47.6C1069.2,885.2,1068.5,885.4,1067.8,885.4z M945.2,880.3l121.6,0l45-45l-60.8-60.8L945.2,880.3z"/>
			</g>
			<g>
				<path d="M1020.2,830.2c-0.7,0-1.3-0.2-1.8-0.7c-1-1-1-2.6,0-3.6l43.7-43.7c1-1,2.6-1,3.6,0c1,1,1,2.6,0,3.6l-43.7,43.7      C1021.5,829.9,1020.9,830.2,1020.2,830.2z"/>
			</g>
			<g>
				<path d="M1148.8,740.1c-0.7,0-1.3-0.2-1.8-0.7c-1-1-1-2.6,0-3.6l76.5-76.5c1-1,2.6-1,3.6,0c1,1,1,2.6,0,3.6l-76.5,76.5      C1150.1,739.8,1149.4,740.1,1148.8,740.1z"/>
			</g>
		</g><path d="M939,885.4H807.3c-1.4,0-2.6-1.1-2.6-2.6c0-1.4,1.1-2.6,2.6-2.6H939c1.4,0,2.6,1.1,2.6,2.6     C941.5,884.3,940.4,885.4,939,885.4z" transform="matrix(1, 0, 0, 1, 0, 0)"/><g transform="matrix(1, 0, 0, 1, 0, 0)">
			<path d="M635.5,884H383.7c-1.4,0-2.6-1.1-2.6-2.6V771.2c0-1.4,1.1-2.6,2.6-2.6h251.8c1.4,0,2.6,1.1,2.6,2.6v110.2     C638.1,882.9,636.9,884,635.5,884z M386.3,878.9H633V773.7H386.3V878.9z"/>
		</g><g transform="matrix(1, 0, 0, 1, 0, 0)">
				<g>
					<path d="M404.6,812.1c-1.4,0-2.6-1.1-2.6-2.6v-23.4c0-1.4,1.1-2.6,2.6-2.6s2.6,1.1,2.6,2.6v23.4       C407.1,810.9,406,812.1,404.6,812.1z"/>
				</g>
				<g>
					<path d="M615.5,812.1c-1.4,0-2.6-1.1-2.6-2.6v-23.4c0-1.4,1.1-2.6,2.6-2.6c1.4,0,2.6,1.1,2.6,2.6v23.4       C618,810.9,616.9,812.1,615.5,812.1z"/>
				</g>
				<g>
					<path d="M430.4,800.4c-1.4,0-2.6-1.1-2.6-2.6v-11.7c0-1.4,1.1-2.6,2.6-2.6s2.6,1.1,2.6,2.6v11.7       C433,799.2,431.9,800.4,430.4,800.4z"/>
				</g>
				<g>
					<path d="M457.1,800.4c-1.4,0-2.6-1.1-2.6-2.6v-11.7c0-1.4,1.1-2.6,2.6-2.6s2.6,1.1,2.6,2.6v11.7       C459.7,799.2,458.5,800.4,457.1,800.4z"/>
				</g>
				<g>
					<path d="M483.8,800.4c-1.4,0-2.6-1.1-2.6-2.6v-11.7c0-1.4,1.1-2.6,2.6-2.6c1.4,0,2.6,1.1,2.6,2.6v11.7       C486.4,799.2,485.2,800.4,483.8,800.4z"/>
				</g>
				<g>
					<path d="M510.5,800.4c-1.4,0-2.6-1.1-2.6-2.6v-11.7c0-1.4,1.1-2.6,2.6-2.6s2.6,1.1,2.6,2.6v11.7       C513.1,799.2,511.9,800.4,510.5,800.4z"/>
				</g>
				<g>
					<path d="M537.2,800.4c-1.4,0-2.6-1.1-2.6-2.6v-11.7c0-1.4,1.1-2.6,2.6-2.6s2.6,1.1,2.6,2.6v11.7       C539.8,799.2,538.6,800.4,537.2,800.4z"/>
				</g>
				<g>
					<path d="M563.9,800.4c-1.4,0-2.6-1.1-2.6-2.6v-11.7c0-1.4,1.1-2.6,2.6-2.6c1.4,0,2.6,1.1,2.6,2.6v11.7       C566.5,799.2,565.3,800.4,563.9,800.4z"/>
				</g>
				<g>
					<path d="M590.6,800.4c-1.4,0-2.6-1.1-2.6-2.6v-11.7c0-1.4,1.1-2.6,2.6-2.6s2.6,1.1,2.6,2.6v11.7       C593.1,799.2,592,800.4,590.6,800.4z"/>
				</g>
			</g><path d="M457.1,869.1c-1.4,0-2.6-1.1-2.6-2.6v-23.4c0-1.4,1.1-2.6,2.6-2.6s2.6,1.1,2.6,2.6v23.4      C459.7,867.9,458.5,869.1,457.1,869.1z" transform="matrix(1, 0, 0, 1, 0, 0)"/><path d="M403.7,869.1c-1.4,0-2.6-1.1-2.6-2.6v-11.7c0-1.4,1.1-2.6,2.6-2.6s2.6,1.1,2.6,2.6v11.7      C406.3,867.9,405.2,869.1,403.7,869.1z" transform="matrix(1, 0, 0, 1, 0, 0)"/><path d="M430.4,869.1c-1.4,0-2.6-1.1-2.6-2.6v-11.7c0-1.4,1.1-2.6,2.6-2.6s2.6,1.1,2.6,2.6v11.7      C433,867.9,431.9,869.1,430.4,869.1z" transform="matrix(1, 0, 0, 1, 0, 0)"/><path d="M615.5,869.1c-1.4,0-2.6-1.1-2.6-2.6v-11.7c0-1.4,1.1-2.6,2.6-2.6c1.4,0,2.6,1.1,2.6,2.6v11.7      C618,867.9,616.9,869.1,615.5,869.1z" transform="matrix(1, 0, 0, 1, 0, 0)"/><path d="M537.2,869.1c-1.4,0-2.6-1.1-2.6-2.6v-23.4c0-1.4,1.1-2.6,2.6-2.6s2.6,1.1,2.6,2.6v23.4      C539.8,867.9,538.6,869.1,537.2,869.1z" transform="matrix(1, 0, 0, 1, 0, 0)"/><path d="M510.5,869.1c-1.4,0-2.6-1.1-2.6-2.6v-11.7c0-1.4,1.1-2.6,2.6-2.6s2.6,1.1,2.6,2.6v11.7      C513.1,867.9,511.9,869.1,510.5,869.1z" transform="matrix(1, 0, 0, 1, 0, 0)"/><path d="M483.8,869.1c-1.4,0-2.6-1.1-2.6-2.6v-11.7c0-1.4,1.1-2.6,2.6-2.6c1.4,0,2.6,1.1,2.6,2.6v11.7      C486.4,867.9,485.2,869.1,483.8,869.1z" transform="matrix(1, 0, 0, 1, 0, 0)"/><path d="M563.9,869.1c-1.4,0-2.6-1.1-2.6-2.6v-11.7c0-1.4,1.1-2.6,2.6-2.6c1.4,0,2.6,1.1,2.6,2.6v11.7      C566.5,867.9,565.3,869.1,563.9,869.1z" transform="matrix(1, 0, 0, 1, 0, 0)"/><path d="M590.6,869.1c-1.4,0-2.6-1.1-2.6-2.6v-11.7c0-1.4,1.1-2.6,2.6-2.6s2.6,1.1,2.6,2.6v11.7      C593.1,867.9,592,869.1,590.6,869.1z" transform="matrix(1, 0, 0, 1, 0, 0)"/><path d="M1149.5,188.4c-0.4,0-0.7-0.1-1-0.2c-0.8-0.4-1.4-1.2-1.5-2.1c-0.7-6.4-4.8-11.9-10.7-14.3c-0.8-0.3-1.4-1.1-1.6-2    s0.2-1.8,1-2.4l82.2-63.5c0.4-0.3,1-0.5,1.6-0.5h41.7c1.1,0,2.1,0.7,2.4,1.8c0.3,1.1,0,2.2-0.9,2.9L1151,187.9    C1150.5,188.3,1150,188.4,1149.5,188.4z M1141.9,169c4.5,2.9,7.8,7.3,9.3,12.5l101.9-73h-32.9L1141.9,169z" transform="matrix(1, 0, 0, 1, 0, 0)"/><path d="M1078.7,239.1c-0.1,0-0.2,0-0.3,0l0,0c-1-0.1-1.8-0.7-2.1-1.6c-2-5.1-5.3-9.4-9.8-12.4c-0.8-0.6-1.2-1.5-1.1-2.5    c0.1-0.6,0.5-1.2,1-1.6l41.9-32.4c0.7-0.6,1.7-0.7,2.5-0.3c0.8,0.3,1.4,1.1,1.6,2c0.8,6,4.5,11.1,9.9,13.6    c0.8,0.4,1.4,1.2,1.5,2.1c0.1,0.9-0.3,1.8-1.1,2.3l-42.5,30.5C1079.8,238.9,1079.2,239.1,1078.7,239.1z M1072.1,222.9    c3.1,2.7,5.7,6,7.6,9.8l36.8-26.4c-3.9-2.8-6.8-6.7-8.3-11.3L1072.1,222.9z" transform="matrix(1, 0, 0, 1, 0, 0)"/><path d="M1051.2,279.2c-17.7,0-32.1-14.4-32.1-32.1c0-17.7,14.4-32.1,32.1-32.1c6.5,0,12.8,2,18.2,5.7c5.3,3.6,9.3,8.7,11.6,14.8    c1.5,3.8,2.2,7.7,2.2,11.6C1083.3,264.9,1068.9,279.2,1051.2,279.2z M1051.2,220.2c-14.9,0-27,12.1-27,27c0,14.9,12.1,27,27,27    c14.9,0,27-12.1,27-27c0-3.2-0.6-6.5-1.9-9.7c-2-5.1-5.4-9.4-9.8-12.4C1062,221.9,1056.7,220.2,1051.2,220.2z" transform="matrix(1, 0, 0, 1, 0, 0)"/><path d="M1109.9,187.9c-0.6,0-1.1-0.2-1.6-0.5l-41.9-32.4c-0.5-0.4-0.8-1-1-1.6c-0.2-1,0.3-2,1.1-2.5c4.4-3.1,7.8-7.4,9.8-12.4    c0.3-0.8,1-1.4,1.9-1.6c0.7-0.1,1.5,0,2,0.4l42.6,30.5c0.7,0.5,1.1,1.4,1.1,2.3c-0.1,0.9-0.6,1.7-1.5,2.1    c-5.4,2.5-9.1,7.6-9.9,13.5c-0.1,0.9-0.7,1.7-1.6,2C1110.6,187.9,1110.2,187.9,1109.9,187.9z M1072.1,153l36.2,27.9    c1.5-4.6,4.4-8.5,8.3-11.3l-36.9-26.4C1077.8,147,1075.3,150.3,1072.1,153z" transform="matrix(1, 0, 0, 1, 0, 0)"/><path d="M1261.1,272.5h-41.7c-0.6,0-1.1-0.2-1.6-0.5l-82.1-63.4c-0.7-0.6-1.1-1.5-1-2.4c0.1-0.9,0.7-1.7,1.6-2    c5.9-2.4,10-7.9,10.7-14.4c0.1-0.9,0.7-1.7,1.5-2.1c0.8-0.4,1.8-0.3,2.5,0.3l111.6,79.9c0.9,0.6,1.3,1.8,0.9,2.9    C1263.2,271.7,1262.2,272.5,1261.1,272.5z M1220.2,267.4h32.9l-101.9-73c-1.5,5.2-4.8,9.6-9.3,12.5L1220.2,267.4z" transform="matrix(1, 0, 0, 1, 0, 0)"/><path d="M1051.2,160.8c-17.7,0-32.1-14.4-32.1-32.1c0-17.7,14.4-32.1,32.1-32.1c17.7,0,32.1,14.4,32.1,32.1    c0,3.9-0.8,7.8-2.2,11.6c-2.3,6-6.4,11.1-11.6,14.8C1064,158.8,1057.7,160.8,1051.2,160.8z M1051.2,101.7c-14.9,0-27,12.1-27,27    c0,14.9,12.1,27,27,27c5.5,0,10.8-1.7,15.3-4.8c4.4-3.1,7.8-7.4,9.8-12.4c1.3-3.2,1.9-6.5,1.9-9.7    C1078.2,113.8,1066.1,101.7,1051.2,101.7z" transform="matrix(1, 0, 0, 1, 0, 0)"/><path d="M1129.7,210.5c-3.2,0-6.4-0.7-9.5-2.1c-7-3.3-11.8-9.8-12.8-17.6c-0.2-1.3-0.3-2-0.3-2.9c0-0.8,0.1-1.6,0.2-2.4l0.1-0.5    c1-7.7,5.8-14.3,12.9-17.5c5.7-2.7,12.1-2.8,17.9-0.4c7.7,3.1,13,10.2,13.9,18.5l0.1,0.6c0.1,0.6,0.2,1.2,0.2,1.8    c0,0.6-0.1,1.2-0.1,1.7l-0.1,0.6c-0.9,8.3-6.1,15.4-13.8,18.6C1135.5,210,1132.6,210.5,1129.7,210.5z M1129.7,170.5    c-2.5,0-4.9,0.6-7.3,1.7c-5.4,2.5-9.2,7.6-9.9,13.5l-0.1,0.6c-0.1,0.6-0.2,1.1-0.2,1.7c0,0.6,0.1,1.1,0.2,1.7c0,0,0.1,0.5,0.1,0.5    c0.8,6,4.5,11.1,9.9,13.6c4.5,2.1,9.4,2.2,13.9,0.3c5.9-2.4,10-7.9,10.7-14.4l0.1-0.7c0-0.3,0.1-0.7,0.1-1c0-0.4-0.1-0.7-0.1-1.1    l-0.1-0.7c-0.7-6.4-4.8-11.9-10.7-14.3C1134.1,170.9,1131.9,170.5,1129.7,170.5z" transform="matrix(1, 0, 0, 1, 0, 0)"/><g transform="matrix(1, 0, 0, 1, 0, 0)">
			<path d="M1032.4,190.5h-28.1c-1.4,0-2.6-1.1-2.6-2.6c0-1.4,1.1-2.6,2.6-2.6h28.1c1.4,0,2.6,1.1,2.6,2.6     C1035,189.4,1033.8,190.5,1032.4,190.5z"/>
		</g><path d="M1109.6,190.5h-28.1c-1.4,0-2.6-1.1-2.6-2.6c0-1.4,1.1-2.6,2.6-2.6h28.1c1.4,0,2.6,1.1,2.6,2.6     C1112.2,189.4,1111.1,190.5,1109.6,190.5z" transform="matrix(1, 0, 0, 1, 0, 0)"/><g transform="matrix(1, 0, 0, 1, 0, 0)">
			<path d="M1177.5,188.4h-28.1c-1.4,0-2.6-1.1-2.6-2.6s1.1-2.6,2.6-2.6h28.1c1.4,0,2.6,1.1,2.6,2.6S1179,188.4,1177.5,188.4z"/>
		</g><path d="M1239.2,188.4h-35.7c-1.4,0-2.6-1.1-2.6-2.6s1.1-2.6,2.6-2.6h35.7c1.4,0,2.6,1.1,2.6,2.6S1240.6,188.4,1239.2,188.4z" transform="matrix(1, 0, 0, 1, 0, 0)"/><path d="M1293.2,188.4h-28.1c-1.4,0-2.6-1.1-2.6-2.6s1.1-2.6,2.6-2.6h28.1c1.4,0,2.6,1.1,2.6,2.6S1294.6,188.4,1293.2,188.4z" transform="matrix(1, 0, 0, 1, 0, 0)"/><path d="M495.2,359.3c-9.9,0-17.9-8-17.9-17.9c0-9.9,8-17.9,17.9-17.9c9.9,0,17.9,8,17.9,17.9    C513.1,351.3,505.1,359.3,495.2,359.3z M495.2,328.7c-7,0-12.8,5.7-12.8,12.8c0,7,5.7,12.8,12.8,12.8c7,0,12.8-5.7,12.8-12.8    C508,334.4,502.2,328.7,495.2,328.7z" transform="matrix(1, 0, 0, 1, 0, 0)"/><path d="M830.8,265.7c-10.2,0-18.5-8.3-18.5-18.5c0-10.2,8.3-18.5,18.5-18.5s18.5,8.3,18.5,18.5    C849.3,257.4,841,265.7,830.8,265.7z M830.8,233.8c-7.4,0-13.4,6-13.4,13.4c0,7.4,6,13.4,13.4,13.4s13.4-6,13.4-13.4    C844.2,239.8,838.2,233.8,830.8,233.8z" transform="matrix(1, 0, 0, 1, 0, 0)"/><path d="M576.4,359.8h-27.1c-1.4,0-2.6-1.1-2.6-2.6s1.1-2.6,2.6-2.6h27.1c1.4,0,2.6,1.1,2.6,2.6S577.8,359.8,576.4,359.8z" transform="matrix(1, 0, 0, 1, 0, 0)"/><path d="M594.8,294.1h-54.3c-1.4,0-2.6-1.1-2.6-2.6s1.1-2.6,2.6-2.6h54.3c1.4,0,2.6,1.1,2.6,2.6S596.2,294.1,594.8,294.1z" transform="matrix(1, 0, 0, 1, 0, 0)"/><path d="M523.2,243.3L523.2,243.3c-5.1,0-10-0.6-14.8-1.9c-1.4-0.4-2.2-1.8-1.8-3.1c0.4-1.4,1.8-2.2,3.1-1.8    c4.4,1.2,8.9,1.8,13.5,1.8c1.4,0,2.6,1.1,2.6,2.6C525.7,242.1,524.6,243.3,523.2,243.3z M550.6,235.9c-0.9,0-1.7-0.5-2.2-1.3    c-0.7-1.2-0.3-2.8,0.9-3.5c3.9-2.3,7.6-5.1,10.8-8.3c1-1,2.6-1,3.6,0c1,1,1,2.6,0,3.6c-3.5,3.5-7.5,6.6-11.9,9.1    C551.4,235.8,551,235.9,550.6,235.9z M484.4,227.3c-0.7,0-1.3-0.2-1.8-0.7c-3.6-3.5-6.6-7.5-9.1-11.9c-0.7-1.2-0.3-2.8,0.9-3.5    c1.2-0.7,2.8-0.3,3.5,0.9c2.3,3.9,5.1,7.6,8.3,10.8c1,1,1,2.6,0,3.6C485.7,227,485,227.3,484.4,227.3z M576.1,202.6    c-0.2,0-0.4,0-0.7-0.1c-1.4-0.4-2.2-1.8-1.8-3.1c1.2-4.4,1.8-8.9,1.8-13.5c0-1.4,1.1-2.7,2.6-2.7c1.4,0,2.6,1,2.6,2.4v0.2    c0,5-0.7,10-1.9,14.8C578.2,201.9,577.2,202.6,576.1,202.6z M468.3,188.5c-1.4,0-2.6-1.1-2.6-2.5v-0.1c0-5,0.6-9.9,1.9-14.7    c0.4-1.4,1.8-2.2,3.1-1.8c1.4,0.4,2.2,1.8,1.8,3.1c-1.2,4.4-1.7,8.9-1.7,13.4C470.8,187.3,469.7,188.5,468.3,188.5z M570.5,160.8    c-0.9,0-1.7-0.5-2.2-1.3c-2.3-3.9-5.1-7.6-8.4-10.8c-1-1-1-2.6,0-3.6c1-1,2.6-1,3.6,0c3.6,3.5,6.6,7.5,9.2,11.8    c0.7,1.2,0.3,2.8-0.9,3.5C571.4,160.7,570.9,160.8,570.5,160.8z M484.2,149.8c-0.7,0-1.3-0.2-1.8-0.7c-1-1-1-2.6,0-3.6    c3.5-3.6,7.5-6.6,11.8-9.2c1.2-0.7,2.8-0.3,3.5,0.9c0.7,1.2,0.3,2.8-0.9,3.5c-3.9,2.3-7.6,5.1-10.8,8.3    C485.5,149.5,484.9,149.8,484.2,149.8z M537.1,135.4c-0.2,0-0.4,0-0.7-0.1c-4.3-1.1-8.8-1.7-13.4-1.7c-1.4,0-2.6-1.1-2.6-2.6    s1.1-2.6,2.5-2.6h0.2c5,0,9.9,0.6,14.7,1.9c1.4,0.4,2.2,1.8,1.8,3.1C539.3,134.6,538.2,135.4,537.1,135.4z" transform="matrix(1, 0, 0, 1, 0, 0)"/><g transform="matrix(1, 0, 0, 1, 0, 0)">
			<path d="M820.4,159.5c-0.7,0-1.3-0.2-1.8-0.7l-35.3-35.3c-1-1-1-2.6,0-3.6c1-1,2.6-1,3.6,0l35.3,35.3c1,1,1,2.6,0,3.6     C821.7,159.3,821,159.5,820.4,159.5z"/>
		</g><path d="M785.1,159.5c-0.7,0-1.3-0.2-1.8-0.7c-1-1-1-2.6,0-3.6l35.3-35.3c1-1,2.6-1,3.6,0c1,1,1,2.6,0,3.6l-35.3,35.3     C786.4,159.3,785.8,159.5,785.1,159.5z" transform="matrix(1, 0, 0, 1, 0, 0)"/><path d="M894.2,197.4H850c-1.4,0-2.6-1.1-2.6-2.6s1.1-2.6,2.6-2.6h44.2c1.4,0,2.6,1.1,2.6,2.6S895.6,197.4,894.2,197.4z" transform="matrix(1, 0, 0, 1, 0, 0)"/><path d="M815.9,328.7h-30.8c-1.4,0-2.6-1.1-2.6-2.6s1.1-2.6,2.6-2.6h30.8c1.4,0,2.6,1.1,2.6,2.6S817.3,328.7,815.9,328.7z" transform="matrix(1, 0, 0, 1, 0, 0)"/><path d="M625.6,131.3h-30.8c-1.4,0-2.6-1.1-2.6-2.6c0-1.4,1.1-2.6,2.6-2.6h30.8c1.4,0,2.6,1.1,2.6,2.6    C628.1,130.1,627,131.3,625.6,131.3z" transform="matrix(1, 0, 0, 1, 0, 0)"/><path d="M1224.7,527.8c-25.6,0-49.7-10-67.8-28.1c-37.4-37.4-37.4-98.2,0-135.6c18.1-18.1,42.2-28.1,67.8-28.1    c25.6,0,49.7,10,67.8,28.1c18.1,18.1,28.1,42.2,28.1,67.8c0,25.6-10,49.7-28.1,67.8C1274.4,517.8,1250.3,527.8,1224.7,527.8z     M1224.7,341.1c-24.2,0-47,9.4-64.2,26.6c-35.4,35.4-35.4,93,0,128.4c17.1,17.1,39.9,26.6,64.2,26.6c24.2,0,47-9.4,64.2-26.6    c17.1-17.1,26.6-39.9,26.6-64.2c0-24.2-9.4-47-26.6-64.2C1271.7,350.6,1248.9,341.1,1224.7,341.1z" transform="matrix(1, 0, 0, 1, 0, 0)"/><path d="M1224.7,506.4c-41.1,0-74.5-33.4-74.5-74.5c0-41.1,33.4-74.5,74.5-74.5c41.1,0,74.5,33.4,74.5,74.5    C1299.2,473,1265.8,506.4,1224.7,506.4z M1224.7,362.5c-38.3,0-69.4,31.1-69.4,69.4c0,38.3,31.1,69.4,69.4,69.4    c38.3,0,69.4-31.1,69.4-69.4C1294.1,393.6,1262.9,362.5,1224.7,362.5z" transform="matrix(1, 0, 0, 1, 0, 0)"/><path d="M 1265.5 417 L 1239.5999755859375 417 L 1239.5999755859375 391.1000061035156 L 1209.699951171875 391.1000061035156 L 1209.699951171875 417 L 1183.9000244140625 417 L 1183.9000244140625 446.79998779296875 L 1209.699951171875 446.79998779296875 L 1209.699951171875 472.70001220703125 L 1239.5999755859375 472.70001220703125 L 1239.5999755859375 446.79998779296875 L 1265.5 446.79998779296875 Z" fill="#FFFFFF" transform="matrix(1, 0, 0, 1, 0, 0)"/><path d="M1239.6,475.3h-29.9c-1.4,0-2.6-1.1-2.6-2.6v-23.3h-23.3c-1.4,0-2.6-1.1-2.6-2.6V417c0-1.4,1.1-2.6,2.6-2.6h23.3v-23.3    c0-1.4,1.1-2.6,2.6-2.6h29.9c1.4,0,2.6,1.1,2.6,2.6v23.3h23.3c1.4,0,2.6,1.1,2.6,2.6v29.9c0,1.4-1.1,2.6-2.6,2.6h-23.3v23.3    C1242.2,474.1,1241,475.3,1239.6,475.3z M1212.3,470.1h24.8v-23.3c0-1.4,1.1-2.6,2.6-2.6h23.3v-24.8h-23.3c-1.4,0-2.6-1.1-2.6-2.6    v-23.3h-24.8V417c0,1.4-1.1,2.6-2.6,2.6h-23.3v24.8h23.3c1.4,0,2.6,1.1,2.6,2.6V470.1z" transform="matrix(1, 0, 0, 1, 0, 0)"/><path d="M1116,543.5c-0.7,0-1.3-0.2-1.8-0.7c-1-1-1-2.6,0-3.6l42.8-42.8c1-1,2.6-1,3.6,0c1,1,1,2.6,0,3.6l-42.8,42.8    C1117.3,543.2,1116.6,543.5,1116,543.5z" transform="matrix(1, 0, 0, 1, 0, 0)"/><path d="M1050.4,634.1C1050.4,634.1,1050.4,634.1,1050.4,634.1c-7.4,0-14.3-2.9-19.5-8.1c-5.2-5.2-8.1-12.2-8.1-19.5    c0-7.4,2.9-14.3,8.1-19.5l81.3-81.3c1-1,2.7-1,3.6,0l35.5,35.5c1,1,1,2.6,0,3.6L1070,626C1064.8,631.2,1057.8,634.1,1050.4,634.1z     M1114,511.1l-79.4,79.5c-4.3,4.3-6.6,9.9-6.6,15.9c0,6,2.3,11.7,6.6,15.9c4.3,4.3,9.9,6.6,15.9,6.6c0,0,0,0,0,0    c6,0,11.7-2.3,15.9-6.6l79.4-79.4L1114,511.1z" transform="matrix(1, 0, 0, 1, 0, 0)"/><path d="M1129.7,344H1057c-1.4,0-2.6-1.1-2.6-2.6s1.1-2.6,2.6-2.6h72.7c1.4,0,2.6,1.1,2.6,2.6S1131.1,344,1129.7,344z" transform="matrix(1, 0, 0, 1, 0, 0)"/><path d="M1102.6,382.8H1057c-1.4,0-2.6-1.1-2.6-2.6s1.1-2.6,2.6-2.6h45.6c1.4,0,2.6,1.1,2.6,2.6S1104,382.8,1102.6,382.8z" transform="matrix(1, 0, 0, 1, 0, 0)"/><path d="M1087.4,487.4h-62c-1.4,0-2.6-1.1-2.6-2.6s1.1-2.6,2.6-2.6h62c1.4,0,2.5,1.1,2.5,2.6S1088.8,487.4,1087.4,487.4z" transform="matrix(1, 0, 0, 1, 0, 0)"/><path d="M1057,521.8h-71.1c-1.4,0-2.6-1.1-2.6-2.6c0-1.4,1.1-2.6,2.6-2.6h71.1c1.4,0,2.6,1.1,2.6,2.6    C1059.6,520.7,1058.4,521.8,1057,521.8z" transform="matrix(1, 0, 0, 1, 0, 0)"/><path d="M1282.5,884h-83.4c-1.4,0-2.6-1.1-2.6-2.6c0-1.4,1.1-2.6,2.6-2.6h83.4c1.4,0,2.6,1.1,2.6,2.6    C1285.1,882.9,1283.9,884,1282.5,884z" transform="matrix(1, 0, 0, 1, 0, 0)"/><path d="M1296.6,837.1h-75.3c-1.4,0-2.6-1.1-2.6-2.6c0-1.4,1.1-2.6,2.6-2.6h75.3c1.4,0,2.6,1.1,2.6,2.6    C1299.2,835.9,1298,837.1,1296.6,837.1z" transform="matrix(1, 0, 0, 1, 0, 0)"/><path d="M806.4,843.7c-28.5,0-51.7-23.2-51.7-51.7c0-1.4,1.1-2.6,2.6-2.6c1.4,0,2.6,1.1,2.6,2.6c0,25.7,20.9,46.6,46.6,46.6    c25.7,0,46.6-20.9,46.6-46.6c0-28.5,23.2-51.7,51.7-51.7c28.5,0,51.7,23.2,51.7,51.7c0,1.4-1.1,2.6-2.6,2.6    c-1.4,0-2.6-1.1-2.6-2.6c0-25.7-20.9-46.6-46.6-46.6c-25.7,0-46.6,20.9-46.6,46.6C858.1,820.5,834.9,843.7,806.4,843.7z" transform="matrix(1, 0, 0, 1, 0, 0)"/><path d="M 847.900024 784.299988 H 863.200025 V 799.599988 H 847.900024 V 784.299988 Z" fill="#FFFFFF" transform="matrix(1, 0, 0, 1, 0, 0)"/><path d="M863.3,802.2h-15.3c-1.4,0-2.6-1.1-2.6-2.6v-15.3c0-1.4,1.1-2.6,2.6-2.6h15.3c1.4,0,2.6,1.1,2.6,2.6v15.3    C865.8,801,864.7,802.2,863.3,802.2z M850.5,797.1h10.2v-10.2h-10.2V797.1z" transform="matrix(1, 0, 0, 1, 0, 0)"/><path d="M 946.299988 792 H 961.599988 V 807.3 H 946.299988 V 792 Z" fill="#FFFFFF" transform="matrix(1, 0, 0, 1, 0, 0)"/><path d="M961.6,809.8h-15.3c-1.4,0-2.6-1.1-2.6-2.6V792c0-1.4,1.1-2.6,2.6-2.6h15.3c1.4,0,2.6,1.1,2.6,2.6v15.3    C964.2,808.7,963,809.8,961.6,809.8z M948.9,804.7h10.2v-10.2h-10.2V804.7z" transform="matrix(1, 0, 0, 1, 0, 0)"/><path d="M 749.599976 776.700012 H 764.899976 V 792.000012 H 749.599976 V 776.700012 Z" fill="#FFFFFF" transform="matrix(1, 0, 0, 1, 0, 0)"/><path d="M764.9,794.5h-15.3c-1.4,0-2.6-1.1-2.6-2.6v-15.3c0-1.4,1.1-2.6,2.6-2.6h15.3c1.4,0,2.6,1.1,2.6,2.6V792    C767.4,793.4,766.3,794.5,764.9,794.5z M752.1,789.4h10.2v-10.2h-10.2V789.4z" transform="matrix(1, 0, 0, 1, 0, 0)"/><path d="M129.7,875.7c-0.4,0-0.9-0.1-1.3-0.3c-0.8-0.5-1.3-1.3-1.3-2.2v-55.8c0-0.9,0.5-1.8,1.3-2.2c0.8-0.5,1.8-0.5,2.6,0    l48.3,27.9c0.8,0.5,1.3,1.3,1.3,2.2s-0.5,1.8-1.3,2.2L131,875.4C130.6,875.6,130.1,875.7,129.7,875.7z M132.3,821.8v47l40.7-23.5    L132.3,821.8z" transform="matrix(1, 0, 0, 1, 0, 0)"/><path d="M206.3,875.7c-0.4,0-0.9-0.1-1.3-0.3c-0.8-0.5-1.3-1.3-1.3-2.2v-55.8c0-0.9,0.5-1.8,1.3-2.2c0.8-0.5,1.8-0.5,2.6,0    L256,843c0.8,0.5,1.3,1.3,1.3,2.2s-0.5,1.8-1.3,2.2l-48.3,27.9C207.2,875.6,206.8,875.7,206.3,875.7z M208.9,821.8v47l40.7-23.5    L208.9,821.8z" transform="matrix(1, 0, 0, 1, 0, 0)"/><path d="M283,875.7c-0.4,0-0.9-0.1-1.3-0.3c-0.8-0.5-1.3-1.3-1.3-2.2v-55.8c0-0.9,0.5-1.8,1.3-2.2c0.8-0.5,1.8-0.5,2.6,0    l48.3,27.9c0.8,0.5,1.3,1.3,1.3,2.2s-0.5,1.8-1.3,2.2l-48.3,27.9C283.9,875.6,283.4,875.7,283,875.7z M285.5,821.8v47l40.7-23.5    L285.5,821.8z" transform="matrix(1, 0, 0, 1, 0, 0)"/>
</g>
          </g>

          <path id="foreground-overlay" style="fill: #ebeced; opacity: 0.96; pointer-events: none;" d="         M -1000000, -1000000         L 2000000, -1000000         L 2000000, 2000000         L -1000000, 2000000         Z         M 0, 0         L 0, 980         L 1400, 980         L 1400, 0         Z       "/>

          <g id="huds">
            <g is="ee-outlinehud" id="outline-hud"/>
            <g is="ve-viewboxhud" id="view-box-hud" enabled=""/>
            <g is="ee-transformhud" id="transform-hud" enabled="" style="display: none;"/>
            <g is="ee-lineargradienthud" id="linear-gradient-hud" tabindex="-1"/>
            <g is="ee-radialgradienthud" id="radial-gradient-hud" tabindex="-1"/>
            <g is="ee-penseghud" id="pen-seg-hud"/>
            <g is="ee-penhud" id="pen-hud" tabindex="-1"/>
            <g is="ee-rubberbandhud" id="rubber-band-hud" enabled=""/>
            <g is="ee-texthud" id="text-hud" tabindex="-1"/>
          </g>
        </g>
      </svg>