<svg xmlns="http://www.w3.org/2000/svg" id="svg" preserveAspectRatio="none" width="438px" height="307px" viewBox="0 0 438 307">
        <g id="world" transform="matrix(0.31334735141085446, 0, 0, 0.31334735141085446, 0, 0)">
          <rect id="background-overlay" x="0" y="0" width="1400" height="980" style="fill: url(#ee-checkboard-pattern);"/>

          <pattern id="ee-checkboard-pattern" viewBox="0 0 10 10" width="10" height="10" patternUnits="userSpaceOnUse" patternTransform="scale(3.1913467054815055)">
            <rect x="0" y="0" width="5" height="5" fill="#d6d6d6"/>
            <rect x="5" y="0" width="5" height="5" fill="white"/>
            <rect x="0" y="5" width="5" height="5" fill="white"/>
            <rect x="5" y="5" width="5" height="5" fill="#d6d6d6"/>
          </pattern>

          <g id="artboards">
            
            <g xmlns="http://www.w3.org/2000/svg" id="master-artboard" viewBox="0 0 1400 980" version="1.1" x="0px" y="0px" width="1400px" height="980px" enable-background="new 0 0 1400 980">
<g transform="matrix(1, 0, 0, 1, 0, 0)">
		<g>
			<path d="M 0 0 H 1400 V 980 H 0 V 0 Z" fill="#FFFFFF"/>
		</g>
	</g><g transform="matrix(1, 0, 0, 1, 0, 0)">
			<g>
				<path fill="#D1D3D4" d="M861.1,836.9c0,19.3-15.7,35-35,35H591.4c-19.3,0-35-15.7-35-35V374.8c0-19.3,15.7-35,35-35h234.7      c19.3,0,35,15.7,35,35V836.9z"/>
				<path d="M826.1,873.1H591.4c-20,0-36.2-16.2-36.2-36.2V374.8c0-20,16.2-36.2,36.2-36.2h234.7c20,0,36.2,16.2,36.2,36.2v462.1      C862.3,856.9,846.1,873.1,826.1,873.1z M591.4,341c-18.6,0-33.8,15.1-33.8,33.8v462.1c0,18.6,15.1,33.8,33.8,33.8h234.7      c18.6,0,33.8-15.1,33.8-33.8V374.8c0-18.6-15.1-33.8-33.8-33.8H591.4z"/>
			</g>
			<g>
				<path d="M 579.700012 402.5 H 837.700012 V 796.100006 H 579.700012 V 402.5 Z" fill="#FFFFFF"/>
				<path d="M837.8,797.3h-258c-0.7,0-1.2-0.6-1.2-1.2V402.5c0-0.7,0.6-1.2,1.2-1.2h258c0.7,0,1.2,0.6,1.2,1.2v393.6      C839,796.8,838.5,797.3,837.8,797.3z M581,794.9h255.6V403.7H581V794.9z"/>
			</g>
			<g>
				<path d="M752.5,374.1H665c-0.7,0-1.2-0.6-1.2-1.2c0-0.7,0.6-1.2,1.2-1.2h87.5c0.7,0,1.2,0.6,1.2,1.2      C753.7,373.5,753.2,374.1,752.5,374.1z"/>
			</g>
			<g>
				<path d="M 734.100025 834.599976 A 24.200001 24.200001 0 0 1 709.900024 858.799976 A 24.200001 24.200001 0 0 1 685.700024 834.599976 A 24.200001 24.200001 0 0 1 709.900024 810.399975 A 24.200001 24.200001 0 0 1 734.100025 834.599976 Z" fill="#A9AAAB"/>
				<path d="M709.9,860.1c-14,0-25.5-11.4-25.5-25.5c0-14,11.4-25.5,25.5-25.5c14,0,25.5,11.4,25.5,25.5      C735.4,848.7,724,860.1,709.9,860.1z M709.9,811.6c-12.7,0-23,10.3-23,23c0,12.7,10.3,23,23,23c12.7,0,23-10.3,23-23      C732.9,822,722.6,811.6,709.9,811.6z"/>
			</g>
			<g>
				<path d="M790.4,825.1h-21.5c-0.7,0-1.2-0.6-1.2-1.2s0.6-1.2,1.2-1.2h21.5c0.7,0,1.2,0.6,1.2,1.2S791.1,825.1,790.4,825.1z"/>
			</g>
			<g>
				<path d="M790.4,835.9h-21.5c-0.7,0-1.2-0.6-1.2-1.2c0-0.7,0.6-1.2,1.2-1.2h21.5c0.7,0,1.2,0.6,1.2,1.2      C791.6,835.3,791.1,835.9,790.4,835.9z"/>
			</g>
			<g>
				<path d="M790.4,846.6h-21.5c-0.7,0-1.2-0.6-1.2-1.2s0.6-1.2,1.2-1.2h21.5c0.7,0,1.2,0.6,1.2,1.2S791.1,846.6,790.4,846.6z"/>
			</g>
			<g>
				<path d="M 647.2999877929688 850 L 620.7000122070312 834.5999755859375 L 647.2999877929688 819.2999877929688 Z" fill="#A9AAAB"/>
				<path d="M647.3,851.2c-0.2,0-0.4-0.1-0.6-0.2l-26.6-15.4c-0.4-0.2-0.6-0.6-0.6-1.1c0-0.4,0.2-0.8,0.6-1.1l26.6-15.4      c0.4-0.2,0.9-0.2,1.2,0c0.4,0.2,0.6,0.6,0.6,1.1V850c0,0.4-0.2,0.8-0.6,1.1C647.7,851.2,647.5,851.2,647.3,851.2z M623.2,834.6      l22.9,13.2v-26.4L623.2,834.6z"/>
			</g>
		</g><path d="M 599.700012 422.899994 H 817.900009 V 530.999992 H 599.700012 V 422.899994 Z" fill="#7E7F80" transform="matrix(1, 0, 0, 1, 0, 0)"/><path d="M817.9,532.2H599.7c-0.7,0-1.2-0.6-1.2-1.2V422.9c0-0.7,0.6-1.2,1.2-1.2h218.2c0.7,0,1.2,0.6,1.2,1.2v108.1     C819.1,531.6,818.5,532.2,817.9,532.2z M600.9,529.7h215.7V424.1H600.9V529.7z" transform="matrix(1, 0, 0, 1, 0, 0)"/><path d="M 599.700012 550.700012 H 659.900013 V 610.900013 H 599.700012 V 550.700012 Z" fill="#85D2FF" transform="matrix(1, 0, 0, 1, 0, 0)"/><path d="M659.9,612.2h-60.2c-0.7,0-1.2-0.6-1.2-1.2v-60.2c0-0.7,0.6-1.2,1.2-1.2h60.2c0.7,0,1.2,0.6,1.2,1.2V611     C661.1,611.6,660.5,612.2,659.9,612.2z M600.9,609.7h57.7V552h-57.7V609.7z" transform="matrix(1, 0, 0, 1, 0, 0)"/><path d="M 678.700012 550.700012 H 738.900013 V 610.900013 H 678.700012 V 550.700012 Z" fill="#FFCE82" transform="matrix(1, 0, 0, 1, 0, 0)"/><path d="M738.9,612.2h-60.2c-0.7,0-1.2-0.6-1.2-1.2v-60.2c0-0.7,0.6-1.2,1.2-1.2h60.2c0.7,0,1.2,0.6,1.2,1.2V611     C740.1,611.6,739.5,612.2,738.9,612.2z M679.9,609.7h57.7V552h-57.7V609.7z" transform="matrix(1, 0, 0, 1, 0, 0)"/><path d="M 757.599976 550.700012 H 817.799976 V 610.900013 H 757.599976 V 550.700012 Z" fill="#FFF59C" transform="matrix(1, 0, 0, 1, 0, 0)"/><path d="M817.9,612.2h-60.2c-0.7,0-1.2-0.6-1.2-1.2v-60.2c0-0.7,0.5-1.2,1.2-1.2h60.2c0.7,0,1.2,0.6,1.2,1.2V611     C819.1,611.6,818.5,612.2,817.9,612.2z M758.9,609.7h57.7V552h-57.7V609.7z" transform="matrix(1, 0, 0, 1, 0, 0)"/><path d="M 599.700012 629.5 H 659.900013 V 689.700001 H 599.700012 V 629.5 Z" fill="#FF9C8C" transform="matrix(1, 0, 0, 1, 0, 0)"/><path d="M659.9,690.9h-60.2c-0.7,0-1.2-0.6-1.2-1.2v-60.2c0-0.7,0.6-1.2,1.2-1.2h60.2c0.7,0,1.2,0.6,1.2,1.2v60.2     C661.1,690.4,660.5,690.9,659.9,690.9z M600.9,688.4h57.7v-57.7h-57.7V688.4z" transform="matrix(1, 0, 0, 1, 0, 0)"/><path d="M 678.700012 629.5 H 738.900013 V 689.700001 H 678.700012 V 629.5 Z" fill="#7AB373" transform="matrix(1, 0, 0, 1, 0, 0)"/><path d="M738.9,690.9h-60.2c-0.7,0-1.2-0.6-1.2-1.2v-60.2c0-0.7,0.6-1.2,1.2-1.2h60.2c0.7,0,1.2,0.6,1.2,1.2v60.2     C740.1,690.4,739.5,690.9,738.9,690.9z M679.9,688.4h57.7v-57.7h-57.7V688.4z" transform="matrix(1, 0, 0, 1, 0, 0)"/><path d="M 757.599976 629.5 H 817.799976 V 689.700001 H 757.599976 V 629.5 Z" fill="#CE8AA4" transform="matrix(1, 0, 0, 1, 0, 0)"/><path d="M817.9,690.9h-60.2c-0.7,0-1.2-0.6-1.2-1.2v-60.2c0-0.7,0.5-1.2,1.2-1.2h60.2c0.7,0,1.2,0.6,1.2,1.2v60.2     C819.1,690.4,818.5,690.9,817.9,690.9z M758.9,688.4h57.7v-57.7h-57.7V688.4z" transform="matrix(1, 0, 0, 1, 0, 0)"/><path d="M 599.700012 708.200012 H 659.900013 V 768.400013 H 599.700012 V 708.200012 Z" fill="#7CD6CB" transform="matrix(1, 0, 0, 1, 0, 0)"/><path d="M659.9,769.6h-60.2c-0.7,0-1.2-0.6-1.2-1.2v-60.2c0-0.7,0.6-1.2,1.2-1.2h60.2c0.7,0,1.2,0.6,1.2,1.2v60.2     C661.1,769.1,660.5,769.6,659.9,769.6z M600.9,767.2h57.7v-57.7h-57.7V767.2z" transform="matrix(1, 0, 0, 1, 0, 0)"/><path d="M 678.700012 708.200012 H 738.900013 V 768.400013 H 678.700012 V 708.200012 Z" fill="#FFCFFA" transform="matrix(1, 0, 0, 1, 0, 0)"/><path d="M738.9,769.6h-60.2c-0.7,0-1.2-0.6-1.2-1.2v-60.2c0-0.7,0.6-1.2,1.2-1.2h60.2c0.7,0,1.2,0.6,1.2,1.2v60.2     C740.1,769.1,739.5,769.6,738.9,769.6z M679.9,767.2h57.7v-57.7h-57.7V767.2z" transform="matrix(1, 0, 0, 1, 0, 0)"/><path d="M 757.599976 708.200012 H 817.799976 V 768.400013 H 757.599976 V 708.200012 Z" fill="#6B8FAD" transform="matrix(1, 0, 0, 1, 0, 0)"/><path d="M817.9,769.6h-60.2c-0.7,0-1.2-0.6-1.2-1.2v-60.2c0-0.7,0.5-1.2,1.2-1.2h60.2c0.7,0,1.2,0.6,1.2,1.2v60.2     C819.1,769.1,818.5,769.6,817.9,769.6z M758.9,767.2h57.7v-57.7h-57.7V767.2z" transform="matrix(1, 0, 0, 1, 0, 0)"/><path d="M752.5,322.1H665c-0.7,0-1.2-0.6-1.2-1.2c0-0.7,0.6-1.2,1.2-1.2h87.5c0.7,0,1.2,0.6,1.2,1.2     C753.7,321.5,753.2,322.1,752.5,322.1z" transform="matrix(1, 0, 0, 1, 0, 0)"/><path d="M752.5,302.2H665c-0.7,0-1.2-0.6-1.2-1.2c0-0.7,0.6-1.2,1.2-1.2h87.5c0.7,0,1.2,0.6,1.2,1.2     C753.7,301.6,753.2,302.2,752.5,302.2z" transform="matrix(1, 0, 0, 1, 0, 0)"/><path fill="#FFF59C" d="M708.8,76.4c-50,0-90.6,40.6-90.6,90.6c0,34.6,19.4,64.7,47.9,79.9v34h14.2h56.9h14.2v-34     c28.5-15.3,47.9-45.3,47.9-79.9C799.4,117,758.8,76.4,708.8,76.4z" transform="matrix(1, 0, 0, 1, 0, 0)"/><path d="M751.5,282.2H666c-0.7,0-1.2-0.6-1.2-1.2v-33.3c-29.6-16.1-47.9-47-47.9-80.7c0-50.6,41.2-91.9,91.9-91.9     c50.6,0,91.9,41.2,91.9,91.9c0,33.7-18.3,64.5-47.9,80.7V281C752.7,281.7,752.1,282.2,751.5,282.2z M667.3,279.8h83V247     c0-0.5,0.3-0.9,0.7-1.1c29.2-15.6,47.3-45.8,47.3-78.8c0-49.3-40.1-89.4-89.4-89.4c-49.3,0-89.4,40.1-89.4,89.4     c0,33,18.1,63.2,47.3,78.8c0.4,0.2,0.7,0.6,0.7,1.1V279.8z" transform="matrix(1, 0, 0, 1, 0, 0)"/><path d="M720.2,266.7c-0.7,0-1.2-0.6-1.2-1.2v-65.1c0-0.3,0.1-0.6,0.4-0.9l28.5-28.5l-24.7-22.9h-28.7L669.7,171l28.5,28.5     c0.2,0.2,0.4,0.5,0.4,0.9v65.1c0,0.7-0.6,1.2-1.2,1.2c-0.7,0-1.2-0.6-1.2-1.2v-64.6l-29-29c-0.2-0.2-0.4-0.6-0.4-0.9     c0-0.3,0.1-0.7,0.4-0.9l26-24.1c0.2-0.2,0.5-0.3,0.8-0.3h29.6c0.3,0,0.6,0.1,0.8,0.3l26,24.1c0.2,0.2,0.4,0.5,0.4,0.9     c0,0.3-0.1,0.7-0.4,0.9l-29,29v64.6C721.4,266.1,720.9,266.7,720.2,266.7z" transform="matrix(1, 0, 0, 1, 0, 0)"/><path d="M765.9,171.7H651.7c-0.7,0-1.2-0.6-1.2-1.2s0.6-1.2,1.2-1.2h114.2c0.7,0,1.2,0.6,1.2,1.2S766.5,171.7,765.9,171.7z" transform="matrix(1, 0, 0, 1, 0, 0)"/><g transform="matrix(1, 0, 0, 1, 0, 0)">
			<path fill="#85D2FF" d="M1091.6,251.5c2.5-10.8,3.3-21.7,2.6-32.2l26.9-11.8c-2-13.7-6-26.8-11.9-39.1l-28.9,5.1     c-10.6-18.6-26.7-34-46.6-43.7l3.3-29.2c-6.3-2.5-12.8-4.6-19.5-6.1c-6.8-1.6-13.5-2.6-20.2-3.2l-10,27.6     c-22.2-0.2-43.4,6.6-61.1,18.5l-23.6-17.4c-10.7,8.4-20.1,18.4-27.9,29.8l18.9,22.4c-5.3,9.1-9.4,19.2-12,30     c-2.5,10.8-3.3,21.7-2.6,32.2l-26.9,11.8c2,13.7,6,26.8,11.9,39.1l28.9-5.1c10.6,18.6,26.7,34,46.6,43.7l-3.3,29.2     c6.3,2.5,12.8,4.6,19.5,6.1c6.8,1.6,13.5,2.6,20.2,3.1l10-27.6c21.5,0.2,42.2-6.2,59.6-17.5c0.5-0.3,1-0.7,1.5-1l23.6,17.4     c9.9-7.8,18.8-17,26.2-27.4c0.6-0.8,1.2-1.6,1.7-2.4l-18.9-22.4C1085,272.4,1089.1,262.3,1091.6,251.5z M1021.9,293.8     c-10.6,5.6-22.6,8.8-35.4,8.8c-41.8,0-75.7-33.9-75.7-75.7c0-41.8,33.9-75.7,75.7-75.7s75.7,33.9,75.7,75.7     c0,12.9-3.3,25.1-9,35.8C1046.1,275.9,1035.2,286.8,1021.9,293.8z"/>
			<path d="M975.8,363.7C975.8,363.7,975.7,363.7,975.8,363.7c-7-0.6-13.9-1.6-20.5-3.2c-6.7-1.6-13.3-3.6-19.7-6.2     c-0.5-0.2-0.8-0.7-0.8-1.3l3.2-28.3c-19.3-9.5-35.1-24.4-45.9-43l-28.1,5c-0.6,0.1-1.1-0.2-1.3-0.7c-6-12.5-10-25.8-12-39.4     c-0.1-0.6,0.2-1.1,0.7-1.3l26.1-11.4c-0.7-10.6,0.2-21.3,2.7-31.7c2.4-10.4,6.4-20.4,11.7-29.6l-18.3-21.8     c-0.4-0.4-0.4-1-0.1-1.5c7.8-11.4,17.3-21.5,28.2-30.1c0.4-0.3,1-0.4,1.5,0L926,136c18-11.9,38.8-18.3,60.2-18.3l9.7-26.8     c0.2-0.5,0.7-0.9,1.3-0.8c6.8,0.5,13.7,1.6,20.4,3.2c6.7,1.6,13.3,3.6,19.7,6.2c0.5,0.2,0.8,0.7,0.8,1.3l-3.2,28.3     c19.3,9.5,35.1,24.4,45.9,43l28.1-5c0.5-0.1,1.1,0.2,1.3,0.7c6,12.5,10,25.8,12,39.4c0.1,0.6-0.2,1.1-0.7,1.3l-26.1,11.4     c0.7,10.6-0.2,21.3-2.7,31.7c-2.4,10.5-6.4,20.4-11.7,29.6l18.3,21.8c0.4,0.4,0.4,1,0.1,1.5c-0.4,0.6-0.8,1.2-1.3,1.8l-0.5,0.6     c-7.5,10.4-16.4,19.7-26.5,27.6c-0.4,0.3-1,0.4-1.5,0l-23-16.9c-0.1,0.1-0.2,0.1-0.3,0.2l-0.5,0.3     c-17.8,11.6-38.3,17.7-59.4,17.7l-9.7,26.8C976.8,363.4,976.3,363.7,975.8,363.7z M937.4,352.4c6,2.3,12.2,4.3,18.5,5.7     c6.2,1.5,12.7,2.5,19.1,3l9.7-26.7c0.2-0.5,0.6-0.8,1.2-0.8c0,0,0,0,0,0l0.8,0c20.6,0,40.8-6,58.2-17.3l0.5-0.3     c0.3-0.2,0.7-0.4,1-0.6c0.4-0.3,1-0.3,1.4,0l22.9,16.9c9.6-7.6,18.1-16.6,25.3-26.6l0.5-0.6c0.2-0.3,0.5-0.6,0.7-1l-18.3-21.7     c-0.3-0.4-0.4-1-0.1-1.4c5.4-9.2,9.4-19.2,11.8-29.7c2.4-10.5,3.3-21.2,2.5-31.9c0-0.5,0.3-1,0.7-1.2l26-11.4     c-1.9-12.8-5.7-25.2-11.2-36.9l-28,5c-0.5,0.1-1-0.2-1.3-0.6c-10.7-18.8-26.7-33.8-46.1-43.2c-0.5-0.2-0.7-0.7-0.7-1.2l3.2-28.3     c-6-2.3-12.2-4.3-18.5-5.7c-6.3-1.5-12.7-2.5-19.1-3l-9.7,26.8c-0.2,0.5-0.7,0.8-1.2,0.8l-0.7,0c-21.3,0-42,6.3-59.7,18.3     c-0.4,0.3-1,0.3-1.4,0l-22.9-16.8c-10.1,8.1-19,17.6-26.4,28.2l18.3,21.7c0.3,0.4,0.4,1,0.1,1.4c-5.4,9.2-9.4,19.2-11.8,29.7     c-2.5,10.5-3.3,21.2-2.5,31.9c0,0.5-0.3,1-0.7,1.2l-26,11.4c1.9,12.8,5.7,25.2,11.2,36.9l28-5c0.5-0.1,1,0.1,1.3,0.6     c10.7,18.8,26.7,33.8,46.1,43.2c0.5,0.2,0.7,0.7,0.7,1.2L937.4,352.4z M986.5,303.9c-42.4,0-77-34.5-77-77s34.5-77,77-77     s76.9,34.5,76.9,77c0,12.7-3.2,25.3-9.1,36.4c-7.3,13.5-18.2,24.4-31.8,31.6C1011.5,300.8,999,303.9,986.5,303.9z M986.5,152.5     c-41.1,0-74.5,33.4-74.5,74.5c0,41.1,33.4,74.5,74.5,74.5c12.1,0,24.2-3,34.9-8.7c13.1-7,23.8-17.6,30.8-30.6     c5.8-10.8,8.8-22.9,8.8-35.2C1061,185.9,1027.5,152.5,986.5,152.5z"/>
		</g><path d="M986.5,303.9c-42.4,0-77-34.5-77-77s34.5-77,77-77s76.9,34.5,76.9,77c0,12.7-3.2,25.3-9.1,36.4c-0.2,0.3-0.5,0.6-0.9,0.6     c-0.4,0.1-0.8-0.1-1.1-0.3l-20.4-20.4c-0.2-0.2-0.4-0.5-0.4-0.9c0-0.1,0-0.2,0.1-0.3l-11.2-41.8l-41.7-11.2l-1.6,1.6l30.3,30.3     c0.2,0.2,0.4,0.5,0.4,0.9s-0.1,0.6-0.4,0.9l-25.5,25.5c-0.5,0.5-1.3,0.5-1.7,0l-30.3-30.3l-1.6,1.6l11.2,41.7l42,11.2     c0.4-0.1,0.8,0,1.1,0.3l20.4,20.4c0.3,0.3,0.4,0.7,0.3,1.1c-0.1,0.4-0.3,0.7-0.6,0.9C1011.5,300.8,999,303.9,986.5,303.9z      M986.5,152.5c-41.1,0-74.5,33.4-74.5,74.5c0,41.1,33.4,74.5,74.5,74.5c11.6,0,23.1-2.7,33.4-7.9l-18.7-18.7c0,0-0.1,0-0.1,0     l-43-11.5c-0.4-0.1-0.8-0.4-0.9-0.9l-11.5-43c-0.1-0.4,0-0.9,0.3-1.2l3-3c0.5-0.5,1.3-0.5,1.7,0l30.3,30.3l23.7-23.7l-30.3-30.3     c-0.5-0.5-0.5-1.3,0-1.7l3-3c0.3-0.3,0.8-0.4,1.2-0.3l43,11.5c0.4,0.1,0.8,0.4,0.9,0.9l11.5,43c0,0,0,0.1,0,0.1l18.8,18.8     c5.3-10.4,8.1-22,8.1-33.7C1061,185.9,1027.5,152.5,986.5,152.5z" transform="matrix(1, 0, 0, 1, 0, 0)"/><path fill="#D1D3D4" d="M1032.9,242.1l-11.5-43l-43-11.5l-3,3l31.2,31.2L981,247.2L949.9,216l-3,3l11.5,43l43,11.5l0.2-0.2     l20.4,20.4c13.3-7,24.2-17.9,31.3-31.1l-20.4-20.4L1032.9,242.1z" transform="matrix(1, 0, 0, 1, 0, 0)"/><path d="M1021.9,295.1c-0.3,0-0.6-0.1-0.9-0.4l-19.9-19.9c0,0-0.1,0-0.1,0l-43-11.5c-0.4-0.1-0.8-0.4-0.9-0.9l-11.5-43     c-0.1-0.4,0-0.9,0.3-1.2l3-3c0.5-0.5,1.3-0.5,1.7,0l30.3,30.3l23.7-23.7l-30.3-30.3c-0.5-0.5-0.5-1.3,0-1.7l3-3     c0.3-0.3,0.8-0.4,1.2-0.3l43,11.5c0.4,0.1,0.8,0.4,0.9,0.9l11.5,43c0,0,0,0.1,0,0.1l20,19.9c0.4,0.4,0.5,1,0.2,1.5     c-7.3,13.5-18.2,24.4-31.8,31.6C1022.3,295,1022.1,295.1,1021.9,295.1z M1001.7,272.3c0.3,0,0.6,0.1,0.8,0.3l19.7,19.7     c12.5-6.8,22.7-17,29.5-29.4l-19.8-19.8c-0.2-0.2-0.4-0.5-0.4-0.9c0-0.1,0-0.2,0.1-0.3l-11.2-41.8l-41.7-11.2l-1.6,1.6l30.3,30.3     c0.2,0.2,0.4,0.5,0.4,0.9s-0.1,0.6-0.4,0.9l-25.5,25.5c-0.5,0.5-1.3,0.5-1.7,0l-30.3-30.3l-1.6,1.6l11.2,41.7l42,11.2     C1001.5,272.3,1001.6,272.3,1001.7,272.3z" transform="matrix(1, 0, 0, 1, 0, 0)"/><path fill="#E6DC8D" d="M969.1,686.5V518.9h-52.5v167.6c0,14.5,11.7,26.2,26.2,26.2S969.1,701,969.1,686.5z" transform="matrix(1, 0, 0, 1, 0, 0)"/><path d="M942.8,714c-15.1,0-27.5-12.3-27.5-27.5V518.9c0-0.7,0.5-1.2,1.2-1.2h52.5c0.7,0,1.2,0.6,1.2,1.2v167.6    C970.3,701.7,958,714,942.8,714z M917.8,520.1v166.4c0,13.8,11.2,25,25,25s25-11.2,25-25V520.1H917.8z" transform="matrix(1, 0, 0, 1, 0, 0)"/><path fill="#FFF59C" d="M1174.6,492.7h-72.5l-44.1-43.7h-88.9v43.7v26.2v167.6c0,14.5-11.7,26.2-26.2,26.2h258    c14.5,0,26.2-11.7,26.2-26.2V492.7H1174.6z" transform="matrix(1, 0, 0, 1, 0, 0)"/><path d="M1200.9,714h-258c-0.7,0-1.2-0.6-1.2-1.2s0.6-1.2,1.2-1.2c13.8,0,25-11.2,25-25V448.9c0-0.7,0.6-1.2,1.2-1.2h88.9    c0.3,0,0.6,0.1,0.9,0.4l43.7,43.4h124.5c0.7,0,1.2,0.6,1.2,1.2v193.9C1228.3,701.7,1216,714,1200.9,714z M954.2,711.5h246.7    c13.8,0,25-11.2,25-25V493.9h-123.8c-0.3,0-0.6-0.1-0.9-0.4l-43.7-43.4h-87.2v236.4C970.3,697.6,963.7,707.2,954.2,711.5z" transform="matrix(1, 0, 0, 1, 0, 0)"/><g transform="matrix(1, 0, 0, 1, 0, 0)">
			<path d="M 200.5 554.099976 H 388.600006 V 628.399979 H 200.5 V 554.099976 Z" fill="#7E7F80"/>
			<path d="M388.5,629.7H200.5c-0.7,0-1.2-0.6-1.2-1.2v-74.3c0-0.7,0.6-1.2,1.2-1.2h188.1c0.7,0,1.2,0.6,1.2,1.2v74.3     C389.8,629.1,389.2,629.7,388.5,629.7z M201.7,627.2h185.6v-71.9H201.7V627.2z"/>
		</g><path d="M 246.399994 591.299988 A 9.5 9.5 0 0 1 236.899994 600.799988 A 9.5 9.5 0 0 1 227.399994 591.299988 A 9.5 9.5 0 0 1 236.899994 581.799988 A 9.5 9.5 0 0 1 246.399994 591.299988 Z" fill="#7CD6CB" transform="matrix(1, 0, 0, 1, 0, 0)"/><path d="M236.9,602c-5.9,0-10.7-4.8-10.7-10.7c0-5.9,4.8-10.7,10.7-10.7s10.7,4.8,10.7,10.7C247.6,597.2,242.8,602,236.9,602z      M236.9,583c-4.5,0-8.2,3.7-8.2,8.2c0,4.5,3.7,8.2,8.2,8.2c4.5,0,8.2-3.7,8.2-8.2C245.2,586.7,241.5,583,236.9,583z" transform="matrix(1, 0, 0, 1, 0, 0)"/><path d="M 304 591.299988 A 9.5 9.5 0 0 1 294.5 600.799988 A 9.5 9.5 0 0 1 285 591.299988 A 9.5 9.5 0 0 1 294.5 581.799988 A 9.5 9.5 0 0 1 304 591.299988 Z" fill="#FFF59C" transform="matrix(1, 0, 0, 1, 0, 0)"/><path d="M294.5,602c-5.9,0-10.7-4.8-10.7-10.7c0-5.9,4.8-10.7,10.7-10.7s10.7,4.8,10.7,10.7C305.2,597.2,300.4,602,294.5,602z      M294.5,583c-4.5,0-8.2,3.7-8.2,8.2c0,4.5,3.7,8.2,8.2,8.2s8.2-3.7,8.2-8.2C302.7,586.7,299.1,583,294.5,583z" transform="matrix(1, 0, 0, 1, 0, 0)"/><path d="M 361.600006 591.299988 A 9.5 9.5 0 0 1 352.100006 600.799988 A 9.5 9.5 0 0 1 342.600006 591.299988 A 9.5 9.5 0 0 1 352.100006 581.799988 A 9.5 9.5 0 0 1 361.600006 591.299988 Z" fill="#FF9C8C" transform="matrix(1, 0, 0, 1, 0, 0)"/><path d="M352.1,602c-5.9,0-10.7-4.8-10.7-10.7c0-5.9,4.8-10.7,10.7-10.7s10.7,4.8,10.7,10.7C362.8,597.2,358,602,352.1,602z      M352.1,583c-4.5,0-8.2,3.7-8.2,8.2c0,4.5,3.7,8.2,8.2,8.2c4.5,0,8.2-3.7,8.2-8.2C360.3,586.7,356.6,583,352.1,583z" transform="matrix(1, 0, 0, 1, 0, 0)"/><path d="M 200.5 652.5 H 388.600006 V 726.800003 H 200.5 V 652.5 Z" fill="#7E7F80" transform="matrix(1, 0, 0, 1, 0, 0)"/><path d="M388.5,728.1H200.5c-0.7,0-1.2-0.6-1.2-1.2v-74.3c0-0.7,0.6-1.2,1.2-1.2h188.1c0.7,0,1.2,0.6,1.2,1.2v74.3     C389.8,727.5,389.2,728.1,388.5,728.1z M201.7,725.6h185.6v-71.9H201.7V725.6z" transform="matrix(1, 0, 0, 1, 0, 0)"/><path fill="#7CD6CB" d="M246.4,689.7c0,5.2-4.2,9.5-9.5,9.5c-5.2,0-9.5-4.2-9.5-9.5c0-5.2,4.2-9.5,9.5-9.5     C242.2,680.2,246.4,684.4,246.4,689.7z" transform="matrix(1, 0, 0, 1, 0, 0)"/><path d="M236.9,700.4c-5.9,0-10.7-4.8-10.7-10.7c0-5.9,4.8-10.7,10.7-10.7s10.7,4.8,10.7,10.7     C247.6,695.6,242.8,700.4,236.9,700.4z M236.9,681.4c-4.5,0-8.2,3.7-8.2,8.2c0,4.5,3.7,8.2,8.2,8.2c4.5,0,8.2-3.7,8.2-8.2     C245.2,685.1,241.5,681.4,236.9,681.4z" transform="matrix(1, 0, 0, 1, 0, 0)"/><path fill="#FFF59C" d="M304,689.7c0,5.2-4.2,9.5-9.5,9.5s-9.5-4.2-9.5-9.5c0-5.2,4.2-9.5,9.5-9.5S304,684.4,304,689.7z" transform="matrix(1, 0, 0, 1, 0, 0)"/><path d="M294.5,700.4c-5.9,0-10.7-4.8-10.7-10.7c0-5.9,4.8-10.7,10.7-10.7s10.7,4.8,10.7,10.7     C305.2,695.6,300.4,700.4,294.5,700.4z M294.5,681.4c-4.5,0-8.2,3.7-8.2,8.2c0,4.5,3.7,8.2,8.2,8.2s8.2-3.7,8.2-8.2     C302.7,685.1,299.1,681.4,294.5,681.4z" transform="matrix(1, 0, 0, 1, 0, 0)"/><path fill="#FF9C8C" d="M361.6,689.7c0,5.2-4.2,9.5-9.5,9.5c-5.2,0-9.5-4.2-9.5-9.5c0-5.2,4.2-9.5,9.5-9.5     C357.3,680.2,361.6,684.4,361.6,689.7z" transform="matrix(1, 0, 0, 1, 0, 0)"/><path d="M352.1,700.4c-5.9,0-10.7-4.8-10.7-10.7c0-5.9,4.8-10.7,10.7-10.7s10.7,4.8,10.7,10.7C362.8,695.6,358,700.4,352.1,700.4     z M352.1,681.4c-4.5,0-8.2,3.7-8.2,8.2c0,4.5,3.7,8.2,8.2,8.2c4.5,0,8.2-3.7,8.2-8.2C360.3,685.1,356.6,681.4,352.1,681.4z" transform="matrix(1, 0, 0, 1, 0, 0)"/><path d="M 200.5 750.900024 H 388.600006 V 825.200027 H 200.5 V 750.900024 Z" fill="#7E7F80" transform="matrix(1, 0, 0, 1, 0, 0)"/><path d="M388.5,826.5H200.5c-0.7,0-1.2-0.6-1.2-1.2v-74.3c0-0.7,0.6-1.2,1.2-1.2h188.1c0.7,0,1.2,0.6,1.2,1.2v74.3     C389.8,825.9,389.2,826.5,388.5,826.5z M201.7,824h185.6v-71.9H201.7V824z" transform="matrix(1, 0, 0, 1, 0, 0)"/><path d="M 246.399994 788.099976 A 9.5 9.5 0 0 1 236.899994 797.599976 A 9.5 9.5 0 0 1 227.399994 788.099976 A 9.5 9.5 0 0 1 236.899994 778.599976 A 9.5 9.5 0 0 1 246.399994 788.099976 Z" fill="#7CD6CB" transform="matrix(1, 0, 0, 1, 0, 0)"/><path d="M236.9,798.8c-5.9,0-10.7-4.8-10.7-10.7s4.8-10.7,10.7-10.7s10.7,4.8,10.7,10.7S242.8,798.8,236.9,798.8z M236.9,779.8     c-4.5,0-8.2,3.7-8.2,8.2s3.7,8.2,8.2,8.2c4.5,0,8.2-3.7,8.2-8.2S241.5,779.8,236.9,779.8z" transform="matrix(1, 0, 0, 1, 0, 0)"/><path d="M 304 788.099976 A 9.5 9.5 0 0 1 294.5 797.599976 A 9.5 9.5 0 0 1 285 788.099976 A 9.5 9.5 0 0 1 294.5 778.599976 A 9.5 9.5 0 0 1 304 788.099976 Z" fill="#FFF59C" transform="matrix(1, 0, 0, 1, 0, 0)"/><path d="M294.5,798.8c-5.9,0-10.7-4.8-10.7-10.7s4.8-10.7,10.7-10.7s10.7,4.8,10.7,10.7S300.4,798.8,294.5,798.8z M294.5,779.8     c-4.5,0-8.2,3.7-8.2,8.2s3.7,8.2,8.2,8.2s8.2-3.7,8.2-8.2S299.1,779.8,294.5,779.8z" transform="matrix(1, 0, 0, 1, 0, 0)"/><path d="M 361.600006 788.099976 A 9.5 9.5 0 0 1 352.100006 797.599976 A 9.5 9.5 0 0 1 342.600006 788.099976 A 9.5 9.5 0 0 1 352.100006 778.599976 A 9.5 9.5 0 0 1 361.600006 788.099976 Z" fill="#FF9C8C" transform="matrix(1, 0, 0, 1, 0, 0)"/><path d="M352.1,798.8c-5.9,0-10.7-4.8-10.7-10.7s4.8-10.7,10.7-10.7s10.7,4.8,10.7,10.7S358,798.8,352.1,798.8z M352.1,779.8     c-4.5,0-8.2,3.7-8.2,8.2s3.7,8.2,8.2,8.2c4.5,0,8.2-3.7,8.2-8.2S356.6,779.8,352.1,779.8z" transform="matrix(1, 0, 0, 1, 0, 0)"/><path d="M200.5,690.9H165c-0.7,0-1.2-0.6-1.2-1.2c0-0.7,0.6-1.2,1.2-1.2h35.5c0.7,0,1.2,0.6,1.2,1.2     C201.7,690.4,201.2,690.9,200.5,690.9z" transform="matrix(1, 0, 0, 1, 0, 0)"/><path d="M 90.699997 652.5 H 165 V 726.800003 H 90.699997 V 652.5 Z" fill="#FFF59C" transform="matrix(1, 0, 0, 1, 0, 0)"/><path d="M165,728.1H90.7c-0.7,0-1.2-0.6-1.2-1.2v-74.3c0-0.7,0.6-1.2,1.2-1.2H165c0.7,0,1.2,0.6,1.2,1.2v74.3     C166.2,727.5,165.7,728.1,165,728.1z M91.9,725.6h71.9v-71.9H91.9V725.6z" transform="matrix(1, 0, 0, 1, 0, 0)"/><path d="M424,690.9h-35.5c-0.7,0-1.2-0.6-1.2-1.2c0-0.7,0.6-1.2,1.2-1.2H424c0.7,0,1.2,0.6,1.2,1.2     C425.2,690.4,424.7,690.9,424,690.9z" transform="matrix(1, 0, 0, 1, 0, 0)"/><path d="M 424 652.5 H 498.300003 V 726.800003 H 424 V 652.5 Z" fill="#FFF59C" transform="matrix(1, 0, 0, 1, 0, 0)"/><path d="M498.4,728.1H424c-0.7,0-1.2-0.6-1.2-1.2v-74.3c0-0.7,0.6-1.2,1.2-1.2h74.3c0.7,0,1.2,0.6,1.2,1.2v74.3     C499.6,727.5,499,728.1,498.4,728.1z M425.2,725.6h71.9v-71.9h-71.9V725.6z" transform="matrix(1, 0, 0, 1, 0, 0)"/><path d="M127.8,826.5c-0.7,0-1.2-0.6-1.2-1.2c0-11.9,3.5-21.3,10.4-27.9c11.3-10.9,27.4-10.5,28.1-10.5h35.4     c0.7,0,1.2,0.6,1.2,1.2s-0.6,1.2-1.2,1.2H165c-0.2,0-15.9-0.4-26.3,9.8c-6.4,6.2-9.6,15-9.6,26.1     C129.1,825.9,128.5,826.5,127.8,826.5z" transform="matrix(1, 0, 0, 1, 0, 0)"/><path d="M 156.000004 853.400024 A 28.200001 28.200001 0 0 1 127.800003 881.600025 A 28.200001 28.200001 0 0 1 99.600002 853.400024 A 28.200001 28.200001 0 0 1 127.800003 825.200024 A 28.200001 28.200001 0 0 1 156.000004 853.400024 Z" fill="#CE8AA4" transform="matrix(1, 0, 0, 1, 0, 0)"/><path d="M127.8,882.9c-16.2,0-29.4-13.2-29.4-29.4s13.2-29.4,29.4-29.4s29.4,13.2,29.4,29.4S144.1,882.9,127.8,882.9z      M127.8,826.5c-14.9,0-27,12.1-27,27s12.1,27,27,27s27-12.1,27-27S142.7,826.5,127.8,826.5z" transform="matrix(1, 0, 0, 1, 0, 0)"/><path d="M461.2,826.5c-0.7,0-1.2-0.6-1.2-1.2c0-11.2-3.2-20-9.6-26.2c-10.5-10.2-26.1-9.8-26.3-9.8h-35.5c-0.7,0-1.2-0.6-1.2-1.2     s0.6-1.2,1.2-1.2H424c0.6,0,16.8-0.4,28,10.5c6.9,6.7,10.4,16.1,10.4,27.9C462.4,825.9,461.9,826.5,461.2,826.5z" transform="matrix(1, 0, 0, 1, 0, 0)"/><path d="M 489.400013 853.400024 A 28.200001 28.200001 0 0 1 461.200012 881.600025 A 28.200001 28.200001 0 0 1 433.000011 853.400024 A 28.200001 28.200001 0 0 1 461.200012 825.200024 A 28.200001 28.200001 0 0 1 489.400013 853.400024 Z" fill="#CE8AA4" transform="matrix(1, 0, 0, 1, 0, 0)"/><path d="M461.2,882.9c-16.2,0-29.4-13.2-29.4-29.4S445,824,461.2,824c16.2,0,29.4,13.2,29.4,29.4S477.4,882.9,461.2,882.9z      M461.2,826.5c-14.9,0-27,12.1-27,27s12.1,27,27,27c14.9,0,27-12.1,27-27S476,826.5,461.2,826.5z" transform="matrix(1, 0, 0, 1, 0, 0)"/><path d="M164.5,592.5c-2.9,0-17.3-0.5-27.5-10.5c-6.9-6.7-10.4-16.1-10.4-27.9c0-0.7,0.6-1.2,1.2-1.2s1.2,0.6,1.2,1.2     c0,11.2,3.2,20,9.6,26.2c10.5,10.2,26.1,9.8,26.3,9.8h35.5c0.7,0,1.2,0.6,1.2,1.2s-0.6,1.2-1.2,1.2H165     C164.9,592.5,164.8,592.5,164.5,592.5z" transform="matrix(1, 0, 0, 1, 0, 0)"/><path d="M 156.000004 525.900024 A 28.200001 28.200001 0 0 1 127.800003 554.100025 A 28.200001 28.200001 0 0 1 99.600002 525.900024 A 28.200001 28.200001 0 0 1 127.800003 497.700024 A 28.200001 28.200001 0 0 1 156.000004 525.900024 Z" fill="#CE8AA4" transform="matrix(1, 0, 0, 1, 0, 0)"/><path d="M127.8,555.3c-16.2,0-29.4-13.2-29.4-29.4c0-16.2,13.2-29.4,29.4-29.4s29.4,13.2,29.4,29.4     C157.2,542.1,144.1,555.3,127.8,555.3z M127.8,499c-14.9,0-27,12.1-27,27c0,14.9,12.1,27,27,27s27-12.1,27-27     C154.8,511,142.7,499,127.8,499z" transform="matrix(1, 0, 0, 1, 0, 0)"/><path d="M424.5,592.5c-0.3,0-0.5,0-0.5,0h-35.4c-0.7,0-1.2-0.6-1.2-1.2s0.6-1.2,1.2-1.2H424c0.2,0,15.9,0.4,26.3-9.8     c6.4-6.2,9.6-15,9.6-26.1c0-0.7,0.6-1.2,1.2-1.2c0.7,0,1.2,0.6,1.2,1.2c0,11.9-3.5,21.3-10.4,27.9     C441.8,592,427.4,592.5,424.5,592.5z" transform="matrix(1, 0, 0, 1, 0, 0)"/><path d="M 489.400013 525.900024 A 28.200001 28.200001 0 0 1 461.200012 554.100025 A 28.200001 28.200001 0 0 1 433.000011 525.900024 A 28.200001 28.200001 0 0 1 461.200012 497.700024 A 28.200001 28.200001 0 0 1 489.400013 525.900024 Z" fill="#CE8AA4" transform="matrix(1, 0, 0, 1, 0, 0)"/><path d="M461.2,555.3c-16.2,0-29.4-13.2-29.4-29.4c0-16.2,13.2-29.4,29.4-29.4c16.2,0,29.4,13.2,29.4,29.4     C490.6,542.1,477.4,555.3,461.2,555.3z M461.2,499c-14.9,0-27,12.1-27,27c0,14.9,12.1,27,27,27c14.9,0,27-12.1,27-27     C488.1,511,476,499,461.2,499z" transform="matrix(1, 0, 0, 1, 0, 0)"/><g transform="matrix(1, 0, 0, 1, 0, 0)">
			<path fill="#FF9C8C" d="M1264.1,340.3c0,20.4-16.6,37-37,37c-20.4,0-37-16.5-37-37s16.6-37,37-37     C1247.5,303.3,1264.1,319.9,1264.1,340.3z"/>
			<path d="M1227.1,378.5c-21.1,0-38.2-17.1-38.2-38.2c0-21.1,17.1-38.2,38.2-38.2c21.1,0,38.2,17.1,38.2,38.2     C1265.3,361.4,1248.2,378.5,1227.1,378.5z M1227.1,304.6c-19.7,0-35.7,16-35.7,35.7c0,19.7,16,35.7,35.7,35.7     c19.7,0,35.7-16,35.7-35.7C1262.8,320.6,1246.8,304.6,1227.1,304.6z"/>
		</g><g transform="matrix(1, 0, 0, 1, 0, 0)">
				<path d="M1227.1,427.6c-3,0-6-0.2-9-0.5c-0.7-0.1-1.2-0.7-1.1-1.4c0.1-0.7,0.7-1.2,1.4-1.1c30.6,3.2,60.6-10.5,78.3-35.8      c26.8-38.3,17.5-91.3-20.8-118.1c-0.6-0.4-0.7-1.2-0.3-1.7c0.4-0.6,1.2-0.7,1.7-0.3c39.4,27.6,49,82.1,21.5,121.5      C1282.2,413.8,1255.4,427.6,1227.1,427.6z"/>
			</g><path d="M1177.8,412c-0.2,0-0.5-0.1-0.7-0.2c-39.4-27.6-49-82.1-21.4-121.6c17.6-25.1,47.6-39.3,78.2-37      c0.7,0.1,1.2,0.6,1.1,1.3c-0.1,0.7-0.6,1.2-1.3,1.1c-29.8-2.3-58.9,11.5-76,35.9c-26.8,38.3-17.5,91.3,20.8,118.1      c0.6,0.4,0.7,1.2,0.3,1.7C1178.5,411.8,1178.2,412,1177.8,412z" transform="matrix(1, 0, 0, 1, 0, 0)"/><path d="M1249.1,451.9c-0.2,0-0.5-0.1-0.7-0.2l-34-23.8c-0.6-0.4-0.7-1.2-0.3-1.7l23.8-34c0.4-0.6,1.2-0.7,1.7-0.3      c0.6,0.4,0.7,1.2,0.3,1.7l-23.1,33l33,23.1c0.6,0.4,0.7,1.2,0.3,1.7C1249.9,451.7,1249.5,451.9,1249.1,451.9z" transform="matrix(1, 0, 0, 1, 0, 0)"/><path d="M1212,288c-0.2,0-0.5-0.1-0.7-0.2c-0.6-0.4-0.7-1.2-0.3-1.7l23.1-33l-33-23.1c-0.6-0.4-0.7-1.2-0.3-1.7      c0.4-0.6,1.2-0.7,1.7-0.3l34,23.8c0.3,0.2,0.5,0.5,0.5,0.8c0.1,0.3,0,0.7-0.2,0.9l-23.8,34C1212.8,287.9,1212.4,288,1212,288z" transform="matrix(1, 0, 0, 1, 0, 0)"/><path d="M 1243.699976 340.299988 A 16.6 16.6 0 0 1 1227.099976 356.899988 A 16.6 16.6 0 0 1 1210.499975 340.299988 A 16.6 16.6 0 0 1 1227.099976 323.699987 A 16.6 16.6 0 0 1 1243.699976 340.299988 Z" fill="#FFFFFF" transform="matrix(1, 0, 0, 1, 0, 0)"/><path d="M1227.1,358.1c-9.8,0-17.8-8-17.8-17.8c0-9.8,8-17.8,17.8-17.8c9.8,0,17.8,8,17.8,17.8     C1244.9,350.1,1236.9,358.1,1227.1,358.1z M1227.1,325c-8.5,0-15.3,6.9-15.3,15.3s6.9,15.3,15.3,15.3c8.5,0,15.3-6.9,15.3-15.3     S1235.6,325,1227.1,325z" transform="matrix(1, 0, 0, 1, 0, 0)"/><path d="M 916.599976 768.400024 H 1050.499969 V 858.900024 H 916.599976 V 768.400024 Z" fill="#FF9C8C" transform="matrix(1, 0, 0, 1, 0, 0)"/><path d="M1050.5,860.1H916.6c-0.7,0-1.2-0.6-1.2-1.2v-90.5c0-0.7,0.5-1.2,1.2-1.2h133.9c0.7,0,1.2,0.6,1.2,1.2v90.5    C1051.7,859.6,1051.1,860.1,1050.5,860.1z M917.8,857.6h131.4v-88H917.8V857.6z" transform="matrix(1, 0, 0, 1, 0, 0)"/><path d="M1227.1,769.6h-134.3c-0.7,0-1.2-0.6-1.2-1.2s0.6-1.2,1.2-1.2h134.3c0.7,0,1.2,0.6,1.2,1.2S1227.8,769.6,1227.1,769.6z" transform="matrix(1, 0, 0, 1, 0, 0)"/><path d="M1227.1,814.9h-134.3c-0.7,0-1.2-0.6-1.2-1.2s0.6-1.2,1.2-1.2h134.3c0.7,0,1.2,0.6,1.2,1.2S1227.8,814.9,1227.1,814.9z" transform="matrix(1, 0, 0, 1, 0, 0)"/><path d="M1227.1,860.1h-134.3c-0.7,0-1.2-0.6-1.2-1.2s0.6-1.2,1.2-1.2h134.3c0.7,0,1.2,0.6,1.2,1.2S1227.8,860.1,1227.1,860.1z" transform="matrix(1, 0, 0, 1, 0, 0)"/><path d="M 970.900024 813.599976 A 15 15 0 0 1 955.900024 828.599976 A 15 15 0 0 1 940.900024 813.599976 A 15 15 0 0 1 955.900024 798.599976 A 15 15 0 0 1 970.900024 813.599976 Z" fill="#FFFFFF" transform="matrix(1, 0, 0, 1, 0, 0)"/><path d="M955.9,829.9c-9,0-16.3-7.3-16.3-16.3c0-9,7.3-16.3,16.3-16.3s16.3,7.3,16.3,16.3C972.1,822.6,964.8,829.9,955.9,829.9z     M955.9,799.8c-7.6,0-13.8,6.2-13.8,13.8s6.2,13.8,13.8,13.8s13.8-6.2,13.8-13.8S963.5,799.8,955.9,799.8z" transform="matrix(1, 0, 0, 1, 0, 0)"/><path d="M996.2,814.9h-25.3c-0.7,0-1.2-0.6-1.2-1.2s0.6-1.2,1.2-1.2h25.3c0.7,0,1.2,0.6,1.2,1.2S996.8,814.9,996.2,814.9z" transform="matrix(1, 0, 0, 1, 0, 0)"/><path d="M 996.200012 798.599976 H 1026.300013 V 828.699976 H 996.200012 V 798.599976 Z" fill="#FFFFFF" transform="matrix(1, 0, 0, 1, 0, 0)"/><path d="M1026.2,829.9h-30.1c-0.7,0-1.2-0.6-1.2-1.2v-30.1c0-0.7,0.6-1.2,1.2-1.2h30.1c0.7,0,1.2,0.6,1.2,1.2v30.1    C1027.5,829.3,1026.9,829.9,1026.2,829.9z M997.4,827.4h27.6v-27.6h-27.6V827.4z" transform="matrix(1, 0, 0, 1, 0, 0)"/><path d="M 1346 599.2999877929688 L 1276 545.7999877929688 L 1276 563.0999755859375 L 1101.800048828125 563.0999755859375 L 1101.800048828125 635.5 L 1276 635.5 L 1276 652.7000122070312 Z" fill="#FFFFFF" transform="matrix(1, 0, 0, 1, 0, 0)"/><path d="M1276,654c-0.2,0-0.4,0-0.5-0.1c-0.4-0.2-0.7-0.6-0.7-1.1v-16h-172.9c-0.7,0-1.2-0.6-1.2-1.2v-72.4c0-0.7,0.6-1.2,1.2-1.2    h172.9v-16c0-0.5,0.3-0.9,0.7-1.1s0.9-0.2,1.3,0.1l70,53.4c0.3,0.2,0.5,0.6,0.5,1s-0.2,0.7-0.5,1l-70,53.4    C1276.5,653.9,1276.3,654,1276,654z M1103.1,634.2H1276c0.7,0,1.2,0.6,1.2,1.2v14.8l66.7-51l-66.7-51v14.8c0,0.7-0.6,1.2-1.2,1.2    h-172.9V634.2z" transform="matrix(1, 0, 0, 1, 0, 0)"/><path d="M1101.8,649.9c-0.7,0-1.2-0.6-1.2-1.2v-97.9c0-0.7,0.6-1.2,1.2-1.2c0.7,0,1.2,0.6,1.2,1.2v97.9    C1103.1,649.3,1102.5,649.9,1101.8,649.9z" transform="matrix(1, 0, 0, 1, 0, 0)"/><path d="M1101.8,674.6c-0.7,0-1.2-0.6-1.2-1.2v-10.2c0-0.7,0.6-1.2,1.2-1.2c0.7,0,1.2,0.6,1.2,1.2v10.2    C1103.1,674.1,1102.5,674.6,1101.8,674.6z" transform="matrix(1, 0, 0, 1, 0, 0)"/><path d="M1276.9,624.7h-101.3c-0.7,0-1.2-0.6-1.2-1.2s0.6-1.2,1.2-1.2h101.3c0.7,0,1.2,0.6,1.2,1.2S1277.6,624.7,1276.9,624.7z" transform="matrix(1, 0, 0, 1, 0, 0)"/><path d="M1158.5,624.7h-22.6c-0.7,0-1.2-0.6-1.2-1.2s0.6-1.2,1.2-1.2h22.6c0.7,0,1.2,0.6,1.2,1.2S1159.1,624.7,1158.5,624.7z" transform="matrix(1, 0, 0, 1, 0, 0)"/><path d="M 1005.799988 517.400024 H 1071.399986 V 545.800024 H 1005.799988 V 517.400024 Z" fill="#85D2FF" transform="matrix(1, 0, 0, 1, 0, 0)"/><path d="M1071.4,547.1h-65.6c-0.7,0-1.2-0.6-1.2-1.2v-28.4c0-0.7,0.6-1.2,1.2-1.2h65.6c0.7,0,1.2,0.6,1.2,1.2v28.4    C1072.6,546.5,1072,547.1,1071.4,547.1z M1007,544.6h63.1v-25.9H1007V544.6z" transform="matrix(1, 0, 0, 1, 0, 0)"/><path d="M1071.4,574.1h-65.6c-0.7,0-1.2-0.6-1.2-1.2s0.6-1.2,1.2-1.2h65.6c0.7,0,1.2,0.6,1.2,1.2S1072,574.1,1071.4,574.1z" transform="matrix(1, 0, 0, 1, 0, 0)"/><path d="M1071.4,600.5h-65.6c-0.7,0-1.2-0.6-1.2-1.2s0.6-1.2,1.2-1.2h65.6c0.7,0,1.2,0.6,1.2,1.2S1072,600.5,1071.4,600.5z" transform="matrix(1, 0, 0, 1, 0, 0)"/><path d="M1071.4,627h-65.6c-0.7,0-1.2-0.6-1.2-1.2s0.6-1.2,1.2-1.2h65.6c0.7,0,1.2,0.6,1.2,1.2S1072,627,1071.4,627z" transform="matrix(1, 0, 0, 1, 0, 0)"/><g transform="matrix(1, 0, 0, 1, 0, 0)">
			<path d="M 408.29998779296875 407.5 L 408.29998779296875 199 L 267.20001220703125 199 L 217.5 149.6999969482422 L 117.0999984741211 149.6999969482422 L 117.0999984741211 407.5 Z" fill="#FFD594"/>
			<path d="M408.3,408.8H117.1c-0.7,0-1.2-0.6-1.2-1.2V149.7c0-0.7,0.6-1.2,1.2-1.2h100.4c0.3,0,0.6,0.1,0.9,0.4l49.4,49h140.6     c0.7,0,1.2,0.6,1.2,1.2v208.5C409.5,408.2,409,408.8,408.3,408.8z M118.3,406.3h288.7V200.2H267.2c-0.3,0-0.6-0.1-0.9-0.4     l-49.4-49h-98.6V406.3z"/>
		</g><path d="M 156 241.100006 H 221.599998 V 269.500006 H 156 V 241.100006 Z" fill="#7E7F80" transform="matrix(1, 0, 0, 1, 0, 0)"/><path d="M221.6,270.7H156c-0.7,0-1.2-0.6-1.2-1.2v-28.4c0-0.7,0.6-1.2,1.2-1.2h65.6c0.7,0,1.2,0.6,1.2,1.2v28.4     C222.9,270.1,222.3,270.7,221.6,270.7z M157.2,268.2h63.1v-25.9h-63.1V268.2z" transform="matrix(1, 0, 0, 1, 0, 0)"/><path d="M221.6,297.7H156c-0.7,0-1.2-0.6-1.2-1.2s0.6-1.2,1.2-1.2h65.6c0.7,0,1.2,0.6,1.2,1.2S222.3,297.7,221.6,297.7z" transform="matrix(1, 0, 0, 1, 0, 0)"/><path d="M221.6,324.1H156c-0.7,0-1.2-0.6-1.2-1.2s0.6-1.2,1.2-1.2h65.6c0.7,0,1.2,0.6,1.2,1.2S222.3,324.1,221.6,324.1z" transform="matrix(1, 0, 0, 1, 0, 0)"/><path d="M221.6,350.6H156c-0.7,0-1.2-0.6-1.2-1.2s0.6-1.2,1.2-1.2h65.6c0.7,0,1.2,0.6,1.2,1.2S222.3,350.6,221.6,350.6z" transform="matrix(1, 0, 0, 1, 0, 0)"/><path fill="#231F20" d="M267.2,200.2h-84.5c-0.7,0-1.2-0.6-1.2-1.2s0.6-1.2,1.2-1.2h84.5c0.7,0,1.2,0.6,1.2,1.2     S267.9,200.2,267.2,200.2z" transform="matrix(1, 0, 0, 1, 0, 0)"/><g transform="matrix(1, 0, 0, 1, 0, 0)">
			<path d="M 214.899994 260.700012 H 490.899994 V 438.000015 H 214.899994 V 260.700012 Z" fill="#85D2FF"/>
			<path d="M490.9,439.3h-276c-0.7,0-1.2-0.6-1.2-1.2V260.7c0-0.7,0.6-1.2,1.2-1.2h276c0.7,0,1.2,0.6,1.2,1.2V438     C492.1,438.7,491.5,439.3,490.9,439.3z M216.1,436.8h273.5V262H216.1V436.8z"/>
		</g><path d="M 214.899994 260.700012 L 352.899994 376.399994" fill="#FFFFFF" transform="matrix(1, 0, 0, 1, 0, 0)"/><path fill="#231F20" d="M352.9,377.6c-0.3,0-0.6-0.1-0.8-0.3l-138-115.6c-0.5-0.4-0.6-1.2-0.2-1.7s1.2-0.6,1.7-0.2l138,115.6     c0.5,0.4,0.6,1.2,0.2,1.7C353.6,377.5,353.2,377.6,352.9,377.6z" transform="matrix(1, 0, 0, 1, 0, 0)"/><path d="M 352.899994 376.399994 L 490.899994 260.700012" fill="#FFFFFF" transform="matrix(1, 0, 0, 1, 0, 0)"/><path fill="#231F20" d="M352.9,377.6c-0.4,0-0.7-0.1-0.9-0.4c-0.4-0.5-0.4-1.3,0.2-1.7l138-115.6c0.5-0.4,1.3-0.4,1.7,0.2     c0.4,0.5,0.4,1.3-0.2,1.7l-138,115.6C353.4,377.5,353.2,377.6,352.9,377.6z" transform="matrix(1, 0, 0, 1, 0, 0)"/><path fill="#FFFFFF" d="M405.5,401.8c0,7.3-6,13.3-13.3,13.3c-7.3,0-13.3-6-13.3-13.3c0-7.3,6-13.3,13.3-13.3     C399.5,388.5,405.5,394.5,405.5,401.8z" transform="matrix(1, 0, 0, 1, 0, 0)"/><path fill="#231F20" d="M392.2,416.3c-8,0-14.5-6.5-14.5-14.5c0-8,6.5-14.5,14.5-14.5c8,0,14.5,6.5,14.5,14.5     C406.7,409.8,400.2,416.3,392.2,416.3z M392.2,389.7c-6.7,0-12.1,5.4-12.1,12.1c0,6.7,5.4,12.1,12.1,12.1     c6.7,0,12.1-5.4,12.1-12.1C404.3,395.1,398.8,389.7,392.2,389.7z" transform="matrix(1, 0, 0, 1, 0, 0)"/><path d="M 432.700012 388.5 H 459.300013 V 415.1 H 432.700012 V 388.5 Z" fill="#FFFFFF" transform="matrix(1, 0, 0, 1, 0, 0)"/><path fill="#231F20" d="M459.3,416.3h-26.6c-0.7,0-1.2-0.6-1.2-1.2v-26.6c0-0.7,0.6-1.2,1.2-1.2h26.6c0.7,0,1.2,0.6,1.2,1.2v26.6     C460.5,415.8,459.9,416.3,459.3,416.3z M433.9,413.9H458v-24.1h-24.1V413.9z" transform="matrix(1, 0, 0, 1, 0, 0)"/><path fill="#231F20" d="M471.8,231.4c-0.7,0-1.2-0.6-1.2-1.2V187c0-10.7-3.3-19.2-9.7-25.4c-12.1-11.5-31.4-10.7-31.6-10.7    l-180.7,0c-0.7,0-1.2-0.6-1.2-1.2c0-0.7,0.6-1.2,1.2-1.2h180.6c0.8,0,20.5-0.8,33.3,11.4c6.9,6.6,10.4,15.7,10.4,27.1v43.2    C473,230.8,472.5,231.4,471.8,231.4z" transform="matrix(1, 0, 0, 1, 0, 0)"/><path fill="#231F20" d="M471.8,234c-0.3,0-0.6-0.1-0.9-0.4L448,210.7c-0.5-0.5-0.5-1.3,0-1.7c0.5-0.5,1.3-0.5,1.7,0l22,22l22-22    c0.5-0.5,1.3-0.5,1.7,0c0.5,0.5,0.5,1.3,0,1.7l-22.9,22.9C472.4,233.9,472.1,234,471.8,234z" transform="matrix(1, 0, 0, 1, 0, 0)"/>
</g>
          </g>

          <path id="foreground-overlay" style="fill: #ebeced; opacity: 0.96; pointer-events: none;" d="         M -1000000, -1000000         L 2000000, -1000000         L 2000000, 2000000         L -1000000, 2000000         Z         M 0, 0         L 0, 980         L 1400, 980         L 1400, 0         Z       "/>

          <g id="huds">
            <g is="ee-outlinehud" id="outline-hud"/>
            <g is="ve-viewboxhud" id="view-box-hud" enabled=""/>
            <g is="ee-transformhud" id="transform-hud" enabled="" style="display: none;"/>
            <g is="ee-lineargradienthud" id="linear-gradient-hud" tabindex="-1"/>
            <g is="ee-radialgradienthud" id="radial-gradient-hud" tabindex="-1"/>
            <g is="ee-penseghud" id="pen-seg-hud"/>
            <g is="ee-penhud" id="pen-hud" tabindex="-1"/>
            <g is="ee-rubberbandhud" id="rubber-band-hud" enabled=""/>
            <g is="ee-texthud" id="text-hud" tabindex="-1"/>
          </g>
        </g>
      </svg>