<svg xmlns="http://www.w3.org/2000/svg" id="svg" preserveAspectRatio="none" width="409px" height="266px" viewBox="0 0 408 266">
        <g id="world" transform="matrix(1.2144847143264044, 0, 0, 1.2144847143264044, 0, 0)">
          <rect id="background-overlay" x="0" y="0" width="336" height="235.1999969482422" style="fill: url(#ee-checkboard-pattern);"/>

          <pattern id="ee-checkboard-pattern" viewBox="0 0 10 10" width="10" height="10" patternUnits="userSpaceOnUse" patternTransform="scale(0.8233944873081978)">
            <rect x="0" y="0" width="5" height="5" fill="#d6d6d6"/>
            <rect x="5" y="0" width="5" height="5" fill="white"/>
            <rect x="0" y="5" width="5" height="5" fill="white"/>
            <rect x="5" y="5" width="5" height="5" fill="#d6d6d6"/>
          </pattern>

          <g id="artboards">
            <rect id="matte" x="-1000000" y="-1000000" width="409" height="266" style="fill: rgba(0,0,0,0);"/>
            <g xmlns="http://www.w3.org/2000/svg" id="master-artboard" viewBox="0 0 336 235.2" version="1.1" x="0px" y="0px" style="enable-background:new 0 0 336 235.2;">

<path d="M 0.2 -0.5 H 336.2 V 234.699997 H 0.2 V -0.5 Z" class="st0" style="fill: rgb(255, 255, 255);"/>
<path d="M 101.099998 186.600006 L 70.5 137.800003 L 85.199997 74.599998 L 157.300003 109 L 155.5 141 L 101.099998 186.600006" class="st1" style="fill: none; stroke: rgb(77, 103, 125); stroke-miterlimit: 10; stroke-dasharray: 4;"/>
<path d="M 239.800003 186.600006 L 270.399994 137.800003 L 255.699997 74.599998 L 183.600006 109 L 185.399994 141 L 239.800003 186.600006" class="st1" style="fill: none; stroke: rgb(77, 103, 125); stroke-miterlimit: 10; stroke-dasharray: 4;"/>

<g>
	<path class="st2" d="M103.9,23.1h2.9c0.8,0,1.6,0.1,2.3,0.4c0.7,0.2,1.3,0.6,1.8,1c0.5,0.4,0.9,0.9,1.2,1.5   c0.3,0.6,0.4,1.2,0.4,1.9c0,0.7-0.1,1.3-0.4,1.9c-0.3,0.6-0.7,1.1-1.2,1.5c-0.5,0.4-1.1,0.7-1.8,1c-0.7,0.2-1.5,0.4-2.3,0.4h-2.9   V23.1z M106.9,30.8c0.5,0,0.9-0.1,1.3-0.2c0.4-0.1,0.7-0.3,1-0.6c0.3-0.2,0.5-0.5,0.6-0.9c0.2-0.4,0.2-0.8,0.2-1.2   c0-0.5-0.1-0.9-0.2-1.2c-0.2-0.4-0.4-0.7-0.6-0.9c-0.3-0.2-0.6-0.4-1-0.6c-0.4-0.1-0.8-0.2-1.3-0.2h-0.7v5.8H106.9z" style="fill: rgb(77, 103, 125);"/>
	<path class="st2" d="M116.2,32.6h-2.3v-9.5h2.3V32.6z" style="fill: rgb(77, 103, 125);"/>
	<path class="st2" d="M122.8,23c1.2,0,2.3,0.2,3.1,0.6l-0.3,1.8c-0.8-0.3-1.7-0.5-2.6-0.5c-0.5,0-0.9,0.1-1.3,0.2   c-0.4,0.1-0.7,0.3-1,0.6c-0.3,0.3-0.5,0.6-0.6,1C120,27,120,27.4,120,28c0,1,0.3,1.7,0.8,2.2c0.5,0.5,1.3,0.8,2.3,0.8   c0.2,0,0.4,0,0.6-0.1c0.2,0,0.4-0.1,0.5-0.1v-2.6h2.1v3.9c-0.4,0.2-0.9,0.4-1.6,0.5c-0.6,0.1-1.3,0.2-2,0.2c-0.8,0-1.5-0.1-2.1-0.3   c-0.6-0.2-1.2-0.6-1.6-1c-0.4-0.4-0.8-0.9-1-1.5c-0.2-0.6-0.3-1.2-0.3-1.9c0-0.8,0.1-1.4,0.3-2.1c0.2-0.6,0.6-1.2,1-1.6   c0.4-0.4,1-0.8,1.6-1C121.3,23.1,122,23,122.8,23z" style="fill: rgb(77, 103, 125);"/>
	<path class="st2" d="M130.3,32.6H128v-9.5h2.3V32.6z" style="fill: rgb(77, 103, 125);"/>
	<path class="st2" d="M139,23.1V25h-2.5v7.6h-2.3V25h-2.5v-1.8H139z" style="fill: rgb(77, 103, 125);"/>
	<path class="st2" d="M145.3,30.8h-3.6l-0.6,1.8h-2.4l3.5-9.5h2.6l3.5,9.5h-2.4L145.3,30.8z M142.3,28.9h2.4l-1.2-4L142.3,28.9z" style="fill: rgb(77, 103, 125);"/>
	<path class="st2" d="M151.7,23.1v7.6h3.5v1.8h-5.8v-9.5H151.7z" style="fill: rgb(77, 103, 125);"/>
	<path class="st2" d="M165.8,31.1h-2.2l-1.8-3.8l-0.3,5.3h-2.3l0.7-9.5h2.1l2.7,5.8l2.7-5.8h2.1l0.7,9.5h-2.3l-0.3-5.3L165.8,31.1z" style="fill: rgb(77, 103, 125);"/>
	<path class="st2" d="M177.6,30.8H174l-0.6,1.8H171l3.5-9.5h2.6l3.5,9.5h-2.4L177.6,30.8z M174.6,28.9h2.4l-1.2-4L174.6,28.9z" style="fill: rgb(77, 103, 125);"/>
	<path class="st2" d="M188.8,26.1c0,0.6-0.2,1.2-0.5,1.7c-0.4,0.5-0.9,0.8-1.5,1.1l3.1,3.7h-2.9l-2.6-3.3H184v3.3h-2.3v-9.5h3   c0.6,0,1.1,0.1,1.6,0.2c0.5,0.1,0.9,0.3,1.3,0.6s0.7,0.6,0.9,0.9C188.7,25.2,188.8,25.6,188.8,26.1z M186.6,26.2   c0-0.4-0.2-0.7-0.5-0.9c-0.3-0.2-0.8-0.3-1.4-0.3H184v2.7h0.6c0.6,0,1.1-0.1,1.5-0.4C186.4,27,186.6,26.6,186.6,26.2z" style="fill: rgb(77, 103, 125);"/>
	<path class="st2" d="M190.8,32.6v-9.5h2.3v4.5l3-4.5h2.6l-3.2,4.7l3.4,4.8h-2.8l-3-4.6v4.6H190.8z" style="fill: rgb(77, 103, 125);"/>
	<path class="st2" d="M199.9,23.1h5.9V25h-3.6v1.9h3.4v1.8h-3.4v2h3.6v1.8h-5.9V23.1z" style="fill: rgb(77, 103, 125);"/>
	<path class="st2" d="M214.1,23.1V25h-2.5v7.6h-2.3V25h-2.5v-1.8H214.1z" style="fill: rgb(77, 103, 125);"/>
	<path class="st2" d="M217.7,32.6h-2.3v-9.5h2.3V32.6z" style="fill: rgb(77, 103, 125);"/>
	<path class="st2" d="M225.7,32.6l-3.9-5.6v5.6h-2.2v-9.5h2.2l3.9,5.6v-5.6h2.2v9.5H225.7z" style="fill: rgb(77, 103, 125);"/>
	<path class="st2" d="M234.6,23c1.2,0,2.3,0.2,3.1,0.6l-0.3,1.8c-0.8-0.3-1.7-0.5-2.6-0.5c-0.5,0-0.9,0.1-1.3,0.2   c-0.4,0.1-0.7,0.3-1,0.6c-0.3,0.3-0.5,0.6-0.6,1c-0.1,0.4-0.2,0.9-0.2,1.4c0,1,0.3,1.7,0.8,2.2c0.5,0.5,1.3,0.8,2.3,0.8   c0.2,0,0.4,0,0.6-0.1c0.2,0,0.4-0.1,0.5-0.1v-2.6h2.1v3.9c-0.4,0.2-0.9,0.4-1.6,0.5c-0.6,0.1-1.3,0.2-2,0.2c-0.8,0-1.5-0.1-2.1-0.3   c-0.6-0.2-1.2-0.6-1.6-1c-0.4-0.4-0.8-0.9-1-1.5c-0.2-0.6-0.3-1.2-0.3-1.9c0-0.8,0.1-1.4,0.3-2.1c0.2-0.6,0.6-1.2,1-1.6   c0.4-0.4,1-0.8,1.6-1C233,23.1,233.8,23,234.6,23z" style="fill: rgb(77, 103, 125);"/>
</g>
<g>
	<g>
		<g>
			<path class="st3" d="M152,164c-6.4-2.4-12.5-6.2-17.6-11.3c-0.4-0.4-0.8-0.8-1.2-1.3" style="fill: rgb(255, 241, 0);"/>
		</g>
	</g>
	<g>
		<g>
			<path class="st3" d="M207.4,151.1c-0.4,0.4-0.8,0.9-1.2,1.3c-5.2,5.2-11.2,9-17.6,11.5" style="fill: rgb(255, 241, 0);"/>
		</g>
	</g>
	<g>
		<g>
			<path class="st2" d="M134.4,152.7c5.2,5.1,11.2,8.9,17.6,11.3c0.8,0.3,1.6,0.6,2.4,0.9l1,0.1l3.5,0l0.1,16.4l-5.1,0l-0.4,43.4     h33.9l-0.6-43.5l-5.1,0l-0.1-16.2l4.5-0.3c0.8-0.3,1.6-0.6,2.4-0.9c6.4-2.5,12.4-6.3,17.6-11.5c0.4-0.4,0.8-0.8,1.2-1.3     c18.1-19.6,18-49.8-0.3-69.2c-0.4-0.4-0.8-0.9-1.2-1.3c-19.9-19.7-52-19.6-71.8,0.3c-0.4,0.4-0.8,0.8-1.2,1.3     c-18.1,19.5-18,49.8,0.3,69.2C133.6,151.8,134,152.2,134.4,152.7z M148.2,94.8c12-12.1,31.6-12.2,43.8-0.2     c12.1,12,12.2,31.7,0.2,43.8c-12,12.1-31.7,12.2-43.8,0.2C136.2,126.6,136.1,106.9,148.2,94.8z" style="fill: rgb(77, 103, 125);"/>
		</g>
	</g>
	<g>
		<g>
			<path class="st4" d="M200.3,146.5c16.5-16.7,16.4-43.6-0.2-60.1C183.4,69.9,156.5,70,140,86.7c-16.5,16.7-16.4,43.6,0.2,60.1     C156.9,163.3,183.8,163.2,200.3,146.5z" style="fill: rgb(128, 188, 239);"/>
		</g>
	</g>
	<g class="st5" style="opacity: 0.2;">
		<g>
			<path class="st0" d="M139.3,116.6c-2.9,0-5.2-2.3-5.2-5.2c0-9.3,6.6-27.8,32-31.3c2.8-0.4,5.5,1.6,5.9,4.4     c0.4,2.8-1.6,5.5-4.4,5.9c-22.9,3.1-23.1,20.2-23.1,21C144.5,114.3,142.2,116.6,139.3,116.6z" style="fill: rgb(255, 255, 255);"/>
		</g>
	</g>
</g>
<g>
	<path d="M 273.499994 77 A 18.6 18.6 0 0 1 254.899994 95.6 A 18.6 18.6 0 0 1 236.299994 77 A 18.6 18.6 0 0 1 254.899994 58.4 A 18.6 18.6 0 0 1 273.499994 77 Z" class="st4" style="fill: rgb(128, 188, 239);"/>
</g>
<g>
	<path d="M 284.200006 135.5 A 18.6 18.6 0 0 1 265.600006 154.1 A 18.6 18.6 0 0 1 247.000006 135.5 A 18.6 18.6 0 0 1 265.600006 116.9 A 18.6 18.6 0 0 1 284.200006 135.5 Z" class="st4" style="fill: rgb(128, 188, 239);"/>
</g>
<g>
	<path d="M 254.900003 186.5 A 18.6 18.6 0 0 1 236.300003 205.1 A 18.6 18.6 0 0 1 217.700003 186.5 A 18.6 18.6 0 0 1 236.300003 167.9 A 18.6 18.6 0 0 1 254.900003 186.5 Z" class="st4" style="fill: rgb(128, 188, 239);"/>
</g>
<g>
	<path d="M 103.6 77 A 18.6 18.6 0 0 1 85 95.6 A 18.6 18.6 0 0 1 66.4 77 A 18.6 18.6 0 0 1 85 58.4 A 18.6 18.6 0 0 1 103.6 77 Z" class="st4" style="fill: rgb(128, 188, 239);"/>
</g>
<g>
	<path d="M 90.900003 135.5 A 18.6 18.6 0 0 1 72.300003 154.1 A 18.6 18.6 0 0 1 53.700003 135.5 A 18.6 18.6 0 0 1 72.300003 116.9 A 18.6 18.6 0 0 1 90.900003 135.5 Z" class="st4" style="fill: rgb(128, 188, 239);"/>
</g>
<g>
	<path d="M 122.199999 186.5 A 18.6 18.6 0 0 1 103.599998 205.1 A 18.6 18.6 0 0 1 84.999998 186.5 A 18.6 18.6 0 0 1 103.599998 167.9 A 18.6 18.6 0 0 1 122.199999 186.5 Z" class="st4" style="fill: rgb(128, 188, 239);"/>
</g>
<g>
	<path d="M 265.6000061035156 149.89999389648438 L 265.6000061035156 149.89999389648438 L 265.6000061035156 149.89999389648438 L 265.6000061035156 135.5 L 280 135.5 L 280 135.5 L 265.6000061035156 135.5 L 265.6000061035156 121.19999694824219 L 265.6000061035156 121.19999694824219 L 265.6000061035156 135.5 L 251.1999969482422 135.5 L 251.1999969482422 135.5 L 265.6000061035156 135.5 Z" class="st6" style="fill: rgb(0, 173, 238);"/>
</g>
<g>
	<path class="st0" d="M265.6,121.2c-7.9,0-14.4,6.4-14.4,14.4v0h14.4V121.2z" style="fill: rgb(255, 255, 255);"/>
</g>
<g>
	<path class="st7" d="M265.6,121.2v14.4H280v0C280,127.6,273.5,121.2,265.6,121.2z" style="fill: rgb(243, 110, 101);"/>
</g>
<g>
	<path class="st8" d="M265.6,149.9l0-14.4h-14.4C251.2,143.5,257.6,149.9,265.6,149.9z" style="fill: rgb(160, 211, 219);"/>
</g>
<g>
	<path class="st2" d="M265.6,149.9c7.9,0,14.4-6.4,14.4-14.4h-14.4L265.6,149.9z" style="fill: rgb(77, 103, 125);"/>
</g>
<g class="st9" style="opacity: 0.5;">
	<path d="M 274.300006 135.5 A 8.7 8.7 0 0 1 265.600006 144.2 A 8.7 8.7 0 0 1 256.900006 135.5 A 8.7 8.7 0 0 1 265.600006 126.8 A 8.7 8.7 0 0 1 274.300006 135.5 Z" class="st0" style="fill: rgb(255, 255, 255);"/>
</g>
<g>
	<path d="M 103.0999984741211 200.60000610351562 L 103.0999984741211 200.60000610351562 L 103.0999984741211 200.60000610351562 L 103.0999984741211 186.60000610351562 L 117.0999984741211 186.60000610351562 L 117.0999984741211 186.60000610351562 L 103.0999984741211 186.60000610351562 L 103.0999984741211 172.60000610351562 L 103.0999984741211 172.60000610351562 L 103.0999984741211 186.60000610351562 L 89.0999984741211 186.60000610351562 L 89.0999984741211 186.60000610351562 L 103.0999984741211 186.60000610351562 Z" class="st6" style="fill: rgb(0, 173, 238);"/>
</g>
<g>
	<path class="st2" d="M103.1,172.6c-7.7,0-14,6.3-14,14l0,0h14V172.6z" style="fill: rgb(77, 103, 125);"/>
</g>
<g>
	<path class="st0" d="M104.6,171.2v14h14v0C118.6,177.4,112.3,171.2,104.6,171.2z" style="fill: rgb(255, 255, 255);"/>
</g>
<g>
	<path class="st7" d="M103.1,200.6l0-14h-14C89.1,194.3,95.4,200.6,103.1,200.6z" style="fill: rgb(243, 110, 101);"/>
</g>
<g>
	<path class="st8" d="M103.1,200.6c7.7,0,14-6.3,14-14l-14,0V200.6z" style="fill: rgb(160, 211, 219);"/>
</g>
<g>
	<g>
		<g>
			<g>
				<g>
					<g>
						<g>
							<path d="M 71.199997 62.799999 H 71.799997 V 63.099999 H 71.199997 V 62.799999 Z" class="st2" style="fill: rgb(77, 103, 125);"/>
						</g>
					</g>
				</g>
			</g>
		</g>
		<g>
			<g>
				<g>
					<g>
						<g>
							<path class="st2" d="M73.1,63.1v-0.3l1.2,0v0.3L73.1,63.1z M75.6,63.1v-0.3h1.2v0.3L75.6,63.1z M78.1,63.1v-0.3h1.2v0.3H78.1         z M80.5,63.1v-0.3h1.2v0.3H80.5z M83,63.1v-0.3l1.2,0v0.3L83,63.1z M85.5,63.1v-0.3l1.2,0v0.3H85.5z M88,63.1v-0.3h1.2v0.3         L88,63.1z M90.5,63.1v-0.3h1.2v0.3H90.5z M93,63.1v-0.3l1.2,0v0.3H93z M95.5,63.1v-0.3l1.2,0v0.3L95.5,63.1z M98,63.1v-0.3         h1.2v0.3L98,63.1z" style="fill: rgb(77, 103, 125);"/>
						</g>
					</g>
				</g>
			</g>
		</g>
		<g>
			<g>
				<g>
					<g>
						<g>
							<path d="M 100.5 62.700001 H 101.1 V 63.000001 H 100.5 V 62.700001 Z" class="st2" style="fill: rgb(77, 103, 125);"/>
						</g>
					</g>
				</g>
			</g>
		</g>
	</g>
	<g>
		<g>
			<g>
				<g>
					<g>
						<g>
							<path d="M 71.199997 72.099998 H 71.799997 V 72.399998 H 71.199997 V 72.099998 Z" class="st2" style="fill: rgb(77, 103, 125);"/>
						</g>
					</g>
				</g>
			</g>
		</g>
		<g>
			<g>
				<g>
					<g>
						<g>
							<path class="st2" d="M73.1,72.4v-0.3l1.2,0v0.3L73.1,72.4z M75.6,72.4v-0.3l1.2,0v0.3L75.6,72.4z M78.1,72.4v-0.3l1.2,0v0.3         L78.1,72.4z M80.5,72.4v-0.3l1.2,0v0.3L80.5,72.4z M83,72.4v-0.3h1.2v0.3H83z M85.5,72.4v-0.3l1.2,0v0.3L85.5,72.4z M88,72.4         v-0.3l1.2,0v0.3L88,72.4z M90.5,72.4V72l1.2,0v0.3L90.5,72.4z M93,72.4V72h1.2v0.3H93z M95.5,72.4V72l1.2,0v0.3L95.5,72.4z          M98,72.4V72l1.2,0v0.3L98,72.4z" style="fill: rgb(77, 103, 125);"/>
						</g>
					</g>
				</g>
			</g>
		</g>
		<g>
			<g>
				<g>
					<g>
						<g>
							<path d="M 100.5 72 H 101.1 V 72.3 H 100.5 V 72 Z" class="st2" style="fill: rgb(77, 103, 125);"/>
						</g>
					</g>
				</g>
			</g>
		</g>
	</g>
	<g>
		<g>
			<g>
				<g>
					<g>
						<g>
							<path d="M 71.199997 81.599998 H 71.799997 V 81.899998 H 71.199997 V 81.599998 Z" class="st2" style="fill: rgb(77, 103, 125);"/>
						</g>
					</g>
				</g>
			</g>
		</g>
		<g>
			<g>
				<g>
					<g>
						<g>
							<path class="st2" d="M73.1,81.9v-0.3l1.2,0v0.3H73.1z M75.6,81.9v-0.3l1.2,0v0.3H75.6z M78.1,81.9v-0.3h1.2v0.3L78.1,81.9z          M80.5,81.9v-0.3h1.2v0.3L80.5,81.9z M83,81.9v-0.3h1.2v0.3L83,81.9z M85.5,81.9v-0.3l1.2,0v0.3H85.5z M88,81.9v-0.3l1.2,0         v0.3H88z M90.5,81.9v-0.3l1.2,0v0.3L90.5,81.9z M93,81.9v-0.3h1.2v0.3L93,81.9z M95.5,81.9v-0.3h1.2v0.3L95.5,81.9z M98,81.9         v-0.3l1.2,0v0.3H98z" style="fill: rgb(77, 103, 125);"/>
						</g>
					</g>
				</g>
			</g>
		</g>
		<g>
			<g>
				<g>
					<g>
						<g>
							<path d="M 100.5 81.599998 H 101.1 V 81.899998 H 100.5 V 81.599998 Z" class="st2" style="fill: rgb(77, 103, 125);"/>
						</g>
					</g>
				</g>
			</g>
		</g>
	</g>
	<g>
		<g>
			<g>
				<g>
					<path class="st2" d="M81,85.2l-0.1-0.6c-0.2-2.1-0.4-5-0.6-7.9c-0.1-2.1-0.2-4.1-0.4-5.7c-0.6,1.5-1.3,3.7-2.1,5.8       c-0.9,2.5-1.8,5-2.4,6.5l-0.4-0.1c0.6-1.5,1.5-4.1,2.4-6.5c0.9-2.5,1.8-5,2.4-6.6l0.3-0.7l0.1,0.8c0.2,1.7,0.3,4,0.4,6.5       c0.1,2.5,0.3,5.2,0.5,7.2l3.7-6.9l1.3,5.3l2.3-10.3l1.3,6c1.4-2.9,2.8-6.1,4.6-9.9l0.1-0.2l2.2,1.8l4.4-7.2l0.3,0.2l-4.6,7.6       l-2.1-1.8c-1.8,4-3.3,7.2-4.7,10.2l-0.2,0.5l-1.2-5.4l-2.3,10.2l-1.4-6L81,85.2z" style="fill: rgb(77, 103, 125);"/>
				</g>
			</g>
		</g>
	</g>
	<g>
		<g>
			<g>
				<g>
					<path class="st2" d="M84.1,81.4" style="fill: rgb(77, 103, 125);"/>
				</g>
			</g>
		</g>
	</g>
	<g>
		<g>
			<g>
				<g>
					<g>
						<path class="st2" d="M82.3,87.3c-4.7,0-8.5-3.8-8.5-8.5V57.9h-1.3v20.9c0,5.4,4.4,9.7,9.8,9.7h20.1v-1.3H82.3z" style="fill: rgb(77, 103, 125);"/>
					</g>
				</g>
			</g>
		</g>
	</g>
	<g>
		<g>
			<g>
				<g>
					<g>
						<path d="M 79 58.099998 H 79.3 V 90.299999 H 79 V 58.099998 Z" class="st2" style="fill: rgb(77, 103, 125);"/>
					</g>
				</g>
			</g>
		</g>
	</g>
	<g>
		<g>
			<g>
				<g>
					<g>
						<path d="M 88.300003 58.099998 H 88.600003 V 90.299999 H 88.300003 V 58.099998 Z" class="st2" style="fill: rgb(77, 103, 125);"/>
					</g>
				</g>
			</g>
		</g>
	</g>
	<g>
		<g>
			<g>
				<g>
					<g>
						<path d="M 97.800003 58.099998 H 98.100003 V 90.299999 H 97.800003 V 58.099998 Z" class="st2" style="fill: rgb(77, 103, 125);"/>
					</g>
				</g>
			</g>
		</g>
	</g>
</g>
<g>
	<defs>
		<path d="M 268.8999938964844 198.10000610351562 L 228.1999969482422 198.10000610351562 L 228.1999969482422 181.89999389648438 L 240.10000610351562 172.3000030517578 L 244.10000610351562 192.3000030517578 L 252.10000610351562 173.3000030517578 L 259.8999938964844 187.60000610351562 L 268.8999938964844 185.1999969482422 Z" id="SVGID_1_"/>
	</defs>
	<clipPath id="SVGID_2_">
		<use style="overflow:visible;" href="#SVGID_1_"/>
	</clipPath>
	<g class="st10" style="clip-path: url(&quot;#SVGID_2_&quot;);">
		<g>
			
				<path d="M 237.300003 117.400002 H 238.400003 V 212.300003 H 237.300003 V 117.400002 Z" transform="matrix(0.7062 0.7081 -0.7081 0.7062 186.5719 -119.9287)" class="st7" style="fill: rgb(243, 110, 101);"/>
		</g>
		<g>
			
				<path d="M 239 119.199997 H 240.1 V 214.099998 H 239 V 119.199997 Z" transform="matrix(0.7072 0.7071 -0.7071 0.7072 187.9282 -120.5836)" class="st7" style="fill: rgb(243, 110, 101);"/>
		</g>
		<g>
			
				<path d="M 240.800003 120.900002 H 241.900003 V 215.800003 H 240.800003 V 120.900002 Z" transform="matrix(0.7057 0.7085 -0.7085 0.7057 190.2633 -121.4129)" class="st7" style="fill: rgb(243, 110, 101);"/>
		</g>
		<g>
			
				<path d="M 242.5 122.699997 H 243.6 V 217.599998 H 242.5 V 122.699997 Z" transform="matrix(0.7066 0.7076 -0.7076 0.7066 191.652 -122.0753)" class="st7" style="fill: rgb(243, 110, 101);"/>
		</g>
		<g>
			
				<path d="M 244.300003 124.400002 H 245.400003 V 219.300003 H 244.300003 V 124.400002 Z" transform="matrix(0.7085 0.7057 -0.7057 0.7085 192.6389 -122.6682)" class="st7" style="fill: rgb(243, 110, 101);"/>
		</g>
		<g>
			
				<path d="M 246 126.199997 H 247.1 V 221.099998 H 246 V 126.199997 Z" transform="matrix(0.7052 0.709 -0.709 0.7052 195.7601 -123.6308)" class="st7" style="fill: rgb(243, 110, 101);"/>
		</g>
		<g>
			
				<path d="M 247.800003 127.900002 H 248.900003 V 222.800003 H 247.800003 V 127.900002 Z" transform="matrix(0.7076 0.7066 -0.7066 0.7076 196.521 -124.1881)" class="st7" style="fill: rgb(243, 110, 101);"/>
		</g>
		<g>
			
				<path d="M 249.5 129.699997 H 250.6 V 224.599998 H 249.5 V 129.699997 Z" transform="matrix(0.7067 0.7075 -0.7075 0.7067 198.6542 -124.9792)" class="st7" style="fill: rgb(243, 110, 101);"/>
		</g>
		<g>
			
				<path d="M 251.300003 131.399994 H 252.400003 V 226.299995 H 251.300003 V 131.399994 Z" transform="matrix(0.7071 0.7071 -0.7071 0.7071 200.2316 -125.6753)" class="st7" style="fill: rgb(243, 110, 101);"/>
		</g>
		<g>
			
				<path d="M 253 133.199997 H 254.1 V 228.099998 H 253 V 133.199997 Z" transform="matrix(0.7071 0.7071 -0.7071 0.7071 201.987 -126.4024)" class="st7" style="fill: rgb(243, 110, 101);"/>
		</g>
		<g>
			<path d="M 269 169.5 L 289.20001220703125 149.1999969482422 L 288.5 148.5 L 267.5 169.5 Z" class="st7" style="fill: rgb(243, 110, 101);"/>
			<path d="M 266 171 L 221.39999389648438 215.5 L 222.1999969482422 216.3000030517578 L 266 172.5 Z" class="st7" style="fill: rgb(243, 110, 101);"/>
		</g>
		<g>
			<path d="M 266 174.5 L 223.1999969482422 217.3000030517578 L 223.89999389648438 218 L 266 176 Z" class="st7" style="fill: rgb(243, 110, 101);"/>
			<path d="M 272.5 169.5 L 291 151 L 290.20001220703125 150.1999969482422 L 271 169.5 Z" class="st7" style="fill: rgb(243, 110, 101);"/>
		</g>
		<g>
			<path d="M 276 169.5 L 292.79998779296875 152.6999969482422 L 292 152 L 274.5 169.5 Z" class="st7" style="fill: rgb(243, 110, 101);"/>
			<path d="M 266 178 L 224.89999389648438 219 L 225.6999969482422 219.8000030517578 L 266 179.5 Z" class="st7" style="fill: rgb(243, 110, 101);"/>
		</g>
		<g>
			<path d="M 279.5 169.5 L 294.5 154.5 L 293.79998779296875 153.6999969482422 L 278 169.5 Z" class="st7" style="fill: rgb(243, 110, 101);"/>
			<path d="M 266 181.5 L 226.6999969482422 220.8000030517578 L 227.39999389648438 221.5 L 266 183 Z" class="st7" style="fill: rgb(243, 110, 101);"/>
		</g>
		<g>
			<path d="M 283 169.5 L 296.29998779296875 156.1999969482422 L 295.5 155.5 L 281.5 169.5 Z" class="st7" style="fill: rgb(243, 110, 101);"/>
			<path d="M 266 185 L 228.39999389648438 222.60000610351562 L 229.1999969482422 223.3000030517578 L 266 186.5 Z" class="st7" style="fill: rgb(243, 110, 101);"/>
		</g>
		<g>
			<path d="M 283 173 L 298 158 L 297.29998779296875 157.1999969482422 L 283 171.5 Z" class="st7" style="fill: rgb(243, 110, 101);"/>
			<path d="M 266 188.5 L 230.1999969482422 224.3000030517578 L 230.89999389648438 225.10000610351562 L 266 190 Z" class="st7" style="fill: rgb(243, 110, 101);"/>
		</g>
		<g>
			<path d="M 283 176.5 L 299.79998779296875 159.6999969482422 L 299 159 L 283 175 Z" class="st7" style="fill: rgb(243, 110, 101);"/>
			<path d="M 266 192 L 231.89999389648438 226.10000610351562 L 232.6999969482422 226.8000030517578 L 266 193.5 Z" class="st7" style="fill: rgb(243, 110, 101);"/>
		</g>
		<g>
			<path d="M 283 180 L 301.5 161.5 L 300.79998779296875 160.6999969482422 L 283 178.5 Z" class="st7" style="fill: rgb(243, 110, 101);"/>
			<path d="M 266 195.5 L 233.6999969482422 227.8000030517578 L 234.5 228.60000610351562 L 266 197 Z" class="st7" style="fill: rgb(243, 110, 101);"/>
		</g>
		<g>
			<path d="M 283 183.5 L 303.29998779296875 163.3000030517578 L 302.5 162.5 L 283 182 Z" class="st7" style="fill: rgb(243, 110, 101);"/>
			<path d="M 266 199 L 235.5 229.60000610351562 L 236.1999969482422 230.3000030517578 L 266 200.5 Z" class="st7" style="fill: rgb(243, 110, 101);"/>
		</g>
		<g>
			<path d="M 283 187 L 305 165 L 304.29998779296875 164.3000030517578 L 283 185.5 Z" class="st7" style="fill: rgb(243, 110, 101);"/>
			<path d="M 266 203 L 266 202.5 L 237.1999969482422 231.3000030517578 L 238 232.10000610351562 L 267 203 Z" class="st7" style="fill: rgb(243, 110, 101);"/>
		</g>
		<g>
			<path d="M 283 190.5 L 306.79998779296875 166.8000030517578 L 306 166 L 283 189.10000610351562 Z" class="st7" style="fill: rgb(243, 110, 101);"/>
			<path d="M 269.1000061035156 203 L 239 233.10000610351562 L 239.6999969482422 233.8000030517578 L 270.5 203 Z" class="st7" style="fill: rgb(243, 110, 101);"/>
		</g>
		<g>
			<path d="M 283 194.10000610351562 L 308.5 168.5 L 307.79998779296875 167.8000030517578 L 283 192.60000610351562 Z" class="st7" style="fill: rgb(243, 110, 101);"/>
			<path d="M 272.6000061035156 203 L 240.6999969482422 234.8000030517578 L 241.5 235.60000610351562 L 274.1000061035156 203 Z" class="st7" style="fill: rgb(243, 110, 101);"/>
		</g>
		<g>
			<path d="M 276.1000061035156 203 L 242.5 236.60000610351562 L 243.1999969482422 237.3000030517578 L 277.6000061035156 203 Z" class="st7" style="fill: rgb(243, 110, 101);"/>
			<path d="M 283 197.60000610351562 L 310.29998779296875 170.3000030517578 L 309.6000061035156 169.5 L 283 196.10000610351562 Z" class="st7" style="fill: rgb(243, 110, 101);"/>
		</g>
	</g>
</g>
<g>
	<g>
		
			<path d="M 228.199997 181.199997 H 228.799997 V 181.999997 H 228.199997 V 181.199997 Z" transform="matrix(0.6252 0.7805 -0.7805 0.6252 227.4073 -110.244)" class="st2" style="fill: rgb(77, 103, 125);"/>
	</g>
	<g>
		<path class="st2" d="M230.2,180.7l-0.4-0.5l1.2-1l0.4,0.5L230.2,180.7z M232.6,178.8l-0.4-0.5l1.2-1l0.4,0.5L232.6,178.8z     M234.9,176.8l-0.4-0.5l1.2-1l0.4,0.5L234.9,176.8z M237.3,174.9l-0.4-0.5l1.2-1l0.4,0.5L237.3,174.9z" style="fill: rgb(77, 103, 125);"/>
	</g>
	<g>
		<path d="M 240 173.10000610351562 L 239.89999389648438 172.8000030517578 L 239.6999969482422 173 L 239.3000030517578 172.5 L 240.3000030517578 171.6999969482422 L 240.60000610351562 173 Z" class="st2" style="fill: rgb(77, 103, 125);"/>
	</g>
	<g>
		<path class="st2" d="M243.4,190.2l-0.3-1.4l0.6-0.1l0.3,1.4L243.4,190.2z M242.8,187.4l-0.3-1.4l0.6-0.1l0.3,1.4L242.8,187.4z     M242.2,184.5l-0.3-1.4l0.6-0.1l0.3,1.4L242.2,184.5z M241.7,181.6l-0.3-1.4l0.6-0.1l0.3,1.4L241.7,181.6z M241.1,178.8l-0.3-1.4    l0.6-0.1l0.3,1.4L241.1,178.8z M240.5,175.9l-0.3-1.4l0.6-0.1l0.3,1.4L240.5,175.9z" style="fill: rgb(77, 103, 125);"/>
	</g>
	<g>
		<path d="M 244 193.3000030517578 L 243.6999969482422 191.60000610351562 L 244.10000610351562 191.5 L 244.10000610351562 191.5 L 244.1999969482422 191.5 L 244.3000030517578 191.5 L 244.3000030517578 191.60000610351562 L 244.6999969482422 191.8000030517578 Z" class="st2" style="fill: rgb(77, 103, 125);"/>
	</g>
	<g>
		<path class="st2" d="M245.3,190.4l-0.6-0.3l0.6-1.3l0.6,0.3L245.3,190.4z M246.5,187.8l-0.6-0.3l0.6-1.3l0.6,0.3L246.5,187.8z     M247.7,185.2l-0.6-0.3l0.6-1.3l0.6,0.3L247.7,185.2z M249,182.5l-0.6-0.3l0.6-1.3l0.6,0.3L249,182.5z M250.2,179.9l-0.6-0.3    l0.6-1.3l0.6,0.3L250.2,179.9z M251.4,177.3l-0.6-0.3l0.6-1.3l0.6,0.3L251.4,177.3z" style="fill: rgb(77, 103, 125);"/>
	</g>
	<g>
		<path d="M 252.60000610351562 174.60000610351562 L 252 174.39999389648438 L 252.60000610351562 173.10000610351562 L 253.3000030517578 174.3000030517578 L 252.6999969482422 174.60000610351562 L 252.6999969482422 174.5 Z" class="st2" style="fill: rgb(77, 103, 125);"/>
	</g>
	<g>
		<path class="st2" d="M258.6,185.6l-0.7-1.4l0.5-0.3l0.7,1.4L258.6,185.6z M257.1,182.9l-0.7-1.4l0.5-0.3l0.7,1.4L257.1,182.9z     M255.6,180.1l-0.7-1.4l0.5-0.3l0.7,1.4L255.6,180.1z M254.2,177.4l-0.7-1.4l0.5-0.3l0.7,1.4L254.2,177.4z" style="fill: rgb(77, 103, 125);"/>
	</g>
	<g>
		<path d="M 259.79998779296875 187.89999389648438 L 259.29998779296875 187 L 259.79998779296875 186.6999969482422 L 260.1000061035156 187.1999969482422 L 260.6000061035156 187.10000610351562 L 260.79998779296875 187.6999969482422 Z" class="st2" style="fill: rgb(77, 103, 125);"/>
	</g>
</g>
<g>
	<g>
		<g>
			<g>
				<g>
					<path d="M 245.699997 56.900002 H 276.799997 V 87.600002 H 245.699997 V 56.900002 Z" class="st11" style="fill: rgb(242, 232, 250);"/>
				</g>
			</g>
		</g>
		<g>
			<g>
				<g>
					<path d="M 245.699997 54.700001 H 276.799997 V 58.100001 H 245.699997 V 54.700001 Z" class="st12" style="fill: rgb(48, 57, 71);"/>
				</g>
			</g>
		</g>
		<g>
			<g>
				<g>
					<path d="M 249.499997 56.400002 A 0.8 0.8 0 0 1 248.699997 57.200002 A 0.8 0.8 0 0 1 247.899997 56.400002 A 0.8 0.8 0 0 1 248.699997 55.600002 A 0.8 0.8 0 0 1 249.499997 56.400002 Z" class="st13" style="fill: rgb(231, 230, 231);"/>
				</g>
			</g>
		</g>
		<g>
			<g>
				<g>
					<path d="M 251.999997 56.400002 A 0.8 0.8 0 0 1 251.199997 57.200002 A 0.8 0.8 0 0 1 250.399997 56.400002 A 0.8 0.8 0 0 1 251.199997 55.600002 A 0.8 0.8 0 0 1 251.999997 56.400002 Z" class="st13" style="fill: rgb(231, 230, 231);"/>
				</g>
			</g>
		</g>
		<g>
			<g>
				<g>
					<path d="M 254.600003 56.400002 A 0.8 0.8 0 0 1 253.800003 57.200002 A 0.8 0.8 0 0 1 253.000003 56.400002 A 0.8 0.8 0 0 1 253.800003 55.600002 A 0.8 0.8 0 0 1 254.600003 56.400002 Z" class="st13" style="fill: rgb(231, 230, 231);"/>
				</g>
			</g>
		</g>
	</g>
	<g>
		<g>
			<g>
				<g>
					<path d="M 249.5 79.599998 H 260.1 V 81.399998 H 249.5 V 79.599998 Z" class="st14" style="fill: rgb(201, 229, 238);"/>
				</g>
			</g>
		</g>
		<g>
			<g>
				<g>
					<path d="M 249.5 82.199997 H 272.5 V 83.199997 H 249.5 V 82.199997 Z" class="st14" style="fill: rgb(201, 229, 238);"/>
				</g>
			</g>
		</g>
		<g>
			<g>
				<g>
					<path d="M 249.5 84 H 270.700001 V 85 H 249.5 V 84 Z" class="st14" style="fill: rgb(201, 229, 238);"/>
				</g>
			</g>
		</g>
		<g>
			<g>
				<g>
					<path d="M 249.5 63.599998 H 270.700001 V 65.399998 H 249.5 V 63.599998 Z" class="st14" style="fill: rgb(201, 229, 238);"/>
				</g>
			</g>
		</g>
		<g>
			<g>
				<g>
					<path d="M 249.5 66.199997 H 272.5 V 67.199997 H 249.5 V 66.199997 Z" class="st14" style="fill: rgb(201, 229, 238);"/>
				</g>
			</g>
		</g>
		<g>
			<g>
				<g>
					<path d="M 249.5 68 H 268.200001 V 69 H 249.5 V 68 Z" class="st14" style="fill: rgb(201, 229, 238);"/>
				</g>
			</g>
		</g>
		<g>
			<g>
				<g>
					<path d="M 249.5 60.900002 H 272.5 V 61.900002 H 249.5 V 60.900002 Z" class="st14" style="fill: rgb(201, 229, 238);"/>
				</g>
			</g>
		</g>
	</g>
	<g>
		<path d="M 249.300003 70.900002 H 256.000003 V 78.300002 H 249.300003 V 70.900002 Z" class="st4" style="fill: rgb(128, 188, 239);"/>
	</g>
	<g>
		<path d="M 257.5 70.900002 H 264.2 V 78.300002 H 257.5 V 70.900002 Z" class="st4" style="fill: rgb(128, 188, 239);"/>
	</g>
	<g>
		<path d="M 265.700012 70.900002 H 272.400012 V 78.300002 H 265.700012 V 70.900002 Z" class="st4" style="fill: rgb(128, 188, 239);"/>
	</g>
</g>
<g>
	<g>
		<g>
			<g>
				<g>
					<path d="M 49.400002 127.300003 H 80.500002 V 158.000004 H 49.400002 V 127.300003 Z" class="st11" style="fill: rgb(242, 232, 250);"/>
				</g>
			</g>
		</g>
		<g>
			<g>
				<g>
					<path d="M 49.400002 125.199997 H 80.500002 V 128.599997 H 49.400002 V 125.199997 Z" class="st12" style="fill: rgb(48, 57, 71);"/>
				</g>
			</g>
		</g>
		<g>
			<g>
				<g>
					<path d="M 53.200002 126.900002 A 0.8 0.8 0 0 1 52.400002 127.700002 A 0.8 0.8 0 0 1 51.600002 126.900002 A 0.8 0.8 0 0 1 52.400002 126.100002 A 0.8 0.8 0 0 1 53.200002 126.900002 Z" class="st13" style="fill: rgb(231, 230, 231);"/>
				</g>
			</g>
		</g>
		<g>
			<g>
				<g>
					<path d="M 55.8 126.900002 A 0.8 0.8 0 0 1 55 127.700002 A 0.8 0.8 0 0 1 54.2 126.900002 A 0.8 0.8 0 0 1 55 126.100002 A 0.8 0.8 0 0 1 55.8 126.900002 Z" class="st13" style="fill: rgb(231, 230, 231);"/>
				</g>
			</g>
		</g>
		<g>
			<g>
				<g>
					<path d="M 58.3 126.900002 A 0.8 0.8 0 0 1 57.5 127.700002 A 0.8 0.8 0 0 1 56.7 126.900002 A 0.8 0.8 0 0 1 57.5 126.100002 A 0.8 0.8 0 0 1 58.3 126.900002 Z" class="st13" style="fill: rgb(231, 230, 231);"/>
				</g>
			</g>
		</g>
	</g>
	<g>
		<g>
			<g>
				<g>
					<path d="M 53.200001 150.100006 H 63.800001 V 151.900006 H 53.200001 V 150.100006 Z" class="st14" style="fill: rgb(201, 229, 238);"/>
				</g>
			</g>
		</g>
		<g>
			<g>
				<g>
					<path d="M 53.200001 152.600006 H 76.200001 V 153.600006 H 53.200001 V 152.600006 Z" class="st14" style="fill: rgb(201, 229, 238);"/>
				</g>
			</g>
		</g>
		<g>
			<g>
				<g>
					<path d="M 53.200001 154.5 H 74.400002 V 155.5 H 53.200001 V 154.5 Z" class="st14" style="fill: rgb(201, 229, 238);"/>
				</g>
			</g>
		</g>
		<g>
			<g>
				<g>
					<path d="M 53.200001 134.100006 H 74.400002 V 135.900006 H 53.200001 V 134.100006 Z" class="st14" style="fill: rgb(201, 229, 238);"/>
				</g>
			</g>
		</g>
		<g>
			<g>
				<g>
					<path d="M 53.200001 136.699997 H 76.200001 V 137.699997 H 53.200001 V 136.699997 Z" class="st14" style="fill: rgb(201, 229, 238);"/>
				</g>
			</g>
		</g>
		<g>
			<g>
				<g>
					<path d="M 53.200001 138.5 H 71.900002 V 139.5 H 53.200001 V 138.5 Z" class="st14" style="fill: rgb(201, 229, 238);"/>
				</g>
			</g>
		</g>
		<g>
			<g>
				<g>
					<path d="M 53.200001 131.399994 H 76.200001 V 132.399994 H 53.200001 V 131.399994 Z" class="st14" style="fill: rgb(201, 229, 238);"/>
				</g>
			</g>
		</g>
	</g>
	<g>
		<path d="M 53 141.399994 H 59.7 V 148.799994 H 53 V 141.399994 Z" class="st4" style="fill: rgb(128, 188, 239);"/>
	</g>
	<g>
		<path d="M 61.200001 141.399994 H 67.900001 V 148.799994 H 61.200001 V 141.399994 Z" class="st4" style="fill: rgb(128, 188, 239);"/>
	</g>
	<g>
		<path d="M 69.400002 141.399994 H 76.100001 V 148.799994 H 69.400002 V 141.399994 Z" class="st4" style="fill: rgb(128, 188, 239);"/>
	</g>
</g>
<path class="st2" d="M314.8,109.8L311,106l3.8-3.8c0.4-0.4,0.4-1.1,0-1.5l-2.2-2.2c-0.4-0.4-1.1-0.4-1.5,0l-3.8,3.8l-3.8-3.8  c-0.4-0.4-1.1-0.4-1.5,0l-2.2,2.2c-0.4,0.4-0.4,1.1,0,1.5l3.8,3.8l-3.8,3.8c-0.4,0.4-0.4,1.1,0,1.5l2.2,2.2c0.4,0.4,1.1,0.4,1.5,0  l3.8-3.8l3.8,3.8c0.4,0.4,1.1,0.4,1.5,0l2.2-2.2C315.2,110.9,315.2,110.2,314.8,109.8z" style="fill: rgb(77, 103, 125);"/>
<path class="st7" d="M40.6,99.9l-2.9-2.3c-0.3-0.2-0.7-0.2-1,0.1l-7.8,9.7l-3.1-2.8c-0.3-0.3-0.7-0.2-1,0l-2.5,2.7  c-0.3,0.3-0.2,0.7,0,1l6.6,6c0.3,0.3,0.7,0.2,1-0.1l2.3-2.9c0,0,0,0,0,0l8.5-10.5C40.9,100.6,40.9,100.2,40.6,99.9z" style="fill: rgb(243, 110, 101);"/>
<path class="st4" d="M305,205.3v-9.6c0-1.2-1-2.2-2.2-2.2h-6l-5.6-5.6v5.6h-4.6c-1.2,0-2.2,1-2.2,2.2v9.6c0,1.2,1,2.2,2.2,2.2h16.1  C304,207.5,305,206.5,305,205.3z M302,203.6c0,0.6-0.5,1.1-1.1,1.1h-12.7c-0.6,0-1.1-0.5-1.1-1.1v-6c0-0.6,0.5-1.1,1.1-1.1h12.7  c0.6,0,1.1,0.5,1.1,1.1V203.6z" style="fill: rgb(128, 188, 239);"/>
<g>
	<path class="st4" d="M46.3,34.8c-4.8,0-8.7,3.9-8.7,8.7c0,4.8,3.9,8.7,8.7,8.7c4.8,0,8.7-3.9,8.7-8.7C55,38.7,51.1,34.8,46.3,34.8z    M46.2,49.2c-3.2,0-5.7-2.6-5.7-5.7c0-3.2,2.6-5.7,5.7-5.7c3.2,0,5.7,2.6,5.7,5.7C52,46.6,49.4,49.2,46.2,49.2z" style="fill: rgb(128, 188, 239);"/>
	<path class="st4" d="M47.5,42.7v-3c0-0.6-0.5-1-1-1H46c-0.6,0-1,0.5-1,1v3.7c0,0.4,0.2,0.7,0.5,0.9c0,0,0,0.1,0.1,0.1l2.6,2.6   c0.4,0.4,1,0.4,1.4,0l0.3-0.3c0.4-0.4,0.4-1,0-1.4L47.5,42.7z" style="fill: rgb(128, 188, 239);"/>
</g>
<path class="st2" d="M56.1,196c0.3,0,0.6-0.3,0.6-0.6v-1.6c0-0.3-0.3-0.6-0.6-0.6h-1.4c-0.3,0-0.7-0.3-0.8-0.6l-0.8-2  c-0.2-0.3-0.1-0.7,0.1-1l1-1c0.2-0.2,0.2-0.6,0-0.9l-1.2-1.2c-0.2-0.2-0.6-0.2-0.9,0l-1,1c-0.2,0.2-0.7,0.3-1,0.1l-2-0.8  c-0.3-0.1-0.6-0.4-0.6-0.8v-1.4c0-0.3-0.3-0.6-0.6-0.6h-1.6c-0.3,0-0.6,0.3-0.6,0.6v1.4c0,0.3-0.3,0.7-0.6,0.8l-2,0.8  c-0.3,0.2-0.7,0.1-1-0.1l-1-1c-0.2-0.2-0.6-0.2-0.9,0l-1.2,1.2c-0.2,0.2-0.2,0.6,0,0.9l1,1c0.2,0.2,0.3,0.7,0.1,1l-0.8,2  c-0.1,0.3-0.4,0.6-0.8,0.6h-1.4c-0.3,0-0.6,0.3-0.6,0.6v1.6c0,0.3,0.3,0.6,0.6,0.6h1.4c0.3,0,0.7,0.3,0.8,0.6l0.8,2  c0.2,0.3,0.1,0.7-0.1,1l-1,1c-0.2,0.2-0.2,0.6,0,0.9l1.2,1.2c0.2,0.2,0.6,0.2,0.9,0l1-1c0.2-0.2,0.7-0.3,1-0.1l2,0.8  c0.3,0.1,0.6,0.4,0.6,0.8v1.4c0,0.3,0.3,0.6,0.6,0.6h1.6c0.3,0,0.6-0.3,0.6-0.6V203c0-0.3,0.3-0.7,0.6-0.8l2-0.8  c0.3-0.2,0.7-0.1,1,0.1l1,1c0.2,0.2,0.6,0.2,0.9,0l1.2-1.2c0.2-0.2,0.2-0.6,0-0.9l-1-1c-0.2-0.2-0.3-0.7-0.1-1l0.8-2  c0.1-0.3,0.4-0.6,0.8-0.6H56.1z M46.3,199.4c-2.7,0-4.8-2.2-4.8-4.8c0-2.7,2.2-4.8,4.8-4.8c2.7,0,4.8,2.2,4.8,4.8  C51.1,197.2,48.9,199.4,46.3,199.4z" style="fill: rgb(77, 103, 125);"/>
<path class="st7" d="M294.7,28.6c-4.9,0-8.8,3.9-8.8,8.8c0,4.9,3.9,8.8,8.8,8.8s8.8-3.9,8.8-8.8C303.5,32.5,299.5,28.6,294.7,28.6z   M296.1,43.6v-2.8c0-0.3-0.3-0.6-0.6-0.6h-1.5c-0.3,0-0.6,0.3-0.6,0.6v2.8c-2.4-0.5-4.2-2.4-4.8-4.8h2.8c0.3,0,0.6-0.3,0.6-0.6v-1.5  c0-0.3-0.3-0.6-0.6-0.6h-2.8c0.5-2.4,2.4-4.2,4.8-4.8v2.8c0,0.3,0.3,0.6,0.6,0.6h1.5c0.3,0,0.6-0.3,0.6-0.6v-2.8  c2.4,0.5,4.2,2.4,4.8,4.8H298c-0.3,0-0.6,0.3-0.6,0.6v1.5c0,0.3,0.3,0.6,0.6,0.6h2.8C300.3,41.2,298.4,43,296.1,43.6z" style="fill: rgb(243, 110, 101);"/>
<g>
	<g>
		<path d="M 266 198 L 228.3000030517578 198 L 228.3000030517578 168.1999969482422 L 228.10000610351562 168.1999969482422 L 228.10000610351562 198.1999969482422 L 266 198.1999969482422 Z" class="st15" style="fill: rgb(77, 103, 125); stroke: rgb(77, 103, 125); stroke-miterlimit: 10;"/>
	</g>
</g>
</g>
          </g>

          <path id="foreground-overlay" style="fill: #ebeced; opacity: 0.96; pointer-events: none;" d="         M -1000000, -1000000         L 2000000, -1000000         L 2000000, 2000000         L -1000000, 2000000         Z         M 0, 0         L 0, 235.1999969482422         L 336, 235.1999969482422         L 336, 0         Z       "/>

          <g id="huds">
            <g is="ee-outlinehud" id="outline-hud"/>
            <g is="ve-viewboxhud" id="view-box-hud" enabled=""/>
            <g is="ee-transformhud" id="transform-hud" enabled="" style="display: none;"/>
            <g is="ee-lineargradienthud" id="linear-gradient-hud" tabindex="-1"/>
            <g is="ee-radialgradienthud" id="radial-gradient-hud" tabindex="-1"/>
            <g is="ee-penseghud" id="pen-seg-hud"/>
            <g is="ee-penhud" id="pen-hud" tabindex="-1"/>
            <g is="ee-rubberbandhud" id="rubber-band-hud" enabled=""/>
            <g is="ee-texthud" id="text-hud" tabindex="-1"/>
          </g>
        </g>
      </svg>