<?xml version="1.0" encoding="iso-8859-1"?>
<!-- Generator: Adobe Illustrator 19.0.0, SVG Export Plug-In . SVG Version: 6.00 Build 0)  -->
<svg version="1.1" id="Layer_1" xmlns="http://www.w3.org/2000/svg" xmlns:xlink="http://www.w3.org/1999/xlink" x="0px" y="0px"
	 viewBox="0 0 512 512" style="enable-background:new 0 0 512 512;" xml:space="preserve">
<path style="fill:#FFFFFF;" d="M386.209,254.9c64.786,0,117.296,52.522,117.296,117.296c0,64.786-52.51,117.296-117.296,117.296
	s-117.296-52.51-117.296-117.296C268.913,307.422,321.423,254.9,386.209,254.9z"/>
<path style="fill:#F95428;" d="M125.787,254.9c64.786,0,117.307,52.522,117.307,117.296c0,64.786-52.522,117.296-117.307,117.296
	c-64.774,0-117.296-52.51-117.296-117.296C8.491,307.422,61.012,254.9,125.787,254.9z"/>
<path style="fill:#70E5CF;" d="M256.003,22.506c64.786,0,117.296,52.51,117.296,117.296s-52.51,117.296-117.296,117.296
	s-117.296-52.51-117.296-117.296S191.218,22.506,256.003,22.506z"/>
<path style="fill:#CCCCCC;" d="M292.694,372.196c0-60.761,46.205-110.739,105.405-116.699c-3.91-0.393-7.876-0.597-11.89-0.597
	c-64.786,0-117.296,52.522-117.296,117.296c0,64.786,52.51,117.296,117.296,117.296c4.014,0,7.98-0.203,11.89-0.597
	C338.9,482.936,292.694,432.967,292.694,372.196z"/>
<path style="fill:#E54728;" d="M32.272,372.196c0-60.761,46.215-110.739,105.407-116.699c-3.91-0.394-7.877-0.597-11.892-0.597
	c-64.774,0-117.296,52.522-117.296,117.296c0,64.786,52.522,117.296,117.296,117.296c4.014,0,7.981-0.203,11.892-0.597
	C78.487,482.936,32.272,432.967,32.272,372.196z"/>
<path style="fill:#35D8B9;" d="M162.488,139.801c0-60.772,46.205-110.741,105.405-116.699c-3.91-0.394-7.876-0.597-11.89-0.597
	c-64.786,0-117.296,52.51-117.296,117.296s52.51,117.296,117.296,117.296c4.014,0,7.98-0.203,11.89-0.597
	C208.694,250.542,162.488,200.573,162.488,139.801z"/>
<g>
	<path style="fill:#333333;" d="M381.793,139.801c0-69.362-56.43-125.792-125.791-125.792S130.211,70.44,130.211,139.801
		s56.43,125.791,125.791,125.791S381.793,209.163,381.793,139.801z M256.002,248.606c-59.994,0-108.805-48.809-108.805-108.805
		S196.008,30.995,256.002,30.995s108.805,48.811,108.805,108.806S315.998,248.606,256.002,248.606z"/>
	<path style="fill:#333333;" d="M386.209,246.407c-69.362,0-125.792,56.43-125.792,125.791s56.431,125.792,125.792,125.792
		S512,441.56,512,372.199S455.571,246.407,386.209,246.407z M386.209,481.005c-59.996,0-108.806-48.811-108.806-108.806
		s48.811-108.805,108.806-108.805c59.994,0,108.805,48.809,108.805,108.805S446.203,481.005,386.209,481.005z"/>
	<path style="fill:#333333;" d="M125.792,246.407C56.431,246.407,0,302.837,0,372.199s56.431,125.792,125.792,125.792
		s125.791-56.431,125.791-125.792S195.154,246.407,125.792,246.407z M125.792,481.005c-59.995,0-108.806-48.811-108.806-108.806
		s48.811-108.805,108.806-108.805c59.994,0,108.805,48.809,108.805,108.805S185.788,481.005,125.792,481.005z"/>
	<path style="fill:#333333;" d="M284.966,169.991c-15.969,15.97-41.957,15.97-57.925,0c-3.318-3.317-8.695-3.317-12.012,0
		c-3.317,3.317-3.317,8.695,0,12.01c11.298,11.297,26.136,16.945,40.975,16.945c14.839,0,29.677-5.648,40.975-16.945
		c3.317-3.317,3.317-8.695,0-12.01C293.66,166.674,288.283,166.674,284.966,169.991z"/>
	<path style="fill:#333333;" d="M84.816,411.174c-3.317,3.317-3.317,8.695,0,12.01c3.318,3.317,8.695,3.317,12.012,0
		c15.97-15.972,41.959-15.97,57.927,0c1.659,1.658,3.833,2.488,6.006,2.488s4.347-0.829,6.006-2.488
		c3.317-3.317,3.317-8.695,0-12.01C144.171,388.58,107.412,388.579,84.816,411.174z"/>
	<path style="fill:#333333;" d="M421.178,401.443h-69.939c-4.692,0-8.493,3.803-8.493,8.493s3.802,8.493,8.493,8.493h69.939
		c4.692,0,8.493-3.803,8.493-8.493S425.868,401.443,421.178,401.443z"/>
	<circle style="fill:#333333;" cx="431.904" cy="351.31" r="8.493"/>
	<circle style="fill:#333333;" cx="340.518" cy="351.31" r="8.493"/>
	<circle style="fill:#333333;" cx="171.482" cy="351.31" r="8.493"/>
	<circle style="fill:#333333;" cx="80.096" cy="351.31" r="8.493"/>
	<circle style="fill:#333333;" cx="210.313" cy="110.354" r="8.493"/>
	<circle style="fill:#333333;" cx="301.699" cy="110.354" r="8.493"/>
</g>
<g>
</g>
<g>
</g>
<g>
</g>
<g>
</g>
<g>
</g>
<g>
</g>
<g>
</g>
<g>
</g>
<g>
</g>
<g>
</g>
<g>
</g>
<g>
</g>
<g>
</g>
<g>
</g>
<g>
</g>
</svg>
