<svg xmlns="http://www.w3.org/2000/svg" id="svg" preserveAspectRatio="none" width="265px" height="160px" viewBox="0 0 264 160">
        <g id="world" transform="matrix(0.19195407106580725, 0, 0, 0.19195407106580725, 0,0)">
          <rect id="background-overlay" x="0" y="0" width="1379.1798095703125" height="835" style="fill: url(#ee-checkboard-pattern);"/>

          <pattern id="ee-checkboard-pattern" viewBox="0 0 10 10" width="10" height="10" patternUnits="userSpaceOnUse" patternTransform="scale(5.209579796145249)">
            <rect x="0" y="0" width="5" height="5" fill="#d6d6d6"/>
            <rect x="5" y="0" width="5" height="5" fill="white"/>
            <rect x="0" y="5" width="5" height="5" fill="white"/>
            <rect x="5" y="5" width="5" height="5" fill="#d6d6d6"/>
          </pattern>

          <g id="artboards">
            
            <g xmlns="http://www.w3.org/2000/svg" id="master-artboard" viewBox="0 0 1379.1798095703125 835" version="1.1" x="0px" y="0px" width="1400px" height="980px" style="enable-background:new 0 0 1400 980;"><defs><radialGradient id="gradient-0" gradientUnits="objectBoundingBox" cx="0.5" cy="0.5" r="0.5">
                <stop offset="0" style="stop-color: #ffffff"/>
                <stop offset="1" style="stop-color: #cccccc"/>
              </radialGradient></defs><rect id="ee-background" x="0" y="0" width="1379.1798095703125" height="835" style="fill: rgb(255, 255, 255); fill-opacity: 1; pointer-events: none;"/>

<g transform="matrix(1, 0, 0, 1, -2.762131690979004, -146.3929901123047)">
		<path class="st1" d="M755.2,646.2c-2.8,0-5.7-0.7-8.3-2.2l-11.3-6.6l3.5-6.1l11.3,6.6c4.6,2.6,10.6,1,13.3-3.6    c1.3-2.3,1.7-4.9,1-7.4c-0.7-2.5-2.3-4.6-4.6-5.9l-30.9-17.5l3.5-6.1l30.9,17.6c3.9,2.2,6.7,5.8,7.9,10.1    c1.2,4.3,0.6,8.8-1.6,12.7C766.7,643.1,761,646.2,755.2,646.2z" style="fill: rgb(42, 79, 134);"/>
	</g><path class="st1" d="M600.7,598.5c-7.1-16.9-23.3-19.7-24-19.8l-0.5-0.1l-0.5-0.2L542,562.2l34.9-80.5l14.8,7.7    c14.5,7.5,43.2,6.7,56.9-1.7c19.2-11.7,37.7-11,54.9,2.1l-4.2,5.6c-22.1-16.8-40.9-5.4-47-1.7c-15.7,9.5-47.3,10.5-63.8,1.9    l-8.1-4.2l-29.3,67.4l27.2,13c3.4,0.7,20.8,5,28.8,23.9L600.7,598.5z" style="fill: rgb(42, 79, 134);" transform="matrix(1, 0, 0, 1, -2.762131690979004, -146.3929901123047)"/><path class="st1" d="M807.7,614.7c-2.9,0-5.7-0.7-8.3-2.2l-11-6l3.3-6.2l11.1,6c4.7,2.7,10.7,1.1,13.3-3.6c1.3-2.3,1.7-4.9,1-7.4    c-0.7-2.5-2.3-4.6-4.6-5.9L710,530.7l-15.8,9.2c-12.3,6.5-27.1,5.6-38.6-2.1c-2.5-1.7-4.1-4.5-4.2-7.5c-0.1-3.1,1.2-5.9,3.6-7.8    l47.4-37.1c5.5-4.3,12.4-6.6,19.4-6.5l22.7,0.4c4.1,0.1,8.1,1.2,11.6,3.4c18.1,11,41.1,11.8,59.9,2l7.4-3.8l34.9,80.5l-32.4,15.5    l-4.1,12c0.9,1.4,1.6,3,2.1,4.7c1.2,4.3,0.6,8.8-1.6,12.7c-2.2,3.9-5.8,6.7-10.2,7.9C810.6,614.5,809.1,614.7,807.7,614.7z     M710,522.6L816,583.3c0.1,0,0.1,0.1,0.2,0.1l4.1-11.7l29-13.8L820,490.5l-0.7,0.4c-21,10.9-46.5,10-66.7-2.2    c-2.4-1.5-5.2-2.3-8.1-2.3l-22.7-0.4c-5.4-0.1-10.7,1.7-15,5L659.4,528c-0.6,0.5-1,1.2-1,2.1c0,0.8,0.4,1.5,1.1,2    c9.3,6.3,21.3,7,31.3,1.8L710,522.6z" style="fill: rgb(42, 79, 134);" transform="matrix(1, 0, 0, 1, -2.762131690979004, -146.3929901123047)"/><path class="st1" d="M782.2,630.9c-2.9,0-5.7-0.7-8.3-2.2l-30.1-17.2l3.5-6.1l30.1,17.2c2.3,1.3,4.9,1.6,7.4,0.9    c2.5-0.7,4.6-2.3,5.9-4.6c2.7-4.7,1.1-10.7-3.6-13.3l-48.5-26.8l3.4-6.1l48.6,26.8c8.1,4.6,10.9,14.8,6.3,22.9    c-2.2,3.9-5.8,6.7-10.2,7.9C785.1,630.7,783.6,630.9,782.2,630.9z" style="fill: rgb(42, 79, 134);" transform="matrix(1, 0, 0, 1, -2.762131690979004, -146.3929901123047)"/><path class="st1" d="M727.9,660.7c-2.9,0-5.7-0.7-8.3-2.2l-17.1-9.7l3.5-6.1l17.1,9.7c2.3,1.3,4.9,1.6,7.4,0.9    c2.5-0.7,4.6-2.3,5.9-4.6c1.3-2.3,1.7-4.9,1-7.4c-0.7-2.5-2.3-4.6-4.6-5.9l-12.6-7.2l3.5-6.1l12.6,7.2c8,4.6,10.8,14.8,6.2,22.8    c-2.2,3.9-5.8,6.7-10.2,7.9C730.8,660.5,729.3,660.7,727.9,660.7z" style="fill: rgb(42, 79, 134);" transform="matrix(1, 0, 0, 1, -2.762131690979004, -146.3929901123047)"/><g transform="matrix(1, 0, 0, 1, -2.762131690979004, -146.3929901123047)">
			<path class="st1" d="M620.5,616.4c-3,0-6-0.9-8.5-2.7l-5.5-3.9c-3.2-2.3-5.3-5.7-6-9.5s0.3-7.8,2.5-11l17.9-25     c2.3-3.2,5.7-5.3,9.5-6c3.9-0.6,7.8,0.3,11,2.5l5.5,3.9c3.2,2.3,5.3,5.7,6,9.5c0.6,3.9-0.3,7.8-2.5,11l-17.9,25     c-2.3,3.2-5.7,5.3-9.5,6C622.2,616.3,621.3,616.4,620.5,616.4z M633,565.1c-0.4,0-0.9,0-1.3,0.1c-2,0.3-3.8,1.4-5,3.1l-17.9,25     c-1.2,1.7-1.7,3.7-1.3,5.7c0.3,2,1.4,3.8,3.1,5l5.5,3.9c1.7,1.2,3.7,1.7,5.7,1.3c2-0.3,3.8-1.4,5-3.1l17.9-25     c1.2-1.7,1.7-3.7,1.3-5.7c-0.3-2-1.4-3.8-3.1-5l-5.5-3.9C636.1,565.5,634.5,565.1,633,565.1z" style="fill: rgb(42, 79, 134);"/>
		</g><path class="st1" d="M668,650.3c-3,0-6-0.9-8.5-2.7l-5.5-3.9c-6.6-4.7-8.1-13.9-3.4-20.5l17.9-25c2.3-3.2,5.7-5.3,9.5-6     c3.9-0.6,7.8,0.3,11,2.5l5.5,3.9c6.6,4.7,8.1,13.9,3.4,20.5l-17.9,25c-2.3,3.2-5.7,5.3-9.5,6C669.7,650.2,668.9,650.3,668,650.3z      M680.5,599c-0.4,0-0.9,0-1.3,0.1c-2,0.3-3.8,1.4-5,3.1l-17.9,25c-2.5,3.5-1.7,8.3,1.8,10.7l5.5,3.9c1.7,1.2,3.7,1.7,5.7,1.3     c2-0.3,3.8-1.4,5-3.1l17.9-25c2.5-3.5,1.7-8.3-1.8-10.7l-5.5-3.9C683.6,599.5,682.1,599,680.5,599z" style="fill: rgb(42, 79, 134);" transform="matrix(1, 0, 0, 1, -2.762131690979004, -146.3929901123047)"/><path class="st1" d="M687.7,664.8c-2.6,0-5.1-0.8-7.4-2.4h0l-4.1-2.9c-2.8-2-4.6-4.9-5.1-8.2s0.2-6.7,2.2-9.5l15.2-21.3     c2-2.8,4.9-4.6,8.2-5.1c3.3-0.6,6.7,0.2,9.5,2.2l4.1,2.9c5.7,4.1,7,12,3,17.7L698,659.4C695.5,662.9,691.6,664.8,687.7,664.8z      M684.4,656.7c2.6,1.8,6.1,1.2,7.9-1.3l15.2-21.3c0.9-1.2,1.2-2.7,1-4.2c-0.2-1.5-1.1-2.8-2.3-3.7l-4.1-2.9     c-1.2-0.9-2.7-1.2-4.2-1c-1.5,0.2-2.8,1.1-3.7,2.3L679,645.8c-0.9,1.2-1.2,2.7-1,4.2c0.2,1.5,1.1,2.8,2.3,3.7L684.4,656.7z" style="fill: rgb(42, 79, 134);" transform="matrix(1, 0, 0, 1, -2.762131690979004, -146.3929901123047)"/><path class="st1" d="M643.7,633.5c-3.2,0-6.4-1-9.2-2.9l-3.7-2.6c-7.1-5.1-8.7-15-3.7-22.1l23-32.2c5.1-7.1,15-8.7,22.1-3.7     l3.7,2.6c3.4,2.5,5.7,6.1,6.4,10.3s-0.3,8.4-2.7,11.8l-23,32.2C653.5,631.2,648.6,633.5,643.7,633.5z M638.6,624.8     c4,2.8,9.5,1.9,12.3-2l23-32.2c1.4-1.9,1.9-4.2,1.5-6.6c-0.4-2.3-1.7-4.4-3.6-5.7l-3.7-2.6c-4-2.8-9.5-1.9-12.3,2l-23,32.2     c-2.8,4-1.9,9.5,2,12.3L638.6,624.8z" style="fill: rgb(42, 79, 134);" transform="matrix(1, 0, 0, 1, -2.762131690979004, -146.3929901123047)"/><path d="M 857.599976 418.600006 H 988.899979 V 543.000008 H 857.599976 V 418.600006 Z" transform="matrix(0.9076001048088074, -0.4198000133037567, 0.4198000133037567, 0.9076001048088074, -119.33783054351807, 285.6407012939453)" class="st3" style="fill: rgb(164, 217, 243);"/><path d="M 824.200012 468.200012 H 866.200012 V 569.000015 H 824.200012 V 468.200012 Z" transform="matrix(0.9076001048088074, -0.4198000133037567, 0.4198000133037567, 0.9076001048088074, -142.36233615875244, 256.3542022705078)" class="st4" style="fill: rgb(27, 160, 226);"/><path class="st1" d="M845.6,577.7l-45.2-97.8l44.5-20.6l45.2,97.8L845.6,577.7z M809.7,483.3l39.4,85.1l31.8-14.7l-39.4-85.1    L809.7,483.3z" style="fill: rgb(42, 79, 134);" transform="matrix(1, 0, 0, 1, -2.762131690979004, -146.3929901123047)"/><path class="st1" d="M888.1,569.6l-55.2-119.3l125.6-58.1l55.2,119.3L888.1,569.6z M842.2,453.7l49.3,106.6l112.9-52.2L955,401.5    L842.2,453.7z" style="fill: rgb(42, 79, 134);" transform="matrix(1, 0, 0, 1, -2.762131690979004, -146.3929901123047)"/><path d="M 411.100006 418.600006 H 542.400009 V 543.000008 H 411.100006 V 418.600006 Z" transform="matrix(-0.9076001048088074, -0.4198000133037567, 0.4198000133037567, -0.9076001048088074, 704.7670431137085, 971.0597686767578)" class="st3" style="fill: rgb(164, 217, 243);"/><path d="M 533.799988 468.200012 H 575.799988 V 569.000015 H 533.799988 V 468.200012 Z" transform="matrix(-0.9076001048088074, -0.4198000133037567, 0.4198000133037567, -0.9076001048088074, 837.8431539535522, 1075.6812286376953)" class="st4" style="fill: rgb(27, 160, 226);"/><path class="st1" d="M554.4,577.7l-44.5-20.6l45.2-97.8l44.5,20.6L554.4,577.7z M519.2,553.7l31.8,14.7l39.4-85.1l-31.8-14.7    L519.2,553.7z" style="fill: rgb(42, 79, 134);" transform="matrix(1, 0, 0, 1, -2.762131690979004, -146.3929901123047)"/><path class="st1" d="M511.9,569.6l-125.6-58.1l55.2-119.3l125.6,58.1L511.9,569.6z M395.6,508.1l112.9,52.2l49.3-106.6L445,401.5    L395.6,508.1z" style="fill: rgb(42, 79, 134);" transform="matrix(1, 0, 0, 1, -2.762131690979004, -146.3929901123047)"/>
<g transform="matrix(1, 0, 0, 1, -2.762131690979004, -146.3929901123047)">
		<path d="M 515.799988 777.799988 H 744.799988 V 919.499985 H 515.799988 V 777.799988 Z" class="st3" style="fill: rgb(164, 217, 243);"/>
	</g><path class="st4" d="M744.7,777.8h-229v58.3l101.9,20.7c9.1,1.9,18.5,1.8,27.6-0.1l99.4-20.7V777.8z" style="fill: rgb(27, 160, 226);" transform="matrix(1, 0, 0, 1, -2.762131690979004, -146.3929901123047)"/><path class="st1" d="M748.2,923h-236V774.3h236V923z M519.3,916h222V781.3h-222V916z" style="fill: rgb(42, 79, 134);" transform="matrix(1, 0, 0, 1, -2.762131690979004, -146.3929901123047)"/><path class="st1" d="M631.4,861.7c-4.8,0-9.6-0.5-14.4-1.5L512.3,839v-64.6h236V839L646,860.2    C641.2,861.2,636.3,861.7,631.4,861.7z M519.3,833.2l99.1,20.2c8.7,1.8,17.5,1.8,26.2-0.1l96.6-20.1v-51.9h-222V833.2z" style="fill: rgb(42, 79, 134);" transform="matrix(1, 0, 0, 1, -2.762131690979004, -146.3929901123047)"/><path class="st1" d="M685.6,778.4h-7v-18.5c0-8.3-5.9-15-13.2-15h-70.3c-7.3,0-13.2,6.7-13.2,15v16.7h-7v-16.7    c0-12.1,9.1-22,20.2-22h70.3c11.1,0,20.2,9.9,20.2,22V778.4z" style="fill: rgb(42, 79, 134);" transform="matrix(1, 0, 0, 1, -2.762131690979004, -146.3929901123047)"/><g transform="matrix(1, 0, 0, 1, -2.762131690979004, -146.3929901123047)">
			<path class="st5" d="M630.2,877.5L630.2,877.5c-7.3,0-13.2-5.9-13.2-13.2V851c0-7.3,5.9-13.2,13.2-13.2h0     c7.3,0,13.2,5.9,13.2,13.2v13.2C643.5,871.6,637.6,877.5,630.2,877.5z" style="fill: rgb(255, 255, 255);"/>
		</g><path class="st1" d="M630.2,881c-9.2,0-16.7-7.5-16.7-16.7V851c0-9.2,7.5-16.7,16.7-16.7S647,841.8,647,851v13.2     C647,873.5,639.5,881,630.2,881z M630.2,841.3c-5.4,0-9.7,4.4-9.7,9.7v13.2c0,5.4,4.4,9.7,9.7,9.7s9.7-4.4,9.7-9.7V851     C640,845.6,635.6,841.3,630.2,841.3z" style="fill: rgb(42, 79, 134);" transform="matrix(1, 0, 0, 1, -2.762131690979004, -146.3929901123047)"/><path d="M 563.099976 765.599976 H 596.299976 V 777.699976 H 563.099976 V 765.599976 Z" class="st1" style="fill: rgb(42, 79, 134);" transform="matrix(1, 0, 0, 1, -2.762131690979004, -146.3929901123047)"/><path d="M 665.299988 765.599976 H 698.499989 V 777.699976 H 665.299988 V 765.599976 Z" class="st1" style="fill: rgb(42, 79, 134);" transform="matrix(1, 0, 0, 1, -2.762131690979004, -146.3929901123047)"/>
<g transform="matrix(1, 0, 0, 1, -2.762131690979004, -146.3929901123047)">
		<path class="st3" d="M413,781v-27.7h-14c-1.3-5-3.3-9.6-5.8-13.9l9.9-9.9l-19.6-19.6l-9.9,9.9c-4.3-2.5-9-4.5-13.9-5.8v-14H332v14    c-5,1.3-9.6,3.3-13.9,5.8l-9.9-9.9l-19.6,19.6l9.9,9.9c-2.5,4.3-4.5,9-5.8,13.9h-14V781h14c1.3,5,3.3,9.6,5.8,13.9l-9.9,9.9    l19.6,19.6l9.9-9.9c4.3,2.5,9,4.5,13.9,5.8v14h27.7v-14c5-1.3,9.6-3.3,13.9-5.8l9.9,9.9l19.6-19.6l-9.9-9.9    c2.5-4.3,4.5-9,5.8-13.9H413z M345.8,794.8c-15.2,0-27.6-12.4-27.6-27.6c0-15.3,12.4-27.6,27.6-27.6c15.3,0,27.6,12.4,27.6,27.6    C373.5,782.4,361.1,794.8,345.8,794.8z" style="fill: rgb(164, 217, 243);"/>
	</g><path class="st1" d="M345.8,798.3c-17.2,0-31.1-14-31.1-31.1s14-31.1,31.1-31.1s31.1,14,31.1,31.1S363,798.3,345.8,798.3z     M345.8,743.1c-13.3,0-24.1,10.8-24.1,24.1s10.8,24.1,24.1,24.1s24.1-10.8,24.1-24.1S359.1,743.1,345.8,743.1z" style="fill: rgb(42, 79, 134);" transform="matrix(1, 0, 0, 1, -2.762131690979004, -146.3929901123047)"/><path class="st1" d="M363.2,837.8h-34.7V823c-3.4-1.1-6.7-2.4-9.8-4.1l-10.5,10.5l-24.5-24.5l10.5-10.5c-1.7-3.2-3-6.5-4.1-9.8    h-14.9v-34.7h14.9c1.1-3.4,2.4-6.7,4.1-9.8l-10.5-10.5l24.5-24.5l10.5,10.5c3.2-1.7,6.5-3,9.8-4.1v-14.9h34.7v14.9    c3.4,1.1,6.7,2.4,9.8,4.1l10.5-10.5l24.5,24.5L397.5,740c1.7,3.2,3,6.5,4.1,9.8h14.9v34.7h-14.9c-1.1,3.4-2.4,6.7-4.1,9.8    l10.5,10.5l-24.5,24.5L373,818.9c-3.2,1.7-6.5,3-9.8,4.1V837.8z M335.5,830.8h20.7v-13.2l2.6-0.7c4.6-1.2,8.9-3,13-5.4l2.3-1.4    l9.4,9.4l14.6-14.6l-9.4-9.4l1.4-2.3c2.4-4.1,4.2-8.5,5.4-13l0.7-2.6h13.2v-20.7h-13.2l-0.7-2.6c-1.2-4.6-3-8.9-5.4-13l-1.4-2.3    l9.4-9.4l-14.6-14.6l-9.4,9.4l-2.3-1.4c-4.1-2.4-8.5-4.2-13-5.4l-2.6-0.7v-13.2h-20.7v13.2l-2.6,0.7c-4.6,1.2-8.9,3-13,5.4    l-2.3,1.4l-9.4-9.4l-14.6,14.6l9.4,9.4l-1.4,2.3c-2.4,4.1-4.2,8.5-5.4,13l-0.7,2.6h-13.2v20.7h13.2l0.7,2.6c1.2,4.6,3,8.9,5.4,13    l1.4,2.3l-9.4,9.4l14.6,14.6l9.4-9.4l2.3,1.4c4.1,2.4,8.5,4.2,13,5.4l2.6,0.7V830.8z" style="fill: rgb(42, 79, 134);" transform="matrix(1, 0, 0, 1, -2.762131690979004, -146.3929901123047)"/><g transform="matrix(1, 0, 0, 1, -2.762131690979004, -146.3929901123047)">
			<path class="st5" d="M283.4,701.7v-20.3h-10.3c-0.9-3.6-2.4-7.1-4.3-10.2l7.3-7.3l-14.4-14.4l-7.3,7.3c-3.2-1.9-6.6-3.3-10.2-4.3     v-10.3h-20.3v10.3c-3.6,0.9-7.1,2.4-10.2,4.3l-7.3-7.3L192,663.8l7.3,7.3c-1.9,3.2-3.3,6.6-4.3,10.2h-10.3v20.3H195     c0.9,3.6,2.4,7.1,4.3,10.2l-7.3,7.3l14.4,14.4l7.3-7.3c3.2,1.9,6.6,3.3,10.2,4.3v10.3h20.3v-10.3c3.6-0.9,7.1-2.4,10.2-4.3     l7.3,7.3l14.4-14.4l-7.3-7.3c1.9-3.2,3.3-6.6,4.3-10.2H283.4z M234.1,711.8c-11.2,0-20.3-9.1-20.3-20.3     c0-11.2,9.1-20.3,20.3-20.3c11.2,0,20.3,9.1,20.3,20.3C254.3,702.7,245.3,711.8,234.1,711.8z" style="fill: rgb(255, 255, 255);"/>
		</g><path class="st1" d="M234.1,715.3c-13.1,0-23.8-10.7-23.8-23.8c0-13.1,10.7-23.8,23.8-23.8s23.8,10.7,23.8,23.8     C257.8,704.6,247.2,715.3,234.1,715.3z M234.1,674.7c-9.3,0-16.8,7.5-16.8,16.8c0,9.3,7.5,16.8,16.8,16.8s16.8-7.5,16.8-16.8     C250.8,682.3,243.3,674.7,234.1,674.7z" style="fill: rgb(42, 79, 134);" transform="matrix(1, 0, 0, 1, -2.762131690979004, -146.3929901123047)"/><path class="st1" d="M247.7,744.4h-27.3v-11.2c-2.1-0.7-4.1-1.5-6.1-2.5l-7.9,7.9l-19.3-19.3l7.9-7.9c-1-2-1.9-4-2.5-6.1h-11.2     v-27.3h11.2c0.7-2.1,1.5-4.1,2.5-6.1l-7.9-7.9l19.3-19.3l7.9,7.9c2-1,4-1.9,6.1-2.5v-11.2h27.3v11.2c2.1,0.7,4.1,1.5,6.1,2.5     l7.9-7.9l19.3,19.3l-7.9,7.9c1,2,1.9,4,2.5,6.1h11.2v27.3h-11.2c-0.7,2.1-1.5,4.1-2.5,6.1l7.9,7.9l-19.3,19.3l-7.9-7.9     c-2,1-4,1.9-6.1,2.5V744.4z M227.4,737.4h13.3v-9.5l2.6-0.7c3.3-0.8,6.4-2.2,9.3-3.9l2.3-1.4l6.7,6.7l9.4-9.4l-6.7-6.7l1.4-2.3     c1.7-2.9,3-6.1,3.9-9.3l0.7-2.6h9.5v-13.3h-9.5l-0.7-2.6c-0.8-3.3-2.2-6.4-3.9-9.3l-1.4-2.3l6.7-6.7l-9.4-9.4l-6.7,6.7l-2.3-1.4     c-2.9-1.7-6.1-3-9.3-3.9l-2.6-0.7v-9.5h-13.3v9.5l-2.6,0.7c-3.3,0.8-6.4,2.2-9.3,3.9l-2.3,1.4l-6.7-6.7l-9.4,9.4l6.7,6.7     l-1.4,2.3c-1.7,2.9-3,6.1-3.9,9.3l-0.7,2.6h-9.5v13.3h9.5l0.7,2.6c0.8,3.3,2.2,6.4,3.9,9.3l1.4,2.3l-6.7,6.7l9.4,9.4l6.7-6.7     l2.3,1.4c2.9,1.7,6.1,3,9.3,3.9l2.6,0.7V737.4z" style="fill: rgb(42, 79, 134);" transform="matrix(1, 0, 0, 1, -2.762131690979004, -146.3929901123047)"/><path class="st4" d="M261.2,822.4v-22.1H250c-1-4-2.6-7.7-4.6-11.1l7.9-7.9l-15.6-15.6l-7.9,7.9c-3.4-2-7.2-3.6-11.1-4.6v-11.2    h-22.1V769c-4,1-7.7,2.6-11.1,4.6l-7.9-7.9L162,781.3l7.9,7.9c-2,3.4-3.6,7.2-4.6,11.1h-11.2v22.1h11.2c1,4,2.6,7.7,4.6,11.1    l-7.9,7.9l15.6,15.6l7.9-7.9c3.4,2,7.2,3.6,11.1,4.6v11.2h22.1v-11.2c4-1,7.7-2.6,11.1-4.6l7.9,7.9l15.6-15.6l-7.9-7.9    c2-3.4,3.6-7.2,4.6-11.1H261.2z M207.6,833.4c-12.2,0-22-9.9-22-22s9.9-22,22-22c12.2,0,22,9.9,22,22S219.8,833.4,207.6,833.4z" style="fill: rgb(27, 160, 226);" transform="matrix(1, 0, 0, 1, -2.762131690979004, -146.3929901123047)"/><path class="st1" d="M207.6,836.9c-14.1,0-25.5-11.5-25.5-25.5c0-14.1,11.5-25.5,25.5-25.5c14.1,0,25.5,11.5,25.5,25.5    C233.2,825.4,221.7,836.9,207.6,836.9z M207.6,792.8c-10.2,0-18.5,8.3-18.5,18.5c0,10.2,8.3,18.5,18.5,18.5    c10.2,0,18.5-8.3,18.5-18.5C226.2,801.1,217.9,792.8,207.6,792.8z" style="fill: rgb(42, 79, 134);" transform="matrix(1, 0, 0, 1, -2.762131690979004, -146.3929901123047)"/><path class="st1" d="M222.2,868.4h-29.1v-12.1c-2.4-0.8-4.7-1.7-7-2.9l-8.5,8.5L157,841.4l8.5-8.5c-1.2-2.3-2.1-4.6-2.9-7h-12.1    v-29.1h12.1c0.8-2.4,1.8-4.7,2.9-7l-8.5-8.5l20.6-20.6l8.5,8.5c2.3-1.2,4.6-2.1,7-2.9v-12.1h29.1v12.1c2.4,0.8,4.7,1.8,7,2.9    l8.5-8.5l20.6,20.6l-8.5,8.5c1.2,2.3,2.1,4.6,2.9,7h12.1v29.1h-12.1c-0.8,2.4-1.8,4.7-2.9,7l8.5,8.5L237.7,862l-8.5-8.5    c-2.3,1.2-4.6,2.1-7,2.9V868.4z M200.1,861.4h15.1V851l2.6-0.7c3.6-0.9,7-2.4,10.2-4.2l2.3-1.4l7.4,7.4l10.7-10.7l-7.4-7.4    l1.4-2.3c1.9-3.2,3.3-6.7,4.2-10.2l0.7-2.6h10.4v-15.1h-10.4l-0.7-2.6c-0.9-3.6-2.4-7-4.2-10.2l-1.4-2.3l7.4-7.4l-10.7-10.7    l-7.4,7.4l-2.3-1.4c-3.2-1.9-6.7-3.3-10.2-4.2l-2.6-0.7v-10.4h-15.1v10.4l-2.6,0.7c-3.6,0.9-7,2.4-10.2,4.2l-2.3,1.4l-7.4-7.4    l-10.7,10.7l7.4,7.4l-1.4,2.3c-1.9,3.2-3.3,6.7-4.2,10.2l-0.7,2.6h-10.4v15.1H168l0.7,2.6c0.9,3.6,2.4,7,4.2,10.2l1.4,2.3    l-7.4,7.4l10.7,10.7l7.4-7.4l2.3,1.4c3.2,1.9,6.7,3.3,10.2,4.2l2.6,0.7V861.4z" style="fill: rgb(42, 79, 134);" transform="matrix(1, 0, 0, 1, -2.762131690979004, -146.3929901123047)"/>
<g transform="matrix(1, 0, 0, 1, -2.762131690979004, -146.3929901123047)">
		<path class="st3" d="M1250.5,687.9l-16.8,91.9l88-31.4c-5.3-15-14.5-28.8-27.5-39.8C1281.2,697.6,1266.1,690.7,1250.5,687.9z" style="fill: rgb(164, 217, 243);"/>
	</g><path class="st4" d="M1250.2,910.7c18-6.4,34.6-17.5,47.9-33.1l-84.2-71.5c-0.4-0.4-1.1,0.1-0.9,0.6L1250.2,910.7z" style="fill: rgb(27, 160, 226);" transform="matrix(1, 0, 0, 1, -2.762131690979004, -146.3929901123047)"/><path class="st3" d="M1212.4,804.8l85.7,72.9c13.3-15.6,21.5-33.8,25-52.6c3.5-19.4,1.9-39.5-4.7-58L1212.4,804.8z" style="fill: rgb(164, 217, 243);" transform="matrix(1, 0, 0, 1, -2.762131690979004, -146.3929901123047)"/><path class="st4" d="M1174.6,698.8c-18,6.4-34.6,17.5-47.9,33.1c-13.3,15.6-21.5,33.8-25,52.6c-3.5,19.4-1.9,39.5,4.7,58l106-37.8    l20.2-110.7C1213.3,690.6,1193.2,692.2,1174.6,698.8z" style="fill: rgb(27, 160, 226);" transform="matrix(1, 0, 0, 1, -2.762131690979004, -146.3929901123047)"/><path class="st5" d="M1106.5,842.6c6.4,18,17.5,34.6,33.1,47.9c15.6,13.3,33.8,21.5,52.6,25c19.4,3.5,39.5,1.9,58-4.7l-37.8-106    L1106.5,842.6z" style="fill: rgb(255, 255, 255);" transform="matrix(1, 0, 0, 1, -2.762131690979004, -146.3929901123047)"/><path class="st1" d="M1229.1,785.1l18.5-101.3l3.4,0.6c16.7,3,32.4,10.5,45.3,21.5c13,11,22.8,25.3,28.5,41.3l1.2,3.3    L1229.1,785.1z M1253.3,692l-15.1,82.4l78.9-28.2c-5.4-13.5-14.1-25.5-25.2-35C1280.8,701.8,1267.5,695.2,1253.3,692z" style="fill: rgb(42, 79, 134);" transform="matrix(1, 0, 0, 1, -2.762131690979004, -146.3929901123047)"/><path class="st1" d="M1248.1,915.2l-38.3-107.3c-0.6-1.7,0-3.7,1.5-4.7c1.5-1,3.5-0.9,4.9,0.2l86.8,73.8l-2.3,2.7    c-13.2,15.5-30.3,27.3-49.4,34.1L1248.1,915.2z M1220.1,815.9l32.2,90.3c15.5-6.1,29.6-15.8,40.8-28.2L1220.1,815.9z" style="fill: rgb(42, 79, 134);" transform="matrix(1, 0, 0, 1, -2.762131690979004, -146.3929901123047)"/><path class="st1" d="M1298.5,882.6l-93-79.1l115-41l1.2,3.3c6.8,19.2,8.5,39.8,4.8,59.8c-3.6,20-12.5,38.7-25.7,54.3L1298.5,882.6    z M1219.3,806l78.4,66.6c11.2-14,18.8-30.7,22-48.3c3.2-17.6,2-35.9-3.4-52.9L1219.3,806z" style="fill: rgb(42, 79, 134);" transform="matrix(1, 0, 0, 1, -2.762131690979004, -146.3929901123047)"/><path class="st1" d="M1104.4,847.1l-1.2-3.3c-6.8-19.2-8.5-39.8-4.8-59.8c3.6-20,12.5-38.7,25.7-54.3    c13.2-15.5,30.3-27.3,49.4-34.1c19.2-6.8,39.8-8.5,59.8-4.8l3.4,0.6l-21.2,116.1L1104.4,847.1z M1212.5,695.8    c-12.5,0-24.9,2.1-36.7,6.3l0,0c-18,6.4-34,17.5-46.4,32.1c-12.4,14.6-20.8,32.2-24.2,51c-3.2,17.6-2,35.9,3.4,52.9l100.7-35.9    l19.2-105.2C1223.3,696.2,1217.9,695.8,1212.5,695.8z" style="fill: rgb(42, 79, 134);" transform="matrix(1, 0, 0, 1, -2.762131690979004, -146.3929901123047)"/><path class="st1" d="M1212.4,920.8c-7,0-13.9-0.6-20.8-1.9c-20-3.6-38.7-12.5-54.3-25.7c-15.5-13.2-27.3-30.3-34.1-49.4l-1.2-3.3    l112.6-40.1l40.2,112.6l-3.3,1.2C1238.9,918.5,1225.6,920.8,1212.4,920.8z M1111,844.7c6.5,16.6,17.1,31.5,30.8,43.1    c14.6,12.4,32.2,20.8,51,24.2c17.6,3.2,35.9,2,52.9-3.4l-35.4-99.3L1111,844.7z" style="fill: rgb(42, 79, 134);" transform="matrix(1, 0, 0, 1, -2.762131690979004, -146.3929901123047)"/>
<g transform="matrix(1, 0, 0, 1, -2.762131690979004, -146.3929901123047)">
		<path d="M 1166.599976 374.700012 H 1187.599976 V 393.000011 H 1166.599976 V 374.700012 Z" class="st4" style="fill: rgb(27, 160, 226);"/>
	</g><path d="M 1198.300049 363.899994 H 1219.300049 V 392.999994 H 1198.300049 V 363.899994 Z" class="st4" style="fill: rgb(27, 160, 226);" transform="matrix(1, 0, 0, 1, -2.762131690979004, -146.3929901123047)"/><path d="M 1231 346.399994 H 1252 V 392.999992 H 1231 V 346.399994 Z" class="st4" style="fill: rgb(27, 160, 226);" transform="matrix(1, 0, 0, 1, -2.762131690979004, -146.3929901123047)"/><path d="M 1101.800049 282.600006 H 1319.600052 V 298.400006 H 1101.800049 V 282.600006 Z" class="st3" style="fill: rgb(164, 217, 243);" transform="matrix(1, 0, 0, 1, -2.762131690979004, -146.3929901123047)"/><g transform="matrix(1, 0, 0, 1, -2.762131690979004, -146.3929901123047)">
			<path d="M 1207.300049 412 H 1214.300049 V 538.199997 H 1207.300049 V 412 Z" class="st1" style="fill: rgb(42, 79, 134);"/>
		</g><path d="M 1200.199951 535.299988 H 1221.399952 V 542.299988 H 1200.199951 V 535.299988 Z" class="st1" style="fill: rgb(42, 79, 134);" transform="matrix(1, 0, 0, 1, -2.762131690979004, -146.3929901123047)"/><g transform="matrix(1, 0, 0, 1, -2.762131690979004, -146.3929901123047)">
			<path d="M 1129.5 520.299988 H 1150.700001 V 527.299988 H 1129.5 V 520.299988 Z" class="st1" style="fill: rgb(42, 79, 134);"/>
		</g><path d="M 1098.599976 462.899994 H 1220.699974 V 469.899994 H 1098.599976 V 462.899994 Z" transform="matrix(0.3295000195503235, -0.9442000985145569, 0.9442000985145569, 0.3295000195503235, 334.44206142425537, 1261.2841339111328)" class="st1" style="fill: rgb(42, 79, 134);"/><path d="M 1270.800049 520.299988 H 1292.00005 V 527.299988 H 1270.800049 V 520.299988 Z" class="st1" style="fill: rgb(42, 79, 134);" transform="matrix(1, 0, 0, 1, -2.762131690979004, -146.3929901123047)"/><path d="M 1258.300049 405.399994 H 1265.300049 V 527.499992 H 1258.300049 V 405.399994 Z" transform="matrix(0.9441001415252686, -0.329600065946579, 0.329600065946579, 0.9441001415252686, -85.98442935943604, 295.5019073486328)" class="st1" style="fill: rgb(42, 79, 134);"/><path class="st1" d="M1191,396.5h-28v-25.3h28V396.5z M1170.1,389.5h14v-11.3h-14V389.5z" style="fill: rgb(42, 79, 134);" transform="matrix(1, 0, 0, 1, -2.762131690979004, -146.3929901123047)"/><path class="st1" d="M1323.2,301.9h-224.8v-22.8h224.8V301.9z M1105.3,294.9h210.8v-8.8h-210.8V294.9z" style="fill: rgb(42, 79, 134);" transform="matrix(1, 0, 0, 1, -2.762131690979004, -146.3929901123047)"/><path class="st1" d="M1308.9,413.3h-196.3V294.9h196.3V413.3z M1119.6,406.3h182.3V301.9h-182.3V406.3z" style="fill: rgb(42, 79, 134);" transform="matrix(1, 0, 0, 1, -2.762131690979004, -146.3929901123047)"/><path d="M 1161.900024 337.399994 H 1245.000023 V 344.399994 H 1161.900024 V 337.399994 Z" transform="matrix(0.8785001039505005, -0.47770005464553833, 0.47770005464553833, 0.8785001039505005, -19.418030738830566, 469.8924102783203)" class="st1" style="fill: rgb(42, 79, 134);"/><path d="M 1242.800048828125 331.8999938964844 L 1235.9000244140625 330.8999938964844 L 1237 322.5 L 1228.5 321.3999938964844 L 1229.4000244140625 314.5 L 1244.9000244140625 316.3999938964844 Z" class="st1" style="fill: rgb(42, 79, 134);" transform="matrix(1, 0, 0, 1, -2.762131690979004, -146.3929901123047)"/><path class="st1" d="M1222.7,396.5h-28v-36.1h28V396.5z M1201.8,389.5h14v-22.1h-14V389.5z" style="fill: rgb(42, 79, 134);" transform="matrix(1, 0, 0, 1, -2.762131690979004, -146.3929901123047)"/><path class="st1" d="M1255.5,396.5h-28v-53.6h28V396.5z M1234.5,389.5h14v-39.6h-14V389.5z" style="fill: rgb(42, 79, 134);" transform="matrix(1, 0, 0, 1, -2.762131690979004, -146.3929901123047)"/>
<g transform="matrix(1, 0, 0, 1, -2.762131690979004, -146.3929901123047)">
		<path d="M 717.2000122070312 313.70001220703125 L 857.0999755859375 313.70001220703125 L 857.0999755859375 402.20001220703125 L 787.5999755859375 402.20001220703125 L 762.7999877929688 430.79998779296875 L 762.7999877929688 402.20001220703125 L 717.2000122070312 402.20001220703125 Z" class="st3" style="fill: rgb(164, 217, 243);"/>
	</g><path class="st1" d="M759.3,440.1v-34.4h-45.6v-95.5h146.9v95.5h-71.4L759.3,440.1z M720.7,398.7h45.6v22.7l19.7-22.7h67.6v-81.5    H720.7V398.7z" style="fill: rgb(42, 79, 134);" transform="matrix(1, 0, 0, 1, -2.762131690979004, -146.3929901123047)"/><path d="M 831.400012 357 A 7.2 7.2 0 0 1 824.200012 364.2 A 7.2 7.2 0 0 1 817.000012 357 A 7.2 7.2 0 0 1 824.200012 349.8 A 7.2 7.2 0 0 1 831.400012 357 Z" class="st4" style="fill: rgb(27, 160, 226);" transform="matrix(1, 0, 0, 1, -2.762131690979004, -146.3929901123047)"/><path d="M 795.799975 357 A 7.2 7.2 0 0 1 788.599976 364.2 A 7.2 7.2 0 0 1 781.399976 357 A 7.2 7.2 0 0 1 788.599976 349.8 A 7.2 7.2 0 0 1 795.799975 357 Z" class="st4" style="fill: rgb(27, 160, 226);" transform="matrix(1, 0, 0, 1, -2.762131690979004, -146.3929901123047)"/><path d="M 762.100024 357 A 7.2 7.2 0 0 1 754.900024 364.2 A 7.2 7.2 0 0 1 747.700025 357 A 7.2 7.2 0 0 1 754.900024 349.8 A 7.2 7.2 0 0 1 762.100024 357 Z" class="st4" style="fill: rgb(27, 160, 226);" transform="matrix(1, 0, 0, 1, -2.762131690979004, -146.3929901123047)"/><path d="M 735.9000244140625 277.8999938964844 L 596 277.8999938964844 L 596 366.3999938964844 L 665.5 366.3999938964844 L 690.2999877929688 395 L 690.2999877929688 366.3999938964844 L 735.9000244140625 366.3999938964844 Z" class="st5" style="fill: rgb(255, 255, 255);" transform="matrix(1, 0, 0, 1, -2.762131690979004, -146.3929901123047)"/><path class="st1" d="M693.8,404.3l-29.9-34.4h-71.4v-95.5h146.9v95.5h-45.6V404.3z M599.5,362.9h67.6l19.7,22.7v-22.7h45.6v-81.5    H599.5V362.9z" style="fill: rgb(42, 79, 134);" transform="matrix(1, 0, 0, 1, -2.762131690979004, -146.3929901123047)"/><path d="M 636.100024 321.200012 A 7.2 7.2 0 0 1 628.900024 328.400012 A 7.2 7.2 0 0 1 621.700025 321.200012 A 7.2 7.2 0 0 1 628.900024 314.000012 A 7.2 7.2 0 0 1 636.100024 321.200012 Z" class="st3" style="fill: rgb(164, 217, 243);" transform="matrix(1, 0, 0, 1, -2.762131690979004, -146.3929901123047)"/><path d="M 671.7 321.200012 A 7.2 7.2 0 0 1 664.5 328.400012 A 7.2 7.2 0 0 1 657.3 321.200012 A 7.2 7.2 0 0 1 664.5 314.000012 A 7.2 7.2 0 0 1 671.7 321.200012 Z" class="st3" style="fill: rgb(164, 217, 243);" transform="matrix(1, 0, 0, 1, -2.762131690979004, -146.3929901123047)"/><path d="M 705.400012 321.200012 A 7.2 7.2 0 0 1 698.200012 328.400012 A 7.2 7.2 0 0 1 691.000012 321.200012 A 7.2 7.2 0 0 1 698.200012 314.000012 A 7.2 7.2 0 0 1 705.400012 321.200012 Z" class="st3" style="fill: rgb(164, 217, 243);" transform="matrix(1, 0, 0, 1, -2.762131690979004, -146.3929901123047)"/>
<g transform="matrix(1, 0, 0, 1, -2.762131690979004, -146.3929901123047)">
		
			<path d="M 909.599976 901.099976 H 946.199974 V 911.299975 H 909.599976 V 901.099976 Z" transform="matrix(1 8.527154e-03 -8.527154e-03 1 7.7611 -7.8797)" class="st4" style="fill: rgb(27, 160, 226);"/>
	</g><path class="st3" d="M985,805c-0.3,37.3-26.6,53.8-31.6,57.5c-3.2,2.3-4.5,11.5-5.1,17.8l-40.3-0.3c-0.4-6.3-1.6-15.5-4.8-17.9    c-4.9-3.7-31-20.7-30.6-58c0.4-49.3,29.5-59.7,56.7-59.5C956.6,744.7,985.5,753.9,985,805z" style="fill: rgb(164, 217, 243);" transform="matrix(1, 0, 0, 1, -2.762131690979004, -146.3929901123047)"/><path class="st1" d="M957.9,894.4l-59.7-0.5l0.1-17.6l59.7,0.5L957.9,894.4z M905.2,886.9l45.7,0.4l0-3.6l-45.7-0.4L905.2,886.9z" style="fill: rgb(42, 79, 134);" transform="matrix(1, 0, 0, 1, -2.762131690979004, -146.3929901123047)"/><path class="st1" d="M957.8,904.9l-59.7-0.5l0.1-17.6l59.7,0.5L957.8,904.9z M905.1,897.4l45.7,0.4l0-3.6l-45.7-0.4L905.1,897.4z" style="fill: rgb(42, 79, 134);" transform="matrix(1, 0, 0, 1, -2.762131690979004, -146.3929901123047)"/><path class="st1" d="M949.7,915l-43.6-0.4l0.1-17.2l43.6,0.4L949.7,915z M913.1,907.7l29.6,0.3l0-3.2l-29.6-0.3L913.1,907.7z" style="fill: rgb(42, 79, 134);" transform="matrix(1, 0, 0, 1, -2.762131690979004, -146.3929901123047)"/><path class="st1" d="M951.5,883.8l-46.8-0.4l-0.2-3.2c-0.9-13.4-3.4-15.3-3.4-15.4c-0.2-0.2-0.5-0.4-0.9-0.6    c-20.9-15.3-31.4-35.5-31.2-60.2c0.2-23.4,6.8-40.6,19.6-51c9.8-7.9,23.1-12,39.8-12c0.3,0,0.6,0,0.9,0    c40.2,0.3,59.5,21.3,59.2,64c-0.2,24.7-11.1,44.8-32.2,59.7c-0.3,0.2-0.6,0.4-0.9,0.6c-0.7,0.5-2.7,4.2-3.6,15.3L951.5,883.8z     M911.2,876.4l33.9,0.3c1.4-12.3,4.2-15.7,6.2-17.1c0.3-0.2,0.6-0.4,0.9-0.7c19.2-13.5,29.1-31.7,29.3-54l0,0    c0.2-21.9-5.3-37.5-16.2-46.5c-8.3-6.9-20.1-10.3-36-10.4c-0.3,0-0.6,0-0.8,0c-15,0-26.9,3.5-35.4,10.4    c-11.1,9.1-16.8,24.4-17,45.6c-0.2,22.3,9.3,40.6,28.3,54.5c0.4,0.3,0.7,0.5,0.9,0.7C907.3,860.7,910,864.1,911.2,876.4z" style="fill: rgb(42, 79, 134);" transform="matrix(1, 0, 0, 1, -2.762131690979004, -146.3929901123047)"/>
<g transform="matrix(1, 0, 0, 1, -2.762131690979004, -146.3929901123047)">
		<path class="st3" d="M985.3,584.1c-30.7,0-55.6,24.9-55.6,55.6s24.9,55.6,55.6,55.6c30.7,0,55.6-24.9,55.6-55.6    S1016,584.1,985.3,584.1z M985.3,679.5c-22,0-39.8-17.8-39.8-39.8s17.8-39.8,39.8-39.8c22,0,39.8,17.8,39.8,39.8    S1007.3,679.5,985.3,679.5z" style="fill: rgb(164, 217, 243);"/>
	</g><path class="st1" d="M985.3,698.9c-32.6,0-59.1-26.5-59.1-59.1c0-32.6,26.5-59.1,59.1-59.1c32.6,0,59.1,26.5,59.1,59.1    C1044.4,672.3,1017.9,698.9,985.3,698.9z M985.3,587.6c-28.7,0-52.1,23.4-52.1,52.1c0,28.7,23.4,52.1,52.1,52.1    c28.7,0,52.1-23.4,52.1-52.1C1037.4,611,1014,587.6,985.3,587.6z" style="fill: rgb(42, 79, 134);" transform="matrix(1, 0, 0, 1, -2.762131690979004, -146.3929901123047)"/><path class="st1" d="M985.3,683c-23.9,0-43.3-19.4-43.3-43.3c0-23.9,19.4-43.3,43.3-43.3c23.9,0,43.3,19.4,43.3,43.3    C1028.6,663.6,1009.2,683,985.3,683z M985.3,603.5c-20,0-36.3,16.3-36.3,36.3c0,20,16.3,36.3,36.3,36.3s36.3-16.3,36.3-36.3    C1021.6,619.7,1005.3,603.5,985.3,603.5z" style="fill: rgb(42, 79, 134);" transform="matrix(1, 0, 0, 1, -2.762131690979004, -146.3929901123047)"/><g transform="matrix(1, 0, 0, 1, -2.762131690979004, -146.3929901123047)">
			<path class="st4" d="M982.7,670.7v-7.6c-4.4-0.1-8.9-1.4-11.5-3.3l1.8-5c2.7,1.8,6.6,3.2,10.9,3.2c5.3,0,9-3.1,9-7.4     c0-4.1-2.9-6.7-8.5-9c-7.7-3-12.4-6.5-12.4-13c0-6.3,4.4-11,11.4-12.1v-7.6h4.7v7.3c4.5,0.2,7.6,1.4,9.8,2.6l-1.9,5     c-1.6-0.9-4.7-2.6-9.5-2.6c-5.8,0-8,3.5-8,6.5c0,3.9,2.8,5.9,9.3,8.6c7.8,3.2,11.7,7.1,11.7,13.8c0,6-4.1,11.5-11.9,12.8v7.8     H982.7z" style="fill: rgb(27, 160, 226);"/>
		</g><g transform="matrix(1, 0, 0, 1, -2.762131690979004, -146.3929901123047)">
			<path class="st3" d="M1061.8,617.2c-28.3,0-51.2,22.9-51.2,51.2c0,28.3,22.9,51.2,51.2,51.2s51.2-22.9,51.2-51.2     C1113,640.1,1090.1,617.2,1061.8,617.2z M1061.8,705.1c-20.2,0-36.7-16.4-36.7-36.7c0-20.2,16.4-36.7,36.7-36.7     c20.2,0,36.7,16.4,36.7,36.7C1098.4,688.7,1082,705.1,1061.8,705.1z" style="fill: rgb(164, 217, 243);"/>
		</g><path d="M 1098.50005 668.400024 A 36.700001 36.700001 0 0 1 1061.800049 705.100025 A 36.700001 36.700001 0 0 1 1025.100048 668.400024 A 36.700001 36.700001 0 0 1 1061.800049 631.700024 A 36.700001 36.700001 0 0 1 1098.50005 668.400024 Z" class="st4" style="fill: rgb(27, 160, 226);" transform="matrix(1, 0, 0, 1, -2.762131690979004, -146.3929901123047)"/><path class="st3" d="M1061.8,617.2c-28.3,0-51.2,22.9-51.2,51.2c0,28.3,22.9,51.2,51.2,51.2s51.2-22.9,51.2-51.2     C1113,640.1,1090.1,617.2,1061.8,617.2z M1061.8,705.1c-20.2,0-36.7-16.4-36.7-36.7c0-20.2,16.4-36.7,36.7-36.7     s36.7,16.4,36.7,36.7C1098.4,688.7,1082,705.1,1061.8,705.1z" style="fill: rgb(164, 217, 243);" transform="matrix(1, 0, 0, 1, -2.762131690979004, -146.3929901123047)"/><path class="st1" d="M1061.8,723.2c-30.2,0-54.7-24.6-54.7-54.7s24.6-54.7,54.7-54.7s54.7,24.6,54.7,54.7     S1091.9,723.2,1061.8,723.2z M1061.8,620.7c-26.3,0-47.7,21.4-47.7,47.7s21.4,47.7,47.7,47.7s47.7-21.4,47.7-47.7     S1088.1,620.7,1061.8,620.7z" style="fill: rgb(42, 79, 134);" transform="matrix(1, 0, 0, 1, -2.762131690979004, -146.3929901123047)"/><path class="st1" d="M1061.8,708.6c-22.1,0-40.2-18-40.2-40.2s18-40.2,40.2-40.2s40.2,18,40.2,40.2S1083.9,708.6,1061.8,708.6z      M1061.8,635.3c-18.3,0-33.2,14.9-33.2,33.2s14.9,33.2,33.2,33.2s33.2-14.9,33.2-33.2S1080.1,635.3,1061.8,635.3z" style="fill: rgb(42, 79, 134);" transform="matrix(1, 0, 0, 1, -2.762131690979004, -146.3929901123047)"/><g transform="matrix(1, 0, 0, 1, -2.762131690979004, -146.3929901123047)">
				<path class="st5" d="M1059.4,696.9v-7c-4-0.1-8.2-1.3-10.6-3.1l1.7-4.6c2.5,1.7,6.1,3,10,3c4.9,0,8.3-2.8,8.3-6.8      c0-3.8-2.7-6.2-7.8-8.3c-7.1-2.8-11.5-6-11.5-12c0-5.8,4.1-10.1,10.5-11.2v-7h4.3v6.7c4.2,0.1,7,1.2,9,2.4l-1.7,4.6      c-1.5-0.8-4.3-2.4-8.7-2.4c-5.3,0-7.4,3.2-7.4,6c0,3.6,2.6,5.4,8.6,7.9c7.1,2.9,10.8,6.5,10.8,12.7c0,5.5-3.8,10.6-11,11.8v7.2      H1059.4z" style="fill: rgb(255, 255, 255);"/>
			</g>
<g transform="matrix(1, 0, 0, 1, -2.762131690979004, -146.3929901123047)">
		<path class="st3" d="M345.4,261c-40,0-72.4,32.4-72.4,72.4c0,40,32.4,72.4,72.4,72.4c40,0,72.4-32.4,72.4-72.4    C417.8,293.4,385.4,261,345.4,261z M345.4,391.2c-31.9,0-57.8-25.9-57.8-57.8c0-31.9,25.9-57.8,57.8-57.8    c31.9,0,57.8,25.9,57.8,57.8C403.2,365.3,377.3,391.2,345.4,391.2z" style="fill: rgb(164, 217, 243);"/>
	</g><path d="M 352.599994 333.399994 A 7.2 7.2 0 0 1 345.399994 340.599994 A 7.2 7.2 0 0 1 338.199994 333.399994 A 7.2 7.2 0 0 1 345.399994 326.199994 A 7.2 7.2 0 0 1 352.599994 333.399994 Z" class="st1" style="fill: rgb(42, 79, 134);" transform="matrix(1, 0, 0, 1, -2.762131690979004, -146.3929901123047)"/><g transform="matrix(1, 0, 0, 1, -2.762131690979004, -146.3929901123047)">
			<path class="st1" d="M345.4,409.3c-41.8,0-75.9-34-75.9-75.9c0-41.8,34-75.9,75.9-75.9c41.8,0,75.9,34,75.9,75.9     C421.3,375.2,387.3,409.3,345.4,409.3z M345.4,264.5c-38,0-68.9,30.9-68.9,68.9c0,38,30.9,68.9,68.9,68.9     c38,0,68.9-30.9,68.9-68.9C414.3,295.4,383.4,264.5,345.4,264.5z M345.4,394.7c-33.8,0-61.3-27.5-61.3-61.3s27.5-61.3,61.3-61.3     s61.3,27.5,61.3,61.3S379.2,394.7,345.4,394.7z M345.4,279.1c-29.9,0-54.3,24.3-54.3,54.3s24.3,54.3,54.3,54.3     c29.9,0,54.3-24.3,54.3-54.3S375.3,279.1,345.4,279.1z" style="fill: rgb(42, 79, 134);"/>
		</g><path class="st1" d="M345.4,394.7c-33.8,0-61.3-27.5-61.3-61.3s27.5-61.3,61.3-61.3s61.3,27.5,61.3,61.3S379.2,394.7,345.4,394.7     z M345.4,279.1c-29.9,0-54.3,24.3-54.3,54.3s24.3,54.3,54.3,54.3c29.9,0,54.3-24.3,54.3-54.3S375.3,279.1,345.4,279.1z" style="fill: rgb(42, 79, 134);" transform="matrix(1, 0, 0, 1, -2.762131690979004, -146.3929901123047)"/><g transform="matrix(1, 0, 0, 1, -2.762131690979004, -146.3929901123047)">
			<g>
				<path d="M 342.899994 280.700012 H 347.899994 V 295.300013 H 342.899994 V 280.700012 Z" class="st1" style="fill: rgb(42, 79, 134);"/>
			</g>
			<g>
				<path d="M 342.899994 371.399994 H 347.899994 V 385.999994 H 342.899994 V 371.399994 Z" class="st1" style="fill: rgb(42, 79, 134);"/>
			</g>
		</g><g transform="matrix(1, 0, 0, 1, -2.762131690979004, -146.3929901123047)">
				<path d="M 320.200012 286.799988 H 325.200012 V 301.399988 H 320.200012 V 286.799988 Z" transform="matrix(0.866 -0.5 0.5 0.866 -103.8147 200.7729)" class="st1" style="fill: rgb(42, 79, 134);"/>
			</g><path d="M 365.600006 365.399994 H 370.600006 V 379.999994 H 365.600006 V 365.399994 Z" transform="matrix(0.8659999966621399, -0.5, 0.5, 0.8659999966621399, -139.78013706207275, 87.57881164550781)" class="st1" style="fill: rgb(42, 79, 134);"/><g transform="matrix(1, 0, 0, 1, -2.762131690979004, -146.3929901123047)">
				<path d="M 303.600006 303.399994 H 308.600006 V 317.999994 H 303.600006 V 303.399994 Z" transform="matrix(0.5 -0.866 0.866 0.5 -116.0154 420.4623)" class="st1" style="fill: rgb(42, 79, 134);"/>
			</g><path d="M 382.200012 348.799988 H 387.200012 V 363.399988 H 382.200012 V 348.799988 Z" transform="matrix(0.5, -0.8659999966621399, 0.8659999966621399, 0.5, -118.77562808990479, 364.79249572753906)" class="st1" style="fill: rgb(42, 79, 134);"/><g transform="matrix(1, 0, 0, 1, -2.762131690979004, -146.3929901123047)">
				<path d="M 292.700012 330.899994 H 307.300013 V 335.899994 H 292.700012 V 330.899994 Z" class="st1" style="fill: rgb(42, 79, 134);"/>
			</g><path d="M 383.5 330.899994 H 398.1 V 335.899994 H 383.5 V 330.899994 Z" class="st1" style="fill: rgb(42, 79, 134);" transform="matrix(1, 0, 0, 1, -2.762131690979004, -146.3929901123047)"/><g transform="matrix(1, 0, 0, 1, -2.762131690979004, -146.3929901123047)">
				<path d="M 298.799988 353.600006 H 313.399988 V 358.600006 H 298.799988 V 353.600006 Z" transform="matrix(0.866 -0.5 0.5 0.866 -137.0185 200.7688)" class="st1" style="fill: rgb(42, 79, 134);"/>
			</g><path d="M 377.399994 308.200012 H 391.999994 V 313.200012 H 377.399994 V 308.200012 Z" transform="matrix(0.8659999966621399, -0.5, 0.5, 0.8659999966621399, -106.57592868804932, 87.58041381835938)" class="st1" style="fill: rgb(42, 79, 134);"/><g transform="matrix(1, 0, 0, 1, -2.762131690979004, -146.3929901123047)">
				<path d="M 315.399994 370.200012 H 329.999994 V 375.200012 H 315.399994 V 370.200012 Z" transform="matrix(0.5 -0.866 0.866 0.5 -161.3725 465.8243)" class="st1" style="fill: rgb(42, 79, 134);"/>
			</g><path d="M 360.799988 291.600006 H 375.399988 V 296.600006 H 360.799988 V 291.600006 Z" transform="matrix(0.5, -0.8659999966621399, 0.8659999966621399, 0.5, -73.41863346099854, 319.43101501464844)" class="st1" style="fill: rgb(42, 79, 134);"/><path d="M 327 323.200012 H 375.599998 V 330.200012 H 327 V 323.200012 Z" transform="matrix(0.7071000933647156, -0.7071000933647156, 0.7071000933647156, 0.7071000933647156, -130.86883640289307, 197.72999572753906)" class="st1" style="fill: rgb(42, 79, 134);"/>
<g transform="matrix(1, 0, 0, 1, -2.762131690979004, -146.3929901123047)">
		<path class="st3" d="M171.2,295.3c-2.6-3.1-5-5.8-7.1-8.3c-2.2,2.5-4.6,5.2-7.2,8.3c-27.7,33-72.1,101.3-18.2,201.4h18.2h14.3    h18.2C243.3,396.6,198.9,328.3,171.2,295.3z" style="fill: rgb(164, 217, 243);"/>
	</g><path class="st4" d="M197.9,335c-8.3-16.4-18.2-29.7-26.6-39.7c-2.6-3.1-5-5.8-7.1-8.3c-2.2,2.5-4.6,5.2-7.2,8.3    c-8.4,10-18.3,23.3-26.6,39.7H197.9z" style="fill: rgb(27, 160, 226);" transform="matrix(1, 0, 0, 1, -2.762131690979004, -146.3929901123047)"/><path d="M 189.900005 378.700012 A 25.799999 25.799999 0 0 1 164.100006 404.500011 A 25.799999 25.799999 0 0 1 138.300007 378.700012 A 25.799999 25.799999 0 0 1 164.100006 352.900013 A 25.799999 25.799999 0 0 1 189.900005 378.700012 Z" class="st5" style="fill: rgb(255, 255, 255);" transform="matrix(1, 0, 0, 1, -2.762131690979004, -146.3929901123047)"/><path class="st4" d="M92.3,574.2H77.7C51.5,491.2,97.3,443,115,428.1c2.2,15.2,6.7,31.4,14.1,48.6    C90.9,494.2,92.3,574.2,92.3,574.2z" style="fill: rgb(27, 160, 226);" transform="matrix(1, 0, 0, 1, -2.762131690979004, -146.3929901123047)"/><path class="st4" d="M251.2,574.2h-14.7c0,0,1.4-80.7-37.4-97.7c7.4-17.4,11.9-33.7,14-48.9C230.5,441.9,277.7,490.2,251.2,574.2z    " style="fill: rgb(27, 160, 226);" transform="matrix(1, 0, 0, 1, -2.762131690979004, -146.3929901123047)"/><path class="st3" d="M191.4,523.7c0-14.9-12.1-26.9-26.9-26.9s-26.9,12.1-26.9,26.9c0,14.9,26.9,50.8,26.9,50.8    S191.4,538.5,191.4,523.7z" style="fill: rgb(164, 217, 243);" transform="matrix(1, 0, 0, 1, -2.762131690979004, -146.3929901123047)"/><path class="st1" d="M191.5,500.1h-54.9l-1-1.8c-23.9-44.4-31.3-87.6-21.8-128.3c6.2-26.8,19.4-52,40.4-77    c2.8-3.3,5.3-6.2,7.2-8.3l2.6-2.9l2.6,2.9c1.9,2.1,4.5,5,7.2,8.3l0,0c52.2,62.3,58.4,131.3,18.6,205.3L191.5,500.1z M140.9,493.1    h46.5c22.3-42.2,29.1-83.1,20.2-121.5c-6-25.7-18.7-49.9-39-74.1l0,0c-1.6-1.9-3.1-3.7-4.5-5.2c-1.4,1.6-2.9,3.3-4.5,5.2    c-20.2,24.2-33,48.4-39,74.1C111.8,410,118.5,450.9,140.9,493.1z" style="fill: rgb(42, 79, 134);" transform="matrix(1, 0, 0, 1, -2.762131690979004, -146.3929901123047)"/><path class="st1" d="M203.5,338.5h-78.9l2.6-5.1c6.9-13.7,15.7-26.9,27-40.4c2.8-3.3,5.3-6.2,7.2-8.3l2.6-2.9l2.6,2.9    c1.9,2.1,4.5,5,7.2,8.3c11.3,13.5,20.2,26.7,27.1,40.4L203.5,338.5z M136.1,331.5h55.9c-6.2-11.4-14-22.6-23.5-34    c-1.6-1.9-3.1-3.7-4.5-5.2c-1.4,1.6-2.9,3.3-4.5,5.2C150.1,308.9,142.3,320.1,136.1,331.5z" style="fill: rgb(42, 79, 134);" transform="matrix(1, 0, 0, 1, -2.762131690979004, -146.3929901123047)"/><path class="st1" d="M164.1,408c-16.1,0-29.3-13.1-29.3-29.3c0-16.1,13.1-29.3,29.3-29.3c16.1,0,29.3,13.1,29.3,29.3    C193.4,394.9,180.2,408,164.1,408z M164.1,356.4c-12.3,0-22.3,10-22.3,22.3c0,12.3,10,22.3,22.3,22.3c12.3,0,22.3-10,22.3-22.3    C186.4,366.4,176.4,356.4,164.1,356.4z" style="fill: rgb(42, 79, 134);" transform="matrix(1, 0, 0, 1, -2.762131690979004, -146.3929901123047)"/><path class="st1" d="M95.9,577.7H75.1l-0.8-2.4c-11.5-36.5-10.7-70.5,2.3-101c10.7-25.1,27.2-41.4,36.1-48.9l4.8-4.1l0.9,6.2    c2.3,15.6,6.9,31.6,13.8,47.8l1.3,3.1l-3.1,1.4c-18.4,8.4-26.9,33.4-30.7,52.8c-4.3,21.6-4,41.2-4,41.4L95.9,577.7z M80.3,570.7    h8.6C89,555,92,493.5,124.6,475c-5.6-13.5-9.6-27-12-40.2c-8.7,8.2-21,22.2-29.5,42.1C71,505.2,70.1,536.7,80.3,570.7z" style="fill: rgb(42, 79, 134);" transform="matrix(1, 0, 0, 1, -2.762131690979004, -146.3929901123047)"/><path class="st1" d="M253.8,577.7H233l0.1-3.6c0-0.8,0.9-78.6-35.3-94.5l-3.2-1.4l1.4-3.2c6.9-16.2,11.6-32.4,13.8-48l0.9-6.2    l4.8,4c8.9,7.4,25.4,23.5,36.4,48.5c13.4,30.7,14.3,65,2.7,101.9L253.8,577.7z M240,570.7h8.6c10.3-34.3,9.2-66-3.2-94.5    c-8.6-19.8-21-33.7-29.7-41.8c-2.4,13.3-6.4,26.8-12,40.4c15.5,8.4,26.3,27.3,32.2,56.2C239.3,548.1,239.9,563.8,240,570.7z" style="fill: rgb(42, 79, 134);" transform="matrix(1, 0, 0, 1, -2.762131690979004, -146.3929901123047)"/><path class="st1" d="M164.4,580.3l-2.8-3.7c-0.3-0.4-6.9-9.2-13.6-20.1c-9.3-14.9-14-26-14-32.8c0-16.8,13.6-30.4,30.4-30.4    c16.8,0,30.4,13.6,30.4,30.4c0,6.8-4.7,17.9-14,32.8c-6.7,10.8-13.4,19.7-13.6,20.1L164.4,580.3z M164.4,500.2    c-12.9,0-23.4,10.5-23.4,23.4c0,10,15,33,23.4,44.8c8.4-11.8,23.4-34.8,23.4-44.8C187.9,510.7,177.4,500.2,164.4,500.2z" style="fill: rgb(42, 79, 134);" transform="matrix(1, 0, 0, 1, -2.762131690979004, -146.3929901123047)"/><path d="M 124.900002 496.700012 H 207.800003 V 514.900013 H 124.900002 V 496.700012 Z" class="st5" style="fill: rgb(255, 255, 255);" transform="matrix(1, 0, 0, 1, -2.762131690979004, -146.3929901123047)"/><path class="st1" d="M211.3,518.4h-89.9v-25.2h89.9V518.4z M128.4,511.4h75.9v-11.2h-75.9V511.4z" style="fill: rgb(42, 79, 134);" transform="matrix(1, 0, 0, 1, -2.762131690979004, -146.3929901123047)"/>

<path class="st1" d="M978,358.3l-9.2-16.9c-2.6-4.7-6.4-8.6-11.2-11.2l-16.9-9.2l16.9-9.2c4.7-2.6,8.6-6.4,11.2-11.2l9.2-16.9   l9.2,16.9c2.6,4.7,6.4,8.6,11.2,11.2l16.9,9.2l-16.9,9.2c-4.7,2.6-8.6,6.4-11.2,11.2L978,358.3z M955.3,321l5.7,3.1   c5.9,3.2,10.7,8,14,14l3.1,5.7l3.1-5.7c3.2-5.9,8.1-10.7,14-14l5.7-3.1l-5.7-3.1c-5.9-3.2-10.7-8-14-14l-3.1-5.7l-3.1,5.7   c-3.2,5.9-8.1,10.7-14,14L955.3,321z" style="fill: rgb(42, 79, 134);" transform="matrix(1, 0, 0, 1, -2.762131690979004, -146.3929901123047)"/>
<path class="st1" d="M1285,226.3l-6.6-12c-1.3-2.4-3.3-4.4-5.7-5.7l-12-6.6l12-6.6c2.4-1.3,4.4-3.3,5.7-5.7l6.6-12l6.6,12   c1.3,2.4,3.3,4.4,5.7,5.7l12,6.6l-12,6.6c-2.4,1.3-4.4,3.3-5.7,5.7L1285,226.3z M1275.3,202l0.8,0.4c3.6,2,6.5,4.9,8.5,8.5l0.4,0.8   l0.4-0.8c2-3.6,4.9-6.5,8.5-8.5l0.8-0.4l-0.8-0.4c-3.6-2-6.5-4.9-8.5-8.5l-0.4-0.8l-0.4,0.8c-2,3.6-4.9,6.5-8.5,8.5L1275.3,202z" style="fill: rgb(42, 79, 134);" transform="matrix(1, 0, 0, 1, -2.762131690979004, -146.3929901123047)"/>
<path class="st1" d="M476.2,682.9l-8.5-15.6c-2.2-4.1-5.6-7.5-9.7-9.7l-15.6-8.5l15.6-8.5c4.1-2.2,7.5-5.6,9.7-9.7l8.5-15.6   l8.5,15.6c2.2,4.1,5.6,7.5,9.7,9.7l15.6,8.5l-15.6,8.5c-4.1,2.2-7.5,5.6-9.7,9.7L476.2,682.9z M457,649.1l4.4,2.4   c5.3,2.9,9.6,7.2,12.5,12.5l2.4,4.4l2.4-4.4c2.9-5.3,7.2-9.6,12.5-12.5l4.4-2.4l-4.3-2.4c-5.3-2.9-9.6-7.2-12.5-12.5l-2.4-4.3   l-2.4,4.3c-2.9,5.3-7.2,9.6-12.5,12.5L457,649.1z" style="fill: rgb(42, 79, 134);" transform="matrix(1, 0, 0, 1, -2.762131690979004, -146.3929901123047)"/>
<path class="st1" d="M822.5,754.3l-6.9-12.6c-1.5-2.7-3.7-4.9-6.4-6.4l-12.6-6.9l12.6-6.9c2.7-1.5,4.9-3.7,6.4-6.4l6.9-12.6   l6.9,12.6c1.5,2.7,3.7,4.9,6.4,6.4l12.6,6.9l-12.6,6.9c-2.7,1.5-4.9,3.7-6.4,6.4L822.5,754.3z M811.2,728.5l1.4,0.7   c3.9,2.1,7,5.3,9.2,9.2l0.7,1.4l0.7-1.4c2.1-3.9,5.3-7,9.2-9.2l1.4-0.7l-1.4-0.7c-3.9-2.1-7-5.3-9.2-9.2l-0.7-1.4l-0.7,1.4   c-2.1,3.9-5.3,7-9.2,9.2L811.2,728.5z" style="fill: rgb(42, 79, 134);" transform="matrix(1, 0, 0, 1, -2.762131690979004, -146.3929901123047)"/>
<path class="st1" d="M1216.5,650.3l-8.5-15.5c-2.2-4-5.5-7.4-9.6-9.6l-15.5-8.5l15.5-8.5c4-2.2,7.4-5.5,9.6-9.6l8.5-15.5l8.5,15.5   c2.2,4,5.5,7.4,9.6,9.6l15.5,8.5l-15.5,8.5c-4,2.2-7.4,5.5-9.6,9.6L1216.5,650.3z M1197.6,616.8l4.2,2.3c5.2,2.9,9.5,7.1,12.4,12.4   l2.3,4.2l2.3-4.2c2.9-5.2,7.1-9.5,12.4-12.4l4.2-2.3l-4.2-2.3c-5.2-2.9-9.5-7.1-12.4-12.4l-2.3-4.2l-2.3,4.2   c-2.9,5.2-7.1,9.5-12.4,12.4L1197.6,616.8z" style="fill: rgb(42, 79, 134);" transform="matrix(1, 0, 0, 1, -2.762131690979004, -146.3929901123047)"/>
<path class="st1" d="M1055.7,923.8l-6.7-12.3c-1.4-2.6-3.5-4.7-6.1-6.1l-12.3-6.7l12.3-6.7c2.6-1.4,4.7-3.5,6.1-6.1l6.7-12.3   l6.7,12.3c1.4,2.6,3.5,4.7,6.1,6.1l12.3,6.7l-12.3,6.7c-2.6,1.4-4.7,3.5-6.1,6.1L1055.7,923.8z M1045.2,898.7l1.1,0.6   c3.7,2,6.8,5.1,8.9,8.9l0.6,1.1l0.6-1.1c2-3.7,5.1-6.8,8.9-8.9l1.1-0.6l-1.1-0.6c-3.7-2-6.8-5.1-8.9-8.9l-0.6-1.1l-0.6,1.1   c-2,3.7-5.1,6.8-8.9,8.9L1045.2,898.7z" style="fill: rgb(42, 79, 134);" transform="matrix(1, 0, 0, 1, -2.762131690979004, -146.3929901123047)"/>
<path class="st1" d="M496.1,323.8l-7.9-14.4c-1.9-3.6-4.9-6.5-8.4-8.4l-14.4-7.9l14.4-7.9c3.6-1.9,6.5-4.9,8.4-8.4l7.9-14.4   l7.9,14.4c1.9,3.6,4.9,6.5,8.4,8.4l14.4,7.9l-14.4,7.9c-3.6,1.9-6.5,4.9-8.4,8.4L496.1,323.8z M479.9,293.1l3.2,1.7   c4.7,2.6,8.6,6.5,11.2,11.2l1.7,3.2l1.7-3.2c2.6-4.7,6.5-8.6,11.2-11.2l3.2-1.7l-3.2-1.7c-4.7-2.6-8.6-6.5-11.2-11.2l-1.7-3.2   l-1.7,3.2c-2.6,4.7-6.5,8.6-11.2,11.2L479.9,293.1z" style="fill: rgb(42, 79, 134);" transform="matrix(1, 0, 0, 1, -2.762131690979004, -146.3929901123047)"/>
<path class="st1" d="M96.2,693.3l-7-12.7c-1.5-2.8-3.8-5-6.5-6.5l-12.7-7l12.7-7c2.8-1.5,5-3.8,6.5-6.5l7-12.7l7,12.7   c1.5,2.8,3.8,5,6.5,6.5l12.7,7l-12.7,7c-2.8,1.5-5,3.8-6.5,6.5L96.2,693.3z M84.5,667l1.5,0.8c3.9,2.2,7.2,5.4,9.3,9.3l0.8,1.5   l0.8-1.5c2.2-3.9,5.4-7.2,9.3-9.3l1.5-0.8l-1.5-0.8c-3.9-2.2-7.2-5.4-9.3-9.3l-0.8-1.5l-0.8,1.5c-2.2,3.9-5.4,7.2-9.3,9.3L84.5,667   z" style="fill: rgb(42, 79, 134);" transform="matrix(1, 0, 0, 1, -2.762131690979004, -146.3929901123047)"/>
<path class="st1" d="M394.3,944.1l-9.4-17.1c-2.6-4.8-6.6-8.8-11.4-11.4l-17.1-9.4l17.1-9.4c4.8-2.6,8.8-6.6,11.4-11.4l9.4-17.1   l9.4,17.1c2.6,4.8,6.6,8.8,11.4,11.4l17.1,9.4l-17.1,9.4c-4.8,2.6-8.8,6.6-11.4,11.4L394.3,944.1z M371,906.2l5.9,3.2   c6,3.3,10.9,8.2,14.2,14.2l3.2,5.9l3.2-5.9c3.3-6,8.2-10.9,14.2-14.2l5.9-3.2l-5.9-3.2c-6-3.3-10.9-8.2-14.2-14.2l-3.2-5.9   l-3.2,5.9c-3.3,6-8.2,10.9-14.2,14.2L371,906.2z" style="fill: rgb(42, 79, 134);" transform="matrix(1, 0, 0, 1, -2.762131690979004, -146.3929901123047)"/>
<path class="st1" d="M81,262.5c-11.9,0-21.5-9.6-21.5-21.5s9.6-21.5,21.5-21.5s21.5,9.6,21.5,21.5S92.9,262.5,81,262.5z M81,226.5   c-8,0-14.5,6.5-14.5,14.5S73,255.5,81,255.5S95.5,249,95.5,241S89,226.5,81,226.5z" style="fill: rgb(42, 79, 134);" transform="matrix(1, 0, 0, 1, -2.762131690979004, -146.3929901123047)"/>
<path class="st1" d="M349,594.1c-11.1,0-20.1-9-20.1-20.1s9-20.1,20.1-20.1s20.1,9,20.1,20.1S360.1,594.1,349,594.1z M349,560.9   c-7.2,0-13.1,5.9-13.1,13.1s5.9,13.1,13.1,13.1s13.1-5.9,13.1-13.1S356.2,560.9,349,560.9z" style="fill: rgb(42, 79, 134);" transform="matrix(1, 0, 0, 1, -2.762131690979004, -146.3929901123047)"/>
<path class="st1" d="M92.5,815.4c-8.2,0-14.8-6.6-14.8-14.8c0-8.2,6.6-14.8,14.8-14.8s14.8,6.6,14.8,14.8   C107.3,808.7,100.6,815.4,92.5,815.4z M92.5,792.8c-4.3,0-7.8,3.5-7.8,7.8s3.5,7.8,7.8,7.8c4.3,0,7.8-3.5,7.8-7.8   S96.8,792.8,92.5,792.8z" style="fill: rgb(42, 79, 134);" transform="matrix(1, 0, 0, 1, -2.762131690979004, -146.3929901123047)"/>
<path class="st1" d="M821,904.1c-10.1,0-18.4-8.2-18.4-18.4c0-10.1,8.2-18.4,18.4-18.4s18.4,8.2,18.4,18.4   C839.4,895.8,831.1,904.1,821,904.1z M821,874.4c-6.3,0-11.4,5.1-11.4,11.4c0,6.3,5.1,11.4,11.4,11.4c6.3,0,11.4-5.1,11.4-11.4   C832.4,879.4,827.3,874.4,821,874.4z" style="fill: rgb(42, 79, 134);" transform="matrix(1, 0, 0, 1, -2.762131690979004, -146.3929901123047)"/>
<path class="st1" d="M1069.2,462.9c-9,0-16.3-7.3-16.3-16.3c0-9,7.3-16.3,16.3-16.3s16.3,7.3,16.3,16.3   C1085.5,455.6,1078.2,462.9,1069.2,462.9z M1069.2,437.3c-5.1,0-9.3,4.2-9.3,9.3c0,5.1,4.2,9.3,9.3,9.3s9.3-4.2,9.3-9.3   C1078.5,441.5,1074.4,437.3,1069.2,437.3z" style="fill: rgb(42, 79, 134);" transform="matrix(1, 0, 0, 1, -2.762131690979004, -146.3929901123047)"/>
<path class="st1" d="M1308.2,665.4c-9,0-16.3-7.3-16.3-16.3c0-9,7.3-16.3,16.3-16.3s16.3,7.3,16.3,16.3   C1324.6,658.1,1317.2,665.4,1308.2,665.4z M1308.2,639.8c-5.1,0-9.3,4.2-9.3,9.3c0,5.1,4.2,9.3,9.3,9.3s9.3-4.2,9.3-9.3   C1317.6,643.9,1313.4,639.8,1308.2,639.8z" style="fill: rgb(42, 79, 134);" transform="matrix(1, 0, 0, 1, -2.762131690979004, -146.3929901123047)"/>
<path class="st1" d="M240.7,293.6c-3.1,0-6-1.2-8.2-3.4c-4.5-4.5-4.5-11.9,0-16.4c4.5-4.5,11.9-4.5,16.4,0c2.2,2.2,3.4,5.1,3.4,8.2   c0,3.1-1.2,6-3.4,8.2C246.7,292.4,243.8,293.6,240.7,293.6z M240.7,277.4c-1.2,0-2.4,0.5-3.3,1.4c-1.8,1.8-1.8,4.7,0,6.5   c0.9,0.9,2,1.4,3.3,1.4c1.2,0,2.4-0.5,3.3-1.4c0.9-0.9,1.4-2,1.4-3.3c0-1.2-0.5-2.4-1.4-3.3C243.1,277.8,241.9,277.4,240.7,277.4z" style="fill: rgb(42, 79, 134);" transform="matrix(1, 0, 0, 1, -2.762131690979004, -146.3929901123047)"/>
</g>
          </g>

          <path id="foreground-overlay" style="fill: #ebeced; opacity: 0.96; pointer-events: none;" d="         M -1000000, -1000000         L 2000000, -1000000         L 2000000, 2000000         L -1000000, 2000000         Z         M 0, 0         L 0, 835         L 1379.1798095703125, 835         L 1379.1798095703125, 0         Z       "/>

          <g id="huds">
            <g is="ee-outlinehud" id="outline-hud"/>
            <g is="ve-viewboxhud" id="view-box-hud" enabled=""/>
            <g is="ee-transformhud" id="transform-hud" style="display: none;" enabled=""/>
            <g is="ee-lineargradienthud" id="linear-gradient-hud" tabindex="-1"/>
            <g is="ee-radialgradienthud" id="radial-gradient-hud" tabindex="-1"/>
            <g is="ee-penseghud" id="pen-seg-hud" style="visibility: hidden;"/>
            <g is="ee-penhud" id="pen-hud" tabindex="-1"/>
            <g is="ee-rubberbandhud" id="rubber-band-hud" enabled=""/>
            <g is="ee-texthud" id="text-hud" tabindex="-1"/>
          </g>
        </g>
      </svg>